<svg width="801" height="571" viewBox="0 0 801 571" fill="none" xmlns="http://www.w3.org/2000/svg">
<path fill-rule="evenodd" clip-rule="evenodd" d="M213.776 133.78H518.184V285L413.993 373.484H81.9465V222.222L213.776 133.78ZM214.15 135.008L84.5776 221.935H413.542L515.898 135.008H214.15ZM516.956 135.721L414.381 222.833V371.544L516.956 284.432V135.721ZM413.154 372.257V223.163H83.1744V372.257H413.154Z" fill="#616161"/>
<path d="M214.381 134.394L83.7588 196.71H413.311L516.371 134.394H214.381Z" fill="#616161"/>
<path fill-rule="evenodd" clip-rule="evenodd" d="M214.242 133.78H518.573L413.482 197.324H83.7588L83.4945 196.156L214.242 133.78ZM214.52 135.008L86.4716 196.096H413.14L514.169 135.008H214.52Z" fill="#616161"/>
<path d="M516.971 93.0509L412.113 196.111L481.619 183.528L609.245 55.9014L516.971 93.0509Z" fill="#FAFBFC"/>
<path fill-rule="evenodd" clip-rule="evenodd" d="M517.314 93.5747L413.965 195.152L481.32 182.958L606.684 57.5943L517.314 93.5747ZM609.016 55.3319L609.679 56.3355L481.917 184.098L410.261 197.07L516.628 92.5272L609.016 55.3319Z" fill="#616161"/>
<path d="M214.981 133.196L84.4001 195.512L2.26952 157.119L142.479 91.8525L214.981 133.196Z" fill="#FAFBFC"/>
<path fill-rule="evenodd" clip-rule="evenodd" d="M142.508 91.162L216.305 133.245L84.4028 196.191L0.817261 157.118L142.508 91.162ZM3.72179 157.12L84.3974 194.833L213.656 133.148L142.451 92.543L3.72179 157.12Z" fill="#616161"/>
<path d="M176.034 183.705C176.034 179.636 179.332 176.338 183.401 176.338H287.305C291.374 176.338 294.672 179.636 294.672 183.705V219.302C294.672 223.371 291.374 226.669 287.305 226.669H183.401C179.332 226.669 176.034 223.371 176.034 219.302V183.705Z" fill="#FAFBFC"/>
<path fill-rule="evenodd" clip-rule="evenodd" d="M287.305 177.566H183.401C180.01 177.566 177.261 180.314 177.261 183.705V219.302C177.261 222.693 180.01 225.442 183.401 225.442H287.305C290.696 225.442 293.445 222.693 293.445 219.302V183.705C293.445 180.314 290.696 177.566 287.305 177.566ZM183.401 176.338C179.332 176.338 176.034 179.636 176.034 183.705V219.302C176.034 223.371 179.332 226.669 183.401 226.669H287.305C291.374 226.669 294.672 223.371 294.672 219.302V183.705C294.672 179.636 291.374 176.338 287.305 176.338H183.401Z" fill="#616161"/>
<path d="M176.034 71.058C176.034 66.9892 179.332 63.6908 183.401 63.6908H287.305C291.374 63.6908 294.672 66.9892 294.672 71.058V106.655C294.672 110.724 291.374 114.022 287.305 114.022H183.401C179.332 114.022 176.034 110.724 176.034 106.655V71.058Z" fill="#FAFBFC"/>
<path fill-rule="evenodd" clip-rule="evenodd" d="M287.305 64.9186H183.401C180.01 64.9186 177.261 67.6673 177.261 71.058V106.655C177.261 110.046 180.01 112.795 183.401 112.795H287.305C290.696 112.795 293.445 110.046 293.445 106.655V71.058C293.445 67.6673 290.696 64.9186 287.305 64.9186ZM183.401 63.6908C179.332 63.6908 176.034 66.9892 176.034 71.058V106.655C176.034 110.724 179.332 114.022 183.401 114.022H287.305C291.374 114.022 294.672 110.724 294.672 106.655V71.058C294.672 66.9892 291.374 63.6908 287.305 63.6908H183.401Z" fill="#616161"/>
<path d="M196.406 88.8567C196.406 91.504 194.26 93.6502 191.612 93.6502C188.965 93.6502 186.819 91.504 186.819 88.8567C186.819 86.2093 188.965 84.0632 191.612 84.0632C194.26 84.0632 196.406 86.2093 196.406 88.8567Z" fill="#616161"/>
<path d="M214.381 84.063C214.381 82.7393 215.454 81.6662 216.778 81.6662H276.697C278.02 81.6662 279.094 82.7393 279.094 84.063C279.094 85.3867 278.02 86.4597 276.697 86.4597H216.778C215.454 86.4597 214.381 85.3867 214.381 84.063Z" fill="#616161"/>
<path d="M214.381 93.6503C214.381 92.3266 215.454 91.2535 216.778 91.2535H276.697C278.02 91.2535 279.094 92.3266 279.094 93.6503C279.094 94.974 278.02 96.047 276.697 96.047H216.778C215.454 96.047 214.381 94.974 214.381 93.6503Z" fill="#616161"/>
<path d="M176.034 14.7345C176.034 10.6656 179.332 7.36723 183.401 7.36723H287.305C291.374 7.36723 294.672 10.6656 294.672 14.7345V50.3316C294.672 54.4005 291.374 57.6989 287.305 57.6989H183.401C179.332 57.6989 176.034 54.4005 176.034 50.3316V14.7345Z" fill="#FAFBFC"/>
<path fill-rule="evenodd" clip-rule="evenodd" d="M287.305 8.5951H183.401C180.01 8.5951 177.261 11.3438 177.261 14.7345V50.3316C177.261 53.7223 180.01 56.471 183.401 56.471H287.305C290.696 56.471 293.445 53.7223 293.445 50.3316V14.7345C293.445 11.3438 290.696 8.5951 287.305 8.5951ZM183.401 7.36723C179.332 7.36723 176.034 10.6656 176.034 14.7345V50.3316C176.034 54.4005 179.332 57.6989 183.401 57.6989H287.305C291.374 57.6989 294.672 54.4005 294.672 50.3316V14.7345C294.672 10.6656 291.374 7.36723 287.305 7.36723H183.401Z" fill="#616161"/>
<path d="M196.406 32.5328C196.406 35.1802 194.26 37.3263 191.612 37.3263C188.965 37.3263 186.819 35.1802 186.819 32.5328C186.819 29.8855 188.965 27.7393 191.612 27.7393C194.26 27.7393 196.406 29.8855 196.406 32.5328Z" fill="#616161"/>
<path d="M214.381 27.7397C214.381 26.416 215.454 25.3429 216.778 25.3429H276.697C278.02 25.3429 279.094 26.416 279.094 27.7397C279.094 29.0634 278.02 30.1364 276.697 30.1364H216.778C215.454 30.1364 214.381 29.0634 214.381 27.7397Z" fill="#616161"/>
<path d="M214.381 37.3267C214.381 36.003 215.454 34.93 216.778 34.93H276.697C278.02 34.93 279.094 36.003 279.094 37.3267C279.094 38.6504 278.02 39.7234 276.697 39.7234H216.778C215.454 39.7234 214.381 38.6504 214.381 37.3267Z" fill="#616161"/>
<path d="M176.034 127.382C176.034 123.313 179.332 120.014 183.401 120.014H287.305C291.374 120.014 294.672 123.313 294.672 127.382V162.979C294.672 167.048 291.374 170.346 287.305 170.346H183.401C179.332 170.346 176.034 167.048 176.034 162.979V127.382Z" fill="#FAFBFC"/>
<path fill-rule="evenodd" clip-rule="evenodd" d="M287.305 121.242H183.401C180.01 121.242 177.261 123.991 177.261 127.382V162.979C177.261 166.369 180.01 169.118 183.401 169.118H287.305C290.696 169.118 293.445 166.369 293.445 162.979V127.382C293.445 123.991 290.696 121.242 287.305 121.242ZM183.401 120.014C179.332 120.014 176.034 123.313 176.034 127.382V162.979C176.034 167.048 179.332 170.346 183.401 170.346H287.305C291.374 170.346 294.672 167.048 294.672 162.979V127.382C294.672 123.313 291.374 120.014 287.305 120.014H183.401Z" fill="#616161"/>
<path d="M196.406 149.973C196.406 152.621 194.26 154.767 191.612 154.767C188.965 154.767 186.819 152.621 186.819 149.973C186.819 147.326 188.965 145.18 191.612 145.18C194.26 145.18 196.406 147.326 196.406 149.973Z" fill="#616161"/>
<path d="M214.381 145.18C214.381 143.856 215.454 142.783 216.778 142.783H276.697C278.02 142.783 279.094 143.856 279.094 145.18C279.094 146.504 278.02 147.577 276.697 147.577H216.778C215.454 147.577 214.381 146.504 214.381 145.18Z" fill="#616161"/>
<path d="M214.381 154.767C214.381 153.443 215.454 152.37 216.778 152.37H276.697C278.02 152.37 279.094 153.443 279.094 154.767C279.094 156.091 278.02 157.164 276.697 157.164H216.778C215.454 157.164 214.381 156.091 214.381 154.767Z" fill="#616161"/>
<path d="M232.357 56.5004H240.746V64.889H232.357V56.5004Z" fill="#FAFBFC"/>
<path fill-rule="evenodd" clip-rule="evenodd" d="M239.518 57.7283H233.585V63.6612H239.518V57.7283ZM232.357 56.5004V64.889H240.746V56.5004H232.357Z" fill="#616161"/>
<path d="M232.357 112.824H240.746V121.213H232.357V112.824Z" fill="#FAFBFC"/>
<path fill-rule="evenodd" clip-rule="evenodd" d="M239.518 114.052H233.585V119.985H239.518V114.052ZM232.357 112.824V121.213H240.746V112.824H232.357Z" fill="#616161"/>
<path d="M232.357 169.147H240.746V177.536H232.357V169.147Z" fill="#FAFBFC"/>
<path fill-rule="evenodd" clip-rule="evenodd" d="M239.518 170.375H233.585V176.308H239.518V170.375ZM232.357 169.147V177.536H240.746V169.147H232.357Z" fill="#616161"/>
<path fill-rule="evenodd" clip-rule="evenodd" d="M295.956 30.1512H294.672V28.9233H295.956V30.1512ZM301.092 30.1512H298.524V28.9233H301.092V30.1512ZM306.228 30.1512H303.66V28.9233H306.228V30.1512ZM311.364 30.1512H308.796V28.9233H311.364V30.1512ZM316.5 30.1512H313.932V28.9233H316.5V30.1512ZM321.636 30.1512H319.068V28.9233H321.636V30.1512ZM326.772 30.1512H324.204V28.9233H326.772V30.1512ZM330.624 30.1512H329.34V28.9233H330.624V30.1512Z" fill="#616161"/>
<path fill-rule="evenodd" clip-rule="evenodd" d="M296.556 88.8711H295.272V87.6433H296.556V88.8711ZM301.691 88.8711H299.124V87.6433H301.691V88.8711ZM306.827 88.8711H304.259V87.6433H306.827V88.8711ZM311.963 88.8711H309.395V87.6433H311.963V88.8711ZM317.099 88.8711H314.531V87.6433H317.099V88.8711ZM322.235 88.8711H319.667V87.6433H322.235V88.8711ZM327.371 88.8711H324.803V87.6433H327.371V88.8711ZM331.223 88.8711H329.939V87.6433H331.223V88.8711Z" fill="#616161"/>
<path d="M328.826 25.3429H337.215V33.7315H328.826V25.3429Z" fill="#616161"/>
<path d="M329.425 84.0631H337.814V92.4518H329.425V84.0631Z" fill="#616161"/>
<path d="M81.9613 374.069V195.512H413.311V374.069H81.9613Z" fill="#FAFBFC"/>
<path fill-rule="evenodd" clip-rule="evenodd" d="M81.3474 194.898H413.925V374.683H81.3474V194.898ZM82.5752 196.126V373.455H412.697V196.126H82.5752Z" fill="#616161"/>
<path d="M471.316 39.2919C471.316 60.9922 453.725 78.5837 432.024 78.5837C410.324 78.5837 392.732 60.9922 392.732 39.2919C392.732 17.5916 410.324 0 432.024 0C453.725 0 471.316 17.5916 471.316 39.2919Z" fill="#FAFBFC"/>
<path fill-rule="evenodd" clip-rule="evenodd" d="M432.024 75.9298C452.259 75.9298 468.662 59.5265 468.662 39.2919C468.662 19.0573 452.259 2.6539 432.024 2.6539C411.79 2.6539 395.386 19.0573 395.386 39.2919C395.386 59.5265 411.79 75.9298 432.024 75.9298ZM432.024 78.5837C453.725 78.5837 471.316 60.9922 471.316 39.2919C471.316 17.5916 453.725 0 432.024 0C410.324 0 392.732 17.5916 392.732 39.2919C392.732 60.9922 410.324 78.5837 432.024 78.5837Z" fill="#616161"/>
<path d="M418.272 31.4335C418.272 42.2836 409.476 51.0794 398.626 51.0794C387.776 51.0794 378.98 42.2836 378.98 31.4335C378.98 20.5833 387.776 11.7876 398.626 11.7876C409.476 11.7876 418.272 20.5833 418.272 31.4335Z" fill="#FAFBFC"/>
<path fill-rule="evenodd" clip-rule="evenodd" d="M398.626 48.4255C408.011 48.4255 415.618 40.8179 415.618 31.4335C415.618 22.0491 408.011 14.4415 398.626 14.4415C389.242 14.4415 381.634 22.0491 381.634 31.4335C381.634 40.8179 389.242 48.4255 398.626 48.4255ZM398.626 51.0794C409.476 51.0794 418.272 42.2836 418.272 31.4335C418.272 20.5833 409.476 11.7876 398.626 11.7876C387.776 11.7876 378.98 20.5833 378.98 31.4335C378.98 42.2836 387.776 51.0794 398.626 51.0794Z" fill="#616161"/>
<path d="M482.613 58.9378C482.613 69.788 473.817 78.5837 462.967 78.5837C452.117 78.5837 443.321 69.788 443.321 58.9378C443.321 48.0877 452.117 39.2919 462.967 39.2919C473.817 39.2919 482.613 48.0877 482.613 58.9378Z" fill="#FAFBFC"/>
<path fill-rule="evenodd" clip-rule="evenodd" d="M462.967 75.9298C472.351 75.9298 479.959 68.3222 479.959 58.9378C479.959 49.5534 472.351 41.9458 462.967 41.9458C453.582 41.9458 445.975 49.5534 445.975 58.9378C445.975 68.3222 453.582 75.9298 462.967 75.9298ZM462.967 78.5837C473.817 78.5837 482.613 69.788 482.613 58.9378C482.613 48.0877 473.817 39.2919 462.967 39.2919C452.117 39.2919 443.321 48.0877 443.321 58.9378C443.321 69.788 452.117 78.5837 462.967 78.5837Z" fill="#616161"/>
<path d="M437.918 44.6945C437.918 55.5447 429.122 64.3404 418.272 64.3404C407.422 64.3404 398.626 55.5447 398.626 44.6945C398.626 33.8444 407.422 25.0486 418.272 25.0486C429.122 25.0486 437.918 33.8444 437.918 44.6945Z" fill="#FAFBFC"/>
<path fill-rule="evenodd" clip-rule="evenodd" d="M418.272 61.6865C427.657 61.6865 435.264 54.0789 435.264 44.6945C435.264 35.3101 427.657 27.7025 418.272 27.7025C408.888 27.7025 401.28 35.3101 401.28 44.6945C401.28 54.0789 408.888 61.6865 418.272 61.6865ZM418.272 64.3404C429.122 64.3404 437.918 55.5447 437.918 44.6945C437.918 33.8444 429.122 25.0486 418.272 25.0486C407.422 25.0486 398.626 33.8444 398.626 44.6945C398.626 55.5447 407.422 64.3404 418.272 64.3404Z" fill="#616161"/>
<path d="M427.113 60.4112C427.113 71.2614 418.317 80.0572 407.467 80.0572C396.617 80.0572 387.821 71.2614 387.821 60.4112C387.821 49.5611 396.617 40.7653 407.467 40.7653C418.317 40.7653 427.113 49.5611 427.113 60.4112Z" fill="#FAFBFC"/>
<path fill-rule="evenodd" clip-rule="evenodd" d="M407.467 77.4033C416.851 77.4033 424.459 69.7957 424.459 60.4112C424.459 51.0268 416.851 43.4192 407.467 43.4192C398.082 43.4192 390.475 51.0268 390.475 60.4112C390.475 69.7957 398.082 77.4033 407.467 77.4033ZM407.467 80.0572C418.317 80.0572 427.113 71.2614 427.113 60.4112C427.113 49.5611 418.317 40.7653 407.467 40.7653C396.617 40.7653 387.821 49.5611 387.821 60.4112C387.821 71.2614 396.617 80.0572 407.467 80.0572Z" fill="#616161"/>
<path d="M403.538 54.0263C403.538 67.589 392.543 78.5837 378.98 78.5837C365.418 78.5837 354.423 67.589 354.423 54.0263C354.423 40.4636 365.418 29.4689 378.98 29.4689C392.543 29.4689 403.538 40.4636 403.538 54.0263Z" fill="#FAFBFC"/>
<path fill-rule="evenodd" clip-rule="evenodd" d="M378.98 75.9298C391.077 75.9298 400.884 66.1233 400.884 54.0263C400.884 41.9293 391.077 32.1228 378.98 32.1228C366.883 32.1228 357.077 41.9293 357.077 54.0263C357.077 66.1233 366.883 75.9298 378.98 75.9298ZM378.98 78.5837C392.543 78.5837 403.538 67.589 403.538 54.0263C403.538 40.4636 392.543 29.4689 378.98 29.4689C365.418 29.4689 354.423 40.4636 354.423 54.0263C354.423 67.589 365.418 78.5837 378.98 78.5837Z" fill="#616161"/>
<path d="M381.927 27.7499L378.98 39.3352L372.841 71.9532L388.312 72.9355L392.241 69.4975L395.925 73.1811L418.027 73.6723L421.71 74.6545L434.335 75.1495L443.812 74.1634L445.285 73.6723L447.004 72.9355L450.197 71.4621L451.916 70.7254L467.387 71.9532L468.86 47.887V39.0463L406.239 13.0154L403.783 15.4712L401.819 18.1725L381.927 27.7499Z" fill="#FAFBFC"/>
<path fill-rule="evenodd" clip-rule="evenodd" d="M392.879 100.586V72.69H395.533V103.24L383.658 103.208L383.759 102.896L383.833 102.575L383.877 102.25L383.892 101.913L383.875 101.563L383.828 101.227L383.75 100.899L383.646 100.586H392.879Z" fill="#616161"/>
<path fill-rule="evenodd" clip-rule="evenodd" d="M418.173 98.4759V75.1334L420.827 75.158L420.708 98.4314L420.419 98.3451L420.119 98.2814L419.804 98.242L419.5 98.2297L419.164 98.2448L418.83 98.2905L418.5 98.367L418.173 98.4759Z" fill="#616161"/>
<path fill-rule="evenodd" clip-rule="evenodd" d="M336.153 57.1197H356.697V59.7736H335.963L336.109 59.4191L336.219 59.0403L336.291 58.6229L336.315 58.2011L336.305 57.9265L336.274 57.6503L336.222 57.3775L336.153 57.1197ZM505.871 59.8156L482.922 59.7736V57.1197L506.132 57.0793L506.068 57.0794L506.011 57.2017L505.92 57.4268L505.854 57.6232L505.801 57.817L505.754 58.0388L505.721 58.2619L505.703 58.4798L505.697 58.6922V58.981L505.741 59.2658L505.795 59.5401L505.871 59.8156ZM450.408 98.5812V73.1811H453.062V98.3909L452.802 98.3216L452.531 98.2705L452.257 98.2399L451.98 98.2297L451.583 98.2508L451.385 98.2775L451.187 98.3154L450.991 98.3639L450.793 98.4252L450.595 98.4992L450.408 98.5812Z" fill="#616161"/>
<path d="M336.315 58.2011C336.315 60.2355 334.601 61.8847 332.567 61.8847C330.532 61.8847 328.883 60.2355 328.883 58.2011C328.883 56.1667 330.532 54.5175 332.567 54.5175C334.601 54.5175 336.315 56.1667 336.315 58.2011Z" fill="#616161"/>
<path d="M383.892 101.913C383.892 103.948 382.243 105.597 380.208 105.597C378.174 105.597 376.525 103.948 376.525 101.913C376.525 99.8789 378.174 98.2297 380.208 98.2297C382.243 98.2297 383.892 99.8789 383.892 101.913Z" fill="#616161"/>
<path d="M423.184 101.913C423.184 103.948 421.534 105.597 419.5 105.597C417.466 105.597 415.816 103.948 415.816 101.913C415.816 99.8789 417.466 98.2297 419.5 98.2297C421.534 98.2297 423.184 99.8789 423.184 101.913Z" fill="#616161"/>
<path d="M455.599 101.913C455.599 103.948 453.95 105.597 451.916 105.597C449.881 105.597 448.232 103.948 448.232 101.913C448.232 99.8789 449.946 98.2297 451.98 98.2297C454.015 98.2297 455.599 99.8789 455.599 101.913Z" fill="#616161"/>
<path d="M513.064 58.6922C513.064 60.7266 511.415 62.3758 509.38 62.3758C507.346 62.3758 505.697 60.7266 505.697 58.6922C505.697 56.6578 507.346 55.0086 509.38 55.0086C511.415 55.0086 513.064 56.6578 513.064 58.6922Z" fill="#616161"/>
<path d="M93.3459 480.725C93.3459 487.343 87.9806 492.708 81.3621 492.708C74.7437 492.708 69.3784 487.343 69.3784 480.725C69.3784 474.106 74.7437 468.741 81.3621 468.741C87.9806 468.741 93.3459 474.106 93.3459 480.725Z" fill="#616161"/>
<path fill-rule="evenodd" clip-rule="evenodd" d="M81.3621 490.253C86.6243 490.253 90.8901 485.987 90.8901 480.725C90.8901 475.462 86.6243 471.197 81.3621 471.197C76.1 471.197 71.8342 475.462 71.8342 480.725C71.8342 485.987 76.1 490.253 81.3621 490.253ZM81.3621 492.708C87.9806 492.708 93.3459 487.343 93.3459 480.725C93.3459 474.106 87.9806 468.741 81.3621 468.741C74.7437 468.741 69.3784 474.106 69.3784 480.725C69.3784 487.343 74.7437 492.708 81.3621 492.708Z" fill="#616161"/>
<path d="M778.815 39.7231C778.815 46.3415 773.45 51.7068 766.831 51.7068C760.213 51.7068 754.847 46.3415 754.847 39.7231C754.847 33.1046 760.213 27.7393 766.831 27.7393C773.45 27.7393 778.815 33.1046 778.815 39.7231Z" fill="#616161"/>
<path fill-rule="evenodd" clip-rule="evenodd" d="M766.831 49.2511C772.093 49.2511 776.359 44.9852 776.359 39.7231C776.359 34.4609 772.093 30.1951 766.831 30.1951C761.569 30.1951 757.303 34.4609 757.303 39.7231C757.303 44.9852 761.569 49.2511 766.831 49.2511ZM766.831 51.7068C773.45 51.7068 778.815 46.3415 778.815 39.7231C778.815 33.1046 773.45 27.7393 766.831 27.7393C760.213 27.7393 754.847 33.1046 754.847 39.7231C754.847 46.3415 760.213 51.7068 766.831 51.7068Z" fill="#616161"/>
<path d="M403.125 288.386L272.503 392.644L172.438 338.118L309.053 232.661L403.125 288.386Z" fill="#FAFBFC"/>
<path fill-rule="evenodd" clip-rule="evenodd" d="M309.007 231.921L404.203 288.311L272.567 393.378L171.319 338.207L309.007 231.921ZM309.098 233.402L173.558 338.029L272.438 391.91L402.047 288.461L309.098 233.402Z" fill="#616161"/>
<path d="M403.724 288.386L273.102 392.045H602.654L705.714 288.386H403.724Z" fill="#616161"/>
<path fill-rule="evenodd" clip-rule="evenodd" d="M403.51 287.772H707.19L602.91 392.659H271.34L403.51 287.772ZM403.938 289L274.863 391.431H602.399L704.238 289H403.938Z" fill="#616161"/>
<path fill-rule="evenodd" clip-rule="evenodd" d="M403.511 288.371H706.603L602.488 391.881L601.622 391.01L703.627 289.599H403.937L273.482 392.527L272.721 391.563L403.511 288.371Z" fill="#616161"/>
<path fill-rule="evenodd" clip-rule="evenodd" d="M403.51 287.772H707.527V465.4L603.508 569.419H271.889V391.748L403.51 287.772ZM403.938 289L274.27 391.431H602.999L705.43 289H403.938ZM706.299 289.868L603.867 392.299V567.323L706.299 464.891V289.868ZM602.639 568.191V392.659H273.116V568.191H602.639Z" fill="#616161"/>
<path d="M461.246 113.001C461.246 108.932 464.545 105.634 468.613 105.634H679.173C683.242 105.634 686.54 108.932 686.54 113.001V448.191C686.54 452.26 683.242 455.559 679.173 455.559H468.613C464.545 455.559 461.246 452.26 461.246 448.191V113.001Z" fill="#FAFBFC"/>
<path fill-rule="evenodd" clip-rule="evenodd" d="M679.173 106.862H468.613C465.223 106.862 462.474 109.61 462.474 113.001V448.191C462.474 451.582 465.223 454.331 468.613 454.331H679.173C682.564 454.331 685.312 451.582 685.312 448.191V113.001C685.312 109.61 682.564 106.862 679.173 106.862ZM468.613 105.634C464.545 105.634 461.246 108.932 461.246 113.001V448.191C461.246 452.26 464.545 455.559 468.613 455.559H679.173C683.242 455.559 686.54 452.26 686.54 448.191V113.001C686.54 108.932 683.242 105.634 679.173 105.634H468.613Z" fill="#616161"/>
<path d="M472.032 114.023C472.032 115.346 470.959 116.419 469.635 116.419C468.311 116.419 467.238 115.346 467.238 114.023C467.238 112.699 468.311 111.626 469.635 111.626C470.959 111.626 472.032 112.699 472.032 114.023Z" fill="#FF3B30"/>
<path fill-rule="evenodd" clip-rule="evenodd" d="M469.581 113.999C469.577 114.009 469.576 114.019 469.576 114.023C469.576 114.026 469.577 114.036 469.581 114.046C469.585 114.055 469.59 114.061 469.593 114.064C469.597 114.068 469.602 114.072 469.611 114.076C469.622 114.08 469.631 114.082 469.635 114.082C469.638 114.082 469.648 114.08 469.659 114.076C469.667 114.072 469.673 114.068 469.677 114.064C469.68 114.061 469.684 114.055 469.688 114.046C469.693 114.036 469.694 114.026 469.694 114.023C469.694 114.019 469.693 114.009 469.688 113.999C469.684 113.99 469.68 113.984 469.677 113.981C469.673 113.977 469.667 113.973 469.659 113.969C469.648 113.965 469.638 113.964 469.635 113.964C469.631 113.964 469.622 113.965 469.611 113.969C469.602 113.973 469.597 113.977 469.593 113.981C469.59 113.984 469.585 113.99 469.581 113.999ZM469.635 116.419C470.959 116.419 472.032 115.346 472.032 114.023C472.032 112.699 470.959 111.626 469.635 111.626C468.311 111.626 467.238 112.699 467.238 114.023C467.238 115.346 468.311 116.419 469.635 116.419Z" fill="#FF3B30"/>
<path d="M481.619 114.023C481.619 115.346 480.546 116.419 479.222 116.419C477.898 116.419 476.825 115.346 476.825 114.023C476.825 112.699 477.898 111.626 479.222 111.626C480.546 111.626 481.619 112.699 481.619 114.023Z" fill="#FFD60A"/>
<path fill-rule="evenodd" clip-rule="evenodd" d="M479.168 113.999C479.164 114.009 479.163 114.019 479.163 114.023C479.163 114.026 479.164 114.036 479.168 114.046C479.172 114.055 479.177 114.061 479.18 114.064C479.184 114.068 479.189 114.072 479.198 114.076C479.209 114.08 479.218 114.082 479.222 114.082C479.225 114.082 479.235 114.08 479.246 114.076C479.254 114.072 479.26 114.068 479.264 114.064C479.267 114.061 479.271 114.055 479.275 114.046C479.28 114.036 479.281 114.026 479.281 114.023C479.281 114.019 479.28 114.009 479.275 113.999C479.271 113.99 479.267 113.984 479.264 113.981C479.26 113.977 479.254 113.973 479.246 113.969C479.235 113.965 479.225 113.964 479.222 113.964C479.218 113.964 479.209 113.965 479.198 113.969C479.189 113.973 479.184 113.977 479.18 113.981C479.177 113.984 479.172 113.99 479.168 113.999ZM479.222 116.419C480.546 116.419 481.619 115.346 481.619 114.023C481.619 112.699 480.546 111.626 479.222 111.626C477.898 111.626 476.825 112.699 476.825 114.023C476.825 115.346 477.898 116.419 479.222 116.419Z" fill="#FFD60A"/>
<path d="M491.206 114.023C491.206 115.346 490.132 116.419 488.809 116.419C487.485 116.419 486.412 115.346 486.412 114.023C486.412 112.699 487.485 111.626 488.809 111.626C490.132 111.626 491.206 112.699 491.206 114.023Z" fill="#32D74B"/>
<path fill-rule="evenodd" clip-rule="evenodd" d="M488.755 113.999C488.751 114.009 488.75 114.019 488.75 114.023C488.75 114.026 488.751 114.036 488.755 114.046C488.759 114.055 488.764 114.061 488.767 114.064C488.771 114.068 488.776 114.072 488.785 114.076C488.796 114.08 488.805 114.082 488.809 114.082C488.812 114.082 488.822 114.08 488.832 114.076C488.841 114.072 488.847 114.068 488.85 114.064C488.854 114.061 488.858 114.055 488.862 114.046C488.867 114.036 488.868 114.026 488.868 114.023C488.868 114.019 488.867 114.009 488.862 113.999C488.858 113.99 488.854 113.984 488.85 113.981C488.847 113.977 488.841 113.973 488.832 113.969C488.822 113.965 488.812 113.964 488.809 113.964C488.805 113.964 488.796 113.965 488.785 113.969C488.776 113.973 488.771 113.977 488.767 113.981C488.764 113.984 488.759 113.99 488.755 113.999ZM488.809 116.419C490.132 116.419 491.206 115.346 491.206 114.023C491.206 112.699 490.132 111.626 488.809 111.626C487.485 111.626 486.412 112.699 486.412 114.023C486.412 115.346 487.485 116.419 488.809 116.419Z" fill="#32D74B"/>
<path d="M473.23 287.963C473.23 283.895 476.528 280.596 480.597 280.596H561.733C565.801 280.596 569.1 283.895 569.1 287.963V378.686C569.1 382.754 565.801 386.053 561.733 386.053H480.597C476.528 386.053 473.23 382.754 473.23 378.686V287.963Z" fill="#FAFBFC"/>
<path fill-rule="evenodd" clip-rule="evenodd" d="M561.733 281.824H480.597C477.206 281.824 474.458 284.573 474.458 287.963V378.686C474.458 382.076 477.206 384.825 480.597 384.825H561.733C565.123 384.825 567.872 382.076 567.872 378.686V287.963C567.872 284.573 565.123 281.824 561.733 281.824ZM480.597 280.596C476.528 280.596 473.23 283.895 473.23 287.963V378.686C473.23 382.754 476.528 386.053 480.597 386.053H561.733C565.801 386.053 569.1 382.754 569.1 378.686V287.963C569.1 283.895 565.801 280.596 561.733 280.596H480.597Z" fill="#616161"/>
<path d="M467.238 122.411H681.747V429.194H467.238V122.411Z" fill="#FAFBFC"/>
<path fill-rule="evenodd" clip-rule="evenodd" d="M559.336 281.824H478.2C474.81 281.824 472.061 284.573 472.061 287.963V378.686C472.061 382.076 474.81 384.825 478.2 384.825H559.336C562.726 384.825 565.475 382.076 565.475 378.686V287.963C565.475 284.573 562.726 281.824 559.336 281.824ZM478.2 280.596C474.132 280.596 470.833 283.895 470.833 287.963V378.686C470.833 382.754 474.132 386.053 478.2 386.053H559.336C563.405 386.053 566.703 382.754 566.703 378.686V287.963C566.703 283.895 563.405 280.596 559.336 280.596H478.2Z" fill="#616161"/>
<path fill-rule="evenodd" clip-rule="evenodd" d="M559.336 135.622H478.2C474.81 135.622 472.061 138.371 472.061 141.762V232.484C472.061 235.875 474.81 238.623 478.2 238.623H559.336C562.726 238.623 565.475 235.875 565.475 232.484V141.762C565.475 138.371 562.726 135.622 559.336 135.622ZM478.2 134.394C474.132 134.394 470.833 137.693 470.833 141.762V232.484C470.833 236.553 474.132 239.851 478.2 239.851H559.336C563.405 239.851 566.703 236.553 566.703 232.484V141.762C566.703 137.693 563.405 134.394 559.336 134.394H478.2Z" fill="#616161"/>
<path d="M540.497 167.193H501.206L503.661 190.523H530.674L529.447 200.346L520.851 202.801L512.256 200.346L511.642 194.82H503.661L504.889 207.099L520.851 211.396L536.814 207.099L539.27 182.541H510.415L509.801 174.56H539.883L540.497 167.193Z" fill="#FAFBFC"/>
<path fill-rule="evenodd" clip-rule="evenodd" d="M500.524 166.579H541.165L540.448 175.174H510.464L510.983 181.927H539.948L537.382 207.582L520.851 212.032L504.32 207.582L502.983 194.206H512.192L512.821 199.868L520.851 202.163L528.888 199.867L529.979 191.137H503.109L500.524 166.579ZM501.887 167.807L504.214 189.909H531.37L530.005 200.824L520.851 203.44L511.692 200.823L511.093 195.434H504.34L505.458 206.616L520.851 210.761L536.245 206.616L538.591 183.155H509.846L509.138 173.946H539.319L539.83 167.807H501.887Z" fill="#616161"/>
<path d="M540.556 316.99H500.037L500.651 324.971H531.347L530.733 332.952H501.264L501.878 341.547H530.119L529.505 351.984L520.296 354.44L511.087 351.984L510.473 345.845H502.492L503.72 358.124L520.296 363.035L536.873 358.124L540.556 316.99Z" fill="#FAFBFC"/>
<path fill-rule="evenodd" clip-rule="evenodd" d="M499.374 316.376H541.228L537.447 358.594L520.296 363.675L503.15 358.595L501.814 345.231H511.029L511.656 351.5L520.296 353.805L528.919 351.505L529.468 342.161H501.307L500.605 332.338H530.165L530.684 325.585H500.082L499.374 316.376ZM500.7 317.604L501.219 324.357H532.01L531.302 333.566H501.924L502.45 340.933H530.771L530.092 352.463L520.296 355.075L510.519 352.468L509.918 346.459H503.171L504.29 357.652L520.296 362.395L536.298 357.653L539.885 317.604H500.7Z" fill="url(#paint0_linear_462_676)"/>
<path fill-rule="evenodd" clip-rule="evenodd" d="M668.388 281.824H587.252C583.862 281.824 581.113 284.573 581.113 287.963V378.686C581.113 382.076 583.862 384.825 587.252 384.825H668.388C671.778 384.825 674.527 382.076 674.527 378.686V287.963C674.527 284.573 671.778 281.824 668.388 281.824ZM587.252 280.596C583.184 280.596 579.885 283.895 579.885 287.963V378.686C579.885 382.754 583.184 386.053 587.252 386.053H668.388C672.456 386.053 675.755 382.754 675.755 378.686V287.963C675.755 283.895 672.457 280.596 668.388 280.596H587.252Z" fill="#616161"/>
<path d="M579.885 136.791C579.885 135.467 580.958 134.394 582.282 134.394H629.018C630.342 134.394 631.415 135.467 631.415 136.791C631.415 138.115 630.342 139.188 629.018 139.188H582.282C580.958 139.188 579.885 138.115 579.885 136.791Z" fill="#616161"/>
<path d="M579.885 223.074C579.885 221.75 580.958 220.677 582.282 220.677H673.358C674.682 220.677 675.755 221.75 675.755 223.074C675.755 224.398 674.682 225.471 673.358 225.471H582.282C580.958 225.471 579.885 224.398 579.885 223.074Z" fill="#616161"/>
<path d="M579.885 165.552C579.885 164.229 580.958 163.156 582.282 163.156H673.358C674.682 163.156 675.755 164.229 675.755 165.552C675.755 166.876 674.682 167.949 673.358 167.949H582.282C580.958 167.949 579.885 166.876 579.885 165.552Z" fill="#616161"/>
<path d="M579.885 151.172C579.885 149.848 580.958 148.775 582.282 148.775H673.358C674.682 148.775 675.755 149.848 675.755 151.172C675.755 152.495 674.682 153.568 673.358 153.568H582.282C580.958 153.568 579.885 152.495 579.885 151.172Z" fill="#616161"/>
<path d="M579.885 237.455C579.885 236.131 580.958 235.058 582.282 235.058H673.358C674.682 235.058 675.755 236.131 675.755 237.455C675.755 238.778 674.682 239.851 673.358 239.851H582.282C580.958 239.851 579.885 238.778 579.885 237.455Z" fill="#616161"/>
<path d="M579.885 179.933C579.885 178.609 580.958 177.536 582.282 177.536H673.358C674.682 177.536 675.755 178.609 675.755 179.933C675.755 181.257 674.682 182.33 673.358 182.33H582.282C580.958 182.33 579.885 181.257 579.885 179.933Z" fill="#616161"/>
<path d="M579.885 208.694C579.885 207.37 580.958 206.297 582.282 206.297H673.358C674.682 206.297 675.755 207.37 675.755 208.694C675.755 210.017 674.682 211.09 673.358 211.09H582.282C580.958 211.09 579.885 210.017 579.885 208.694Z" fill="#616161"/>
<path fill-rule="evenodd" clip-rule="evenodd" d="M619.576 326.786H629.56V353.422C629.56 356.056 628.982 358.393 627.769 360.381L627.767 360.386C626.571 362.328 624.931 363.826 622.869 364.867C620.831 365.904 618.556 366.409 616.069 366.409C613.532 366.409 611.236 365.983 609.208 365.098C607.143 364.197 605.498 362.803 604.307 360.93L604.304 360.925C603.091 359.001 602.528 356.633 602.528 353.9V352.672H612.563V353.9C612.563 355.144 612.737 356.006 612.997 356.568C613.277 357.135 613.633 357.476 614.054 357.677C614.556 357.916 615.214 358.061 616.069 358.061C616.825 358.061 617.418 357.885 617.898 357.576C618.374 357.27 618.773 356.808 619.076 356.123L619.08 356.114L619.084 356.105C619.393 355.435 619.576 354.556 619.576 353.422V326.786ZM611.889 357.098C611.52 356.309 611.335 355.243 611.335 353.9H603.756C603.756 354.321 603.77 354.731 603.799 355.128C603.944 357.153 604.458 358.868 605.342 360.271C606.4 361.933 607.852 363.167 609.699 363.973C611.545 364.778 613.669 365.181 616.069 365.181C618.386 365.181 620.468 364.711 622.314 363.771C624.178 362.831 625.647 361.488 626.721 359.742C627.795 357.979 628.333 355.873 628.333 353.422V328.014H620.804V353.422C620.804 354.681 620.602 355.747 620.199 356.62C619.813 357.493 619.267 358.156 618.562 358.609C617.857 359.062 617.026 359.289 616.069 359.289C615.079 359.289 614.231 359.121 613.526 358.785C612.821 358.45 612.276 357.887 611.889 357.098ZM652.41 353.742L652.403 353.72C652.304 353.432 652.1 353.123 651.717 352.801L651.708 352.794L651.7 352.786C651.298 352.437 650.681 352.049 649.798 351.64C648.924 351.234 647.762 350.799 646.296 350.337L646.287 350.335C644.585 349.784 642.965 349.164 641.427 348.473L641.422 348.471C639.868 347.764 638.473 346.935 637.247 345.98L637.239 345.974L637.232 345.967C635.99 344.967 634.993 343.796 634.257 342.455L634.25 342.443C633.502 341.045 633.148 339.455 633.148 337.709C633.148 335.996 633.526 334.408 634.302 332.973C635.063 331.547 636.126 330.337 637.471 329.345C638.81 328.342 640.371 327.585 642.136 327.063L642.139 327.062C643.928 326.538 645.867 326.283 647.949 326.283C650.798 326.283 653.347 326.796 655.559 327.865C657.751 328.925 659.491 330.4 660.734 332.3C662 334.21 662.623 336.388 662.623 338.792V340.019H652.663V338.792C652.663 337.894 652.475 337.167 652.141 336.573L652.134 336.56L652.127 336.547C651.818 335.966 651.339 335.489 650.632 335.122L650.623 335.118C649.961 334.768 649.05 334.555 647.823 334.555C646.63 334.555 645.728 334.74 645.064 335.047L645.055 335.051L645.046 335.055C644.348 335.363 643.898 335.751 643.615 336.187L643.607 336.199C643.311 336.643 643.158 337.142 643.158 337.734C643.158 338.14 643.253 338.478 643.429 338.777C643.642 339.108 643.983 339.463 644.5 339.827C645.033 340.202 645.717 340.574 646.566 340.935C647.425 341.301 648.432 341.665 649.592 342.024C651.639 342.643 653.458 343.347 655.042 344.138C656.65 344.934 658.028 345.843 659.154 346.877C660.295 347.924 661.172 349.129 661.765 350.488C662.363 351.858 662.648 353.38 662.648 355.033C662.648 356.791 662.305 358.408 661.59 359.857C660.879 361.299 659.851 362.514 658.526 363.498C657.213 364.473 655.67 365.197 653.918 365.684C652.165 366.172 650.23 366.409 648.125 366.409C646.204 366.409 644.31 366.16 642.445 365.663L642.434 365.66C640.55 365.139 638.824 364.355 637.265 363.303L637.26 363.3C635.677 362.22 634.407 360.837 633.459 359.164C632.48 357.436 632.015 355.432 632.015 353.195V351.967H642.05V353.195C642.05 354.217 642.209 355 642.472 355.59C642.746 356.204 643.116 356.672 643.576 357.024C644.082 357.399 644.697 357.686 645.443 357.869C646.242 358.061 647.134 358.162 648.125 358.162C649.331 358.162 650.222 357.99 650.854 357.712L650.862 357.708C651.536 357.417 651.946 357.053 652.191 356.656L652.197 356.646L652.203 356.637C652.488 356.192 652.638 355.686 652.638 355.084C652.638 354.555 652.557 354.121 652.419 353.764L652.41 353.742ZM645.154 359.062C644.264 358.844 643.492 358.491 642.837 358.005C642.199 357.518 641.704 356.88 641.351 356.091C640.999 355.302 640.822 354.337 640.822 353.195H633.243C633.243 353.616 633.261 354.025 633.296 354.423C633.435 355.977 633.845 357.356 634.527 358.559C635.383 360.069 636.525 361.312 637.952 362.285C639.395 363.259 640.999 363.989 642.761 364.476C644.524 364.946 646.312 365.181 648.125 365.181C650.139 365.181 651.961 364.955 653.589 364.501C655.217 364.048 656.619 363.385 657.794 362.512C658.969 361.639 659.868 360.573 660.489 359.314C661.11 358.055 661.42 356.628 661.42 355.033C661.42 353.522 661.16 352.171 660.64 350.979C660.119 349.787 659.347 348.721 658.323 347.781C657.299 346.841 656.023 345.993 654.496 345.238C652.985 344.482 651.23 343.803 649.233 343.198C648.041 342.829 646.992 342.451 646.085 342.065C645.179 341.679 644.415 341.268 643.794 340.831C643.173 340.395 642.703 339.925 642.384 339.421C642.081 338.917 641.93 338.355 641.93 337.734C641.93 336.911 642.149 336.173 642.585 335.518C643.021 334.847 643.676 334.318 644.549 333.932C645.422 333.529 646.513 333.327 647.823 333.327C649.182 333.327 650.307 333.562 651.197 334.032C652.103 334.502 652.775 335.149 653.211 335.971C653.665 336.777 653.891 337.717 653.891 338.792H661.395C661.395 338.373 661.374 337.964 661.333 337.564C661.159 335.875 660.617 334.345 659.708 332.975C658.6 331.279 657.039 329.945 655.024 328.971C653.01 327.997 650.651 327.511 647.949 327.511C645.968 327.511 644.146 327.754 642.484 328.241C640.839 328.728 639.412 329.424 638.204 330.331C636.995 331.221 636.055 332.295 635.383 333.554C634.712 334.796 634.376 336.181 634.376 337.709C634.376 339.287 634.695 340.672 635.333 341.864C635.988 343.056 636.877 344.105 638.002 345.011C639.144 345.901 640.453 346.682 641.93 347.353C643.424 348.025 645.002 348.629 646.664 349.166C648.158 349.636 649.375 350.089 650.316 350.526C651.256 350.962 651.986 351.407 652.506 351.861C653.027 352.297 653.379 352.784 653.564 353.321C653.765 353.841 653.866 354.429 653.866 355.084C653.866 355.906 653.656 356.645 653.237 357.3C652.834 357.954 652.204 358.466 651.348 358.836C650.509 359.205 649.434 359.39 648.125 359.39C647.05 359.39 646.06 359.28 645.154 359.062Z" fill="#616161"/>
<path d="M706.313 288.985L602.654 392.644L603.253 568.805L707.512 464.546L706.313 288.985Z" fill="#FAFBFC"/>
<path fill-rule="evenodd" clip-rule="evenodd" d="M706.917 287.513L708.127 464.799L602.644 570.282L602.039 392.391L706.917 287.513ZM603.269 392.897L603.862 567.328L706.896 464.294L705.71 290.457L603.269 392.897Z" fill="#616161"/>
<path d="M705.714 288.985L602.654 392.045L672.371 379.569L800.386 253.034L705.714 288.985Z" fill="#FAFBFC"/>
<path fill-rule="evenodd" clip-rule="evenodd" d="M706.055 289.512L604.471 391.096L672.075 378.999L797.889 254.639L706.055 289.512ZM800.168 252.46L800.817 253.47L672.667 380.14L600.837 392.994L705.373 288.458L800.168 252.46Z" fill="#616161"/>
<path d="M300.664 180.11C300.664 176.041 303.963 172.742 308.031 172.742H518.591C522.66 172.742 525.958 176.041 525.958 180.11V515.3C525.958 519.369 522.66 522.667 518.591 522.667H308.031C303.963 522.667 300.664 519.369 300.664 515.3V180.11Z" fill="#FAFBFC"/>
<path fill-rule="evenodd" clip-rule="evenodd" d="M518.591 173.97H308.031C304.641 173.97 301.892 176.719 301.892 180.11V515.3C301.892 518.691 304.641 521.439 308.031 521.439H518.591C521.982 521.439 524.73 518.691 524.73 515.3V180.11C524.73 176.719 521.982 173.97 518.591 173.97ZM308.031 172.742C303.963 172.742 300.664 176.041 300.664 180.11V515.3C300.664 519.369 303.963 522.667 308.031 522.667H518.591C522.66 522.667 525.958 519.369 525.958 515.3V180.11C525.958 176.041 522.66 172.742 518.591 172.742H308.031Z" fill="#616161"/>
<path d="M311.45 181.131C311.45 182.455 310.377 183.528 309.053 183.528C307.729 183.528 306.656 182.455 306.656 181.131C306.656 179.807 307.729 178.734 309.053 178.734C310.377 178.734 311.45 179.807 311.45 181.131Z" fill="#FF3B30"/>
<path fill-rule="evenodd" clip-rule="evenodd" d="M309 181.107C308.995 181.118 308.994 181.128 308.994 181.131C308.994 181.135 308.995 181.144 309 181.155C309.003 181.164 309.008 181.169 309.011 181.173C309.015 181.176 309.02 181.181 309.029 181.185C309.04 181.189 309.049 181.19 309.053 181.19C309.057 181.19 309.066 181.189 309.077 181.185C309.085 181.181 309.091 181.176 309.095 181.173C309.098 181.169 309.102 181.164 309.106 181.155C309.111 181.144 309.112 181.135 309.112 181.131C309.112 181.128 309.111 181.118 309.106 181.107C309.102 181.099 309.098 181.093 309.095 181.089C309.091 181.086 309.085 181.082 309.077 181.078C309.066 181.073 309.057 181.072 309.053 181.072C309.049 181.072 309.04 181.073 309.029 181.078C309.02 181.082 309.015 181.086 309.011 181.089C309.008 181.093 309.003 181.099 309 181.107ZM309.053 183.528C310.377 183.528 311.45 182.455 311.45 181.131C311.45 179.807 310.377 178.734 309.053 178.734C307.729 178.734 306.656 179.807 306.656 181.131C306.656 182.455 307.729 183.528 309.053 183.528Z" fill="#FF3B30"/>
<path d="M321.037 181.131C321.037 182.455 319.964 183.528 318.64 183.528C317.316 183.528 316.243 182.455 316.243 181.131C316.243 179.807 317.316 178.734 318.64 178.734C319.964 178.734 321.037 179.807 321.037 181.131Z" fill="#FFD60A"/>
<path fill-rule="evenodd" clip-rule="evenodd" d="M318.586 181.107C318.582 181.118 318.581 181.128 318.581 181.131C318.581 181.135 318.582 181.144 318.586 181.155C318.59 181.164 318.595 181.169 318.598 181.173C318.602 181.176 318.607 181.181 318.616 181.185C318.627 181.189 318.636 181.19 318.64 181.19C318.643 181.19 318.653 181.189 318.664 181.185C318.672 181.181 318.678 181.176 318.682 181.173C318.685 181.169 318.689 181.164 318.693 181.155C318.698 181.144 318.699 181.135 318.699 181.131C318.699 181.128 318.698 181.118 318.693 181.107C318.689 181.099 318.685 181.093 318.682 181.089C318.678 181.086 318.672 181.082 318.664 181.078C318.653 181.073 318.643 181.072 318.64 181.072C318.636 181.072 318.627 181.073 318.616 181.078C318.607 181.082 318.602 181.086 318.598 181.089C318.595 181.093 318.59 181.099 318.586 181.107ZM318.64 183.528C319.964 183.528 321.037 182.455 321.037 181.131C321.037 179.807 319.964 178.734 318.64 178.734C317.316 178.734 316.243 179.807 316.243 181.131C316.243 182.455 317.316 183.528 318.64 183.528Z" fill="#FFD60A"/>
<path d="M330.624 181.131C330.624 182.455 329.551 183.528 328.227 183.528C326.903 183.528 325.83 182.455 325.83 181.131C325.83 179.807 326.903 178.734 328.227 178.734C329.551 178.734 330.624 179.807 330.624 181.131Z" fill="#32D74B"/>
<path fill-rule="evenodd" clip-rule="evenodd" d="M328.173 181.107C328.169 181.118 328.168 181.128 328.168 181.131C328.168 181.135 328.169 181.144 328.173 181.155C328.177 181.164 328.182 181.169 328.185 181.173C328.189 181.176 328.194 181.181 328.203 181.185C328.214 181.189 328.223 181.19 328.227 181.19C328.23 181.19 328.24 181.189 328.251 181.185C328.259 181.181 328.265 181.176 328.269 181.173C328.272 181.169 328.276 181.164 328.28 181.155C328.285 181.144 328.286 181.135 328.286 181.131C328.286 181.128 328.285 181.118 328.28 181.107C328.276 181.099 328.272 181.093 328.269 181.089C328.265 181.086 328.259 181.082 328.251 181.078C328.24 181.073 328.23 181.072 328.227 181.072C328.223 181.072 328.214 181.073 328.203 181.078C328.194 181.082 328.189 181.086 328.185 181.089C328.182 181.093 328.177 181.099 328.173 181.107ZM328.227 183.528C329.551 183.528 330.624 182.455 330.624 181.131C330.624 179.807 329.551 178.734 328.227 178.734C326.903 178.734 325.83 179.807 325.83 181.131C325.83 182.455 326.903 183.528 328.227 183.528Z" fill="#32D74B"/>
<path d="M419.063 289.99C419.063 293.626 416.116 296.573 412.48 296.573C408.845 296.573 405.898 293.626 405.898 289.99C405.898 286.355 408.845 283.408 412.48 283.408C416.116 283.408 419.063 286.355 419.063 289.99Z" fill="url(#paint1_linear_462_676)"/>
<path fill-rule="evenodd" clip-rule="evenodd" d="M412.48 295.345C415.437 295.345 417.835 292.948 417.835 289.99C417.835 287.033 415.437 284.636 412.48 284.636C409.523 284.636 407.125 287.033 407.125 289.99C407.125 292.948 409.523 295.345 412.48 295.345ZM412.48 296.573C416.116 296.573 419.063 293.626 419.063 289.99C419.063 286.355 416.116 283.408 412.48 283.408C408.845 283.408 405.898 286.355 405.898 289.99C405.898 293.626 408.845 296.573 412.48 296.573Z" fill="url(#paint2_linear_462_676)"/>
<path fill-rule="evenodd" clip-rule="evenodd" d="M406.03 312.912C410.85 309.286 416.181 303.274 420.774 295.702C425.367 288.13 428.235 280.624 429.224 274.675C429.72 271.693 429.722 269.23 429.326 267.394C428.932 265.564 428.204 264.586 427.413 264.107C426.622 263.627 425.418 263.433 423.614 263.929C421.803 264.427 419.62 265.566 417.204 267.384C412.385 271.01 407.053 277.022 402.46 284.594C397.867 292.166 394.999 299.672 394.01 305.621C393.515 308.604 393.513 311.066 393.908 312.903C394.303 314.732 395.031 315.71 395.821 316.189C396.612 316.669 397.816 316.863 399.62 316.367C401.432 315.87 403.615 314.73 406.03 312.912ZM394.548 318.289C400.765 322.06 413.446 312.518 422.874 296.976C432.301 281.434 434.903 265.778 428.686 262.007C422.47 258.236 409.788 267.779 400.361 283.32C390.934 298.862 388.331 314.518 394.548 318.289Z" fill="url(#paint3_linear_462_676)"/>
<path fill-rule="evenodd" clip-rule="evenodd" d="M430.476 305.848C429.481 299.899 426.605 292.397 422.003 284.83C417.402 277.263 412.065 271.257 407.241 267.636C404.824 265.821 402.639 264.683 400.827 264.188C399.023 263.694 397.819 263.889 397.029 264.37C396.239 264.85 395.512 265.829 395.119 267.659C394.726 269.495 394.73 271.958 395.229 274.94C396.225 280.888 399.101 288.391 403.702 295.958C408.303 303.525 413.641 309.531 418.464 313.152C420.882 314.967 423.066 316.104 424.878 316.6C426.683 317.094 427.887 316.898 428.677 316.418C429.467 315.937 430.194 314.959 430.586 313.129C430.98 311.292 430.975 308.83 430.476 305.848ZM429.953 318.516C436.165 314.739 433.546 299.085 424.102 283.554C414.658 268.022 401.966 258.494 395.753 262.271C389.54 266.049 392.16 281.702 401.604 297.234C411.048 312.765 423.74 322.294 429.953 318.516Z" fill="url(#paint4_linear_462_676)"/>
<path fill-rule="evenodd" clip-rule="evenodd" d="M435.077 282.943C429.436 280.81 421.505 279.519 412.65 279.686C403.796 279.854 395.92 281.443 390.363 283.788C387.578 284.964 385.496 286.279 384.156 287.595C382.821 288.906 382.383 290.045 382.401 290.969C382.418 291.894 382.898 293.015 384.282 294.275C385.671 295.539 387.801 296.775 390.629 297.844C396.27 299.978 404.2 301.269 413.055 301.101C421.91 300.934 429.786 299.344 435.343 296.999C438.128 295.823 440.21 294.508 441.55 293.192C442.885 291.881 443.322 290.743 443.305 289.818C443.287 288.893 442.808 287.773 441.424 286.513C440.035 285.248 437.905 284.013 435.077 282.943ZM445.76 289.772C445.623 282.502 430.778 276.887 412.604 277.231C394.43 277.574 379.808 283.746 379.946 291.016C380.083 298.285 394.927 303.9 413.102 303.557C431.276 303.213 445.897 297.041 445.76 289.772Z" fill="url(#paint5_linear_462_676)"/>
<path d="M272.503 568.805L272.503 392.644L602.654 392.644V568.805H272.503Z" fill="#FAFBFC"/>
<path fill-rule="evenodd" clip-rule="evenodd" d="M271.889 392.03H603.268V569.419L271.889 569.419L271.889 392.03ZM273.116 393.258L273.116 568.191L602.04 568.191V393.258H273.116Z" fill="#616161"/>
<defs>
<linearGradient id="paint0_linear_462_676" x1="884.319" y1="570.282" x2="-153.735" y2="504.64" gradientUnits="userSpaceOnUse">
<stop offset="0.474799" stop-color="#367C93"/>
<stop offset="1" stop-color="#106683" stop-opacity="0.47"/>
</linearGradient>
<linearGradient id="paint1_linear_462_676" x1="884.319" y1="570.282" x2="-153.735" y2="504.64" gradientUnits="userSpaceOnUse">
<stop offset="0.474799" stop-color="#367C93"/>
<stop offset="1" stop-color="#106683" stop-opacity="0.47"/>
</linearGradient>
<linearGradient id="paint2_linear_462_676" x1="884.319" y1="570.282" x2="-153.735" y2="504.64" gradientUnits="userSpaceOnUse">
<stop offset="0.474799" stop-color="#367C93"/>
<stop offset="1" stop-color="#106683" stop-opacity="0.47"/>
</linearGradient>
<linearGradient id="paint3_linear_462_676" x1="884.319" y1="570.282" x2="-153.735" y2="504.64" gradientUnits="userSpaceOnUse">
<stop offset="0.474799" stop-color="#367C93"/>
<stop offset="1" stop-color="#106683" stop-opacity="0.47"/>
</linearGradient>
<linearGradient id="paint4_linear_462_676" x1="884.319" y1="570.282" x2="-153.735" y2="504.64" gradientUnits="userSpaceOnUse">
<stop offset="0.474799" stop-color="#367C93"/>
<stop offset="1" stop-color="#106683" stop-opacity="0.47"/>
</linearGradient>
<linearGradient id="paint5_linear_462_676" x1="884.319" y1="570.282" x2="-153.735" y2="504.64" gradientUnits="userSpaceOnUse">
<stop offset="0.474799" stop-color="#367C93"/>
<stop offset="1" stop-color="#106683" stop-opacity="0.47"/>
</linearGradient>
</defs>
</svg>
