<svg width="351" height="250" viewBox="0 0 351 250" fill="none" xmlns="http://www.w3.org/2000/svg">
<path fill-rule="evenodd" clip-rule="evenodd" d="M93.9869 58.529H227.165V124.687L181.582 163.399H36.3113V97.222L93.9869 58.529ZM94.1504 59.0661L37.4624 97.0966H181.384L226.165 59.0661H94.1504ZM226.628 59.3781L181.752 97.4895V162.55L226.628 124.439V59.3781ZM181.214 162.862V97.6338H36.8485V162.862H181.214Z" fill="#616161"/>
<path d="M94.2516 58.7976L37.1042 86.0605H181.283L226.372 58.7976H94.2516Z" fill="#616161"/>
<path fill-rule="evenodd" clip-rule="evenodd" d="M94.1908 58.529H227.335L181.358 86.3291H37.1042L36.9885 85.8181L94.1908 58.529ZM94.3124 59.0661L38.291 85.7919H181.209L225.409 59.0661H94.3124Z" fill="#616161"/>
<path d="M226.634 40.7098L180.759 85.7986L211.168 80.2935L267.005 24.4569L226.634 40.7098Z" fill="#FAFBFC"/>
<path fill-rule="evenodd" clip-rule="evenodd" d="M226.784 40.9389L181.569 85.3789L211.037 80.0442L265.884 25.1975L226.784 40.9389ZM266.904 24.2077L267.194 24.6468L211.298 80.5429L179.949 86.2182L226.484 40.4806L266.904 24.2077Z" fill="#616161"/>
<path d="M94.5137 58.2734L37.3847 85.5364L1.45263 68.7395L62.7943 40.1855L94.5137 58.2734Z" fill="#FAFBFC"/>
<path fill-rule="evenodd" clip-rule="evenodd" d="M62.8068 39.8834L95.0931 58.2946L37.3859 85.8334L0.817261 68.739L62.8068 39.8834ZM2.08799 68.7401L37.3836 85.2393L93.9344 58.2523L62.7818 40.4876L2.08799 68.7401Z" fill="#616161"/>
<path d="M77.4744 80.371C77.4744 78.5909 78.9174 77.1478 80.6975 77.1478H126.156C127.936 77.1478 129.379 78.5909 129.379 80.371V95.9447C129.379 97.7248 127.936 99.1679 126.156 99.1679H80.6975C78.9174 99.1679 77.4744 97.7248 77.4744 95.9447V80.371Z" fill="#FAFBFC"/>
<path fill-rule="evenodd" clip-rule="evenodd" d="M126.156 77.685H80.6975C79.2141 77.685 78.0116 78.8875 78.0116 80.371V95.9447C78.0116 97.4282 79.2141 98.6307 80.6975 98.6307H126.156C127.639 98.6307 128.842 97.4281 128.842 95.9447V80.371C128.842 78.8875 127.639 77.685 126.156 77.685ZM80.6975 77.1478C78.9174 77.1478 77.4744 78.5909 77.4744 80.371V95.9447C77.4744 97.7248 78.9174 99.1679 80.6975 99.1679H126.156C127.936 99.1679 129.379 97.7248 129.379 95.9447V80.371C129.379 78.5909 127.936 77.1478 126.156 77.1478H80.6975Z" fill="#616161"/>
<path d="M77.4744 31.0879C77.4744 29.3078 78.9174 27.8647 80.6975 27.8647H126.156C127.936 27.8647 129.379 29.3078 129.379 31.0879V46.6616C129.379 48.4417 127.936 49.8848 126.156 49.8848H80.6975C78.9174 49.8848 77.4744 48.4417 77.4744 46.6616V31.0879Z" fill="#FAFBFC"/>
<path fill-rule="evenodd" clip-rule="evenodd" d="M126.156 28.4019H80.6975C79.2141 28.4019 78.0116 29.6045 78.0116 31.0879V46.6616C78.0116 48.1451 79.2141 49.3476 80.6975 49.3476H126.156C127.639 49.3476 128.842 48.1451 128.842 46.6616V31.0879C128.842 29.6044 127.639 28.4019 126.156 28.4019ZM80.6975 27.8647C78.9174 27.8647 77.4744 29.3078 77.4744 31.0879V46.6616C77.4744 48.4417 78.9174 49.8848 80.6975 49.8848H126.156C127.936 49.8848 129.379 48.4417 129.379 46.6616V31.0879C129.379 29.3078 127.936 27.8647 126.156 27.8647H80.6975Z" fill="#616161"/>
<path d="M86.3873 38.8748C86.3873 40.033 85.4484 40.972 84.2901 40.972C83.1319 40.972 82.193 40.033 82.193 38.8748C82.193 37.7166 83.1319 36.7776 84.2901 36.7776C85.4484 36.7776 86.3873 37.7166 86.3873 38.8748Z" fill="#616161"/>
<path d="M94.2516 36.7775C94.2516 36.1984 94.7211 35.729 95.3002 35.729H121.515C122.094 35.729 122.563 36.1984 122.563 36.7775C122.563 37.3567 122.094 37.8261 121.515 37.8261H95.3002C94.7211 37.8261 94.2516 37.3567 94.2516 36.7775Z" fill="#616161"/>
<path d="M94.2516 40.972C94.2516 40.3929 94.7211 39.9234 95.3002 39.9234H121.515C122.094 39.9234 122.563 40.3929 122.563 40.972C122.563 41.5511 122.094 42.0206 121.515 42.0206H95.3002C94.7211 42.0206 94.2516 41.5511 94.2516 40.972Z" fill="#616161"/>
<path d="M77.4744 6.44632C77.4744 4.66622 78.9175 3.22316 80.6976 3.22316H126.156C127.936 3.22316 129.379 4.66622 129.379 6.44632V22.0201C129.379 23.8002 127.936 25.2433 126.156 25.2433H80.6976C78.9175 25.2433 77.4744 23.8002 77.4744 22.0201V6.44632Z" fill="#FAFBFC"/>
<path fill-rule="evenodd" clip-rule="evenodd" d="M126.156 3.76036H80.6976C79.2141 3.76036 78.0116 4.96291 78.0116 6.44632V22.0201C78.0116 23.5035 79.2141 24.7061 80.6976 24.7061H126.156C127.639 24.7061 128.842 23.5035 128.842 22.0201V6.44632C128.842 4.9629 127.639 3.76036 126.156 3.76036ZM80.6976 3.22316C78.9175 3.22316 77.4744 4.66622 77.4744 6.44632V22.0201C77.4744 23.8002 78.9175 25.2433 80.6976 25.2433H126.156C127.936 25.2433 129.379 23.8002 129.379 22.0201V6.44632C129.379 4.66622 127.936 3.22316 126.156 3.22316H80.6976Z" fill="#616161"/>
<path d="M86.3873 14.2331C86.3873 15.3913 85.4484 16.3303 84.2901 16.3303C83.1319 16.3303 82.193 15.3913 82.193 14.2331C82.193 13.0749 83.1319 12.136 84.2901 12.136C85.4484 12.136 86.3873 13.0749 86.3873 14.2331Z" fill="#616161"/>
<path d="M94.2516 12.1361C94.2516 11.557 94.721 11.0875 95.3002 11.0875H121.515C122.094 11.0875 122.563 11.557 122.563 12.1361C122.563 12.7152 122.094 13.1847 121.515 13.1847H95.3002C94.721 13.1847 94.2516 12.7152 94.2516 12.1361Z" fill="#616161"/>
<path d="M94.2516 16.3304C94.2516 15.7513 94.721 15.2819 95.3002 15.2819H121.515C122.094 15.2819 122.563 15.7513 122.563 16.3304C122.563 16.9095 122.094 17.379 121.515 17.379H95.3002C94.721 17.379 94.2516 16.9095 94.2516 16.3304Z" fill="#616161"/>
<path d="M77.4744 55.7294C77.4744 53.9493 78.9174 52.5062 80.6975 52.5062H126.156C127.936 52.5062 129.379 53.9493 129.379 55.7294V71.3032C129.379 73.0833 127.936 74.5263 126.156 74.5263H80.6975C78.9174 74.5263 77.4744 73.0833 77.4744 71.3032V55.7294Z" fill="#FAFBFC"/>
<path fill-rule="evenodd" clip-rule="evenodd" d="M126.156 53.0434H80.6975C79.2141 53.0434 78.0116 54.246 78.0116 55.7294V71.3032C78.0116 72.7866 79.2141 73.9892 80.6975 73.9892H126.156C127.639 73.9892 128.842 72.7866 128.842 71.3032V55.7294C128.842 54.246 127.639 53.0434 126.156 53.0434ZM80.6975 52.5062C78.9174 52.5062 77.4744 53.9493 77.4744 55.7294V71.3032C77.4744 73.0833 78.9174 74.5263 80.6975 74.5263H126.156C127.936 74.5263 129.379 73.0833 129.379 71.3032V55.7294C129.379 53.9493 127.936 52.5062 126.156 52.5062H80.6975Z" fill="#616161"/>
<path d="M86.3873 65.6133C86.3873 66.7715 85.4484 67.7104 84.2901 67.7104C83.1319 67.7104 82.193 66.7715 82.193 65.6133C82.193 64.4551 83.1319 63.5161 84.2901 63.5161C85.4484 63.5161 86.3873 64.4551 86.3873 65.6133Z" fill="#616161"/>
<path d="M94.2516 63.5163C94.2516 62.9372 94.7211 62.4677 95.3002 62.4677H121.515C122.094 62.4677 122.563 62.9372 122.563 63.5163C122.563 64.0954 122.094 64.5648 121.515 64.5648H95.3002C94.7211 64.5648 94.2516 64.0954 94.2516 63.5163Z" fill="#616161"/>
<path d="M94.2516 67.7106C94.2516 67.1315 94.7211 66.662 95.3002 66.662H121.515C122.094 66.662 122.563 67.1315 122.563 67.7106C122.563 68.2897 122.094 68.7592 121.515 68.7592H95.3002C94.7211 68.7592 94.2516 68.2897 94.2516 67.7106Z" fill="#616161"/>
<path d="M102.116 24.7189H105.786V28.3889H102.116V24.7189Z" fill="#FAFBFC"/>
<path fill-rule="evenodd" clip-rule="evenodd" d="M105.249 25.2561H102.653V27.8518H105.249V25.2561ZM102.116 24.7189V28.3889H105.786V24.7189H102.116Z" fill="#616161"/>
<path d="M102.116 49.3605H105.786V53.0305H102.116V49.3605Z" fill="#FAFBFC"/>
<path fill-rule="evenodd" clip-rule="evenodd" d="M105.249 49.8977H102.653V52.4933H105.249V49.8977ZM102.116 49.3605V53.0305H105.786V49.3605H102.116Z" fill="#616161"/>
<path d="M102.116 74.002H105.786V77.672H102.116V74.002Z" fill="#FAFBFC"/>
<path fill-rule="evenodd" clip-rule="evenodd" d="M105.249 74.5392H102.653V77.1348H105.249V74.5392ZM102.116 74.002V77.672H105.786V74.002H102.116Z" fill="#616161"/>
<path fill-rule="evenodd" clip-rule="evenodd" d="M129.941 13.1912H129.379V12.654H129.941V13.1912ZM132.188 13.1912H131.064V12.654H132.188V13.1912ZM134.435 13.1912H133.311V12.654H134.435V13.1912ZM136.681 13.1912H135.558V12.654H136.681V13.1912ZM138.928 13.1912H137.805V12.654H138.928V13.1912ZM141.175 13.1912H140.052V12.654H141.175V13.1912ZM143.422 13.1912H142.299V12.654H143.422V13.1912ZM145.108 13.1912H144.546V12.654H145.108V13.1912Z" fill="#616161"/>
<path fill-rule="evenodd" clip-rule="evenodd" d="M130.203 38.8811H129.641V38.3439H130.203V38.8811ZM132.45 38.8811H131.326V38.3439H132.45V38.8811ZM134.697 38.8811H133.573V38.3439H134.697V38.8811ZM136.944 38.8811H135.82V38.3439H136.944V38.8811ZM139.191 38.8811H138.067V38.3439H139.191V38.8811ZM141.438 38.8811H140.314V38.3439H141.438V38.8811ZM143.684 38.8811H142.561V38.3439H143.684V38.8811ZM145.37 38.8811H144.808V38.3439H145.37V38.8811Z" fill="#616161"/>
<path d="M144.321 11.0875H147.991V14.7576H144.321V11.0875Z" fill="#616161"/>
<path d="M144.583 36.7776H148.253V40.4476H144.583V36.7776Z" fill="#616161"/>
<path d="M36.3178 163.655V85.5364H181.283V163.655H36.3178Z" fill="#FAFBFC"/>
<path fill-rule="evenodd" clip-rule="evenodd" d="M36.0492 85.2678H181.552V163.924H36.0492V85.2678ZM36.5864 85.805V163.387H181.015V85.805H36.5864Z" fill="#616161"/>
<path d="M206.661 17.1902C206.661 26.6841 198.964 34.3804 189.47 34.3804C179.976 34.3804 172.28 26.6841 172.28 17.1902C172.28 7.69631 179.976 0 189.47 0C198.964 0 206.661 7.69631 206.661 17.1902Z" fill="#FAFBFC"/>
<path fill-rule="evenodd" clip-rule="evenodd" d="M189.47 33.2193C198.323 33.2193 205.499 26.0428 205.499 17.1902C205.499 8.33756 198.323 1.16108 189.47 1.16108C180.618 1.16108 173.441 8.33756 173.441 17.1902C173.441 26.0428 180.618 33.2193 189.47 33.2193ZM189.47 34.3804C198.964 34.3804 206.661 26.6841 206.661 17.1902C206.661 7.69631 198.964 0 189.47 0C179.976 0 172.28 7.69631 172.28 17.1902C172.28 26.6841 179.976 34.3804 189.47 34.3804Z" fill="#616161"/>
<path d="M183.454 13.7522C183.454 18.4991 179.606 22.3473 174.859 22.3473C170.112 22.3473 166.264 18.4991 166.264 13.7522C166.264 9.00521 170.112 5.15706 174.859 5.15706C179.606 5.15706 183.454 9.00521 183.454 13.7522Z" fill="#FAFBFC"/>
<path fill-rule="evenodd" clip-rule="evenodd" d="M174.859 21.1862C178.964 21.1862 182.293 17.8578 182.293 13.7522C182.293 9.64646 178.964 6.31814 174.859 6.31814C170.753 6.31814 167.425 9.64646 167.425 13.7522C167.425 17.8578 170.753 21.1862 174.859 21.1862ZM174.859 22.3473C179.606 22.3473 183.454 18.4991 183.454 13.7522C183.454 9.00521 179.606 5.15706 174.859 5.15706C170.112 5.15706 166.264 9.00521 166.264 13.7522C166.264 18.4991 170.112 22.3473 174.859 22.3473Z" fill="#616161"/>
<path d="M211.603 25.7853C211.603 30.5322 207.755 34.3804 203.008 34.3804C198.261 34.3804 194.413 30.5322 194.413 25.7853C194.413 21.0383 198.261 17.1902 203.008 17.1902C207.755 17.1902 211.603 21.0383 211.603 25.7853Z" fill="#FAFBFC"/>
<path fill-rule="evenodd" clip-rule="evenodd" d="M203.008 33.2193C207.113 33.2193 210.442 29.891 210.442 25.7853C210.442 21.6796 207.113 18.3513 203.008 18.3513C198.902 18.3513 195.574 21.6796 195.574 25.7853C195.574 29.891 198.902 33.2193 203.008 33.2193ZM203.008 34.3804C207.755 34.3804 211.603 30.5322 211.603 25.7853C211.603 21.0383 207.755 17.1902 203.008 17.1902C198.261 17.1902 194.413 21.0383 194.413 25.7853C194.413 30.5322 198.261 34.3804 203.008 34.3804Z" fill="#616161"/>
<path d="M192.049 19.5538C192.049 24.3008 188.201 28.1489 183.454 28.1489C178.707 28.1489 174.859 24.3008 174.859 19.5538C174.859 14.8069 178.707 10.9587 183.454 10.9587C188.201 10.9587 192.049 14.8069 192.049 19.5538Z" fill="#FAFBFC"/>
<path fill-rule="evenodd" clip-rule="evenodd" d="M183.454 26.9879C187.559 26.9879 190.888 23.6595 190.888 19.5538C190.888 15.4482 187.559 12.1198 183.454 12.1198C179.348 12.1198 176.02 15.4482 176.02 19.5538C176.02 23.6595 179.348 26.9879 183.454 26.9879ZM183.454 28.1489C188.201 28.1489 192.049 24.3008 192.049 19.5538C192.049 14.8069 188.201 10.9587 183.454 10.9587C178.707 10.9587 174.859 14.8069 174.859 19.5538C174.859 24.3008 178.707 28.1489 183.454 28.1489Z" fill="#616161"/>
<path d="M187.322 26.4299C187.322 31.1769 183.473 35.025 178.726 35.025C173.98 35.025 170.131 31.1769 170.131 26.4299C170.131 21.683 173.98 17.8348 178.726 17.8348C183.473 17.8348 187.322 21.683 187.322 26.4299Z" fill="#FAFBFC"/>
<path fill-rule="evenodd" clip-rule="evenodd" d="M178.726 33.8639C182.832 33.8639 186.161 30.5356 186.161 26.4299C186.161 22.3242 182.832 18.9959 178.726 18.9959C174.621 18.9959 171.292 22.3242 171.292 26.4299C171.292 30.5356 174.621 33.8639 178.726 33.8639ZM178.726 35.025C183.473 35.025 187.322 31.1769 187.322 26.4299C187.322 21.683 183.473 17.8348 178.726 17.8348C173.98 17.8348 170.131 21.683 170.131 26.4299C170.131 31.1769 173.98 35.025 178.726 35.025Z" fill="#616161"/>
<path d="M177.007 23.6365C177.007 29.5702 172.197 34.3804 166.264 34.3804C160.33 34.3804 155.52 29.5702 155.52 23.6365C155.52 17.7028 160.33 12.8926 166.264 12.8926C172.197 12.8926 177.007 17.7028 177.007 23.6365Z" fill="#FAFBFC"/>
<path fill-rule="evenodd" clip-rule="evenodd" d="M166.264 33.2193C171.556 33.2193 175.846 28.9289 175.846 23.6365C175.846 18.3441 171.556 14.0537 166.264 14.0537C160.971 14.0537 156.681 18.3441 156.681 23.6365C156.681 28.9289 160.971 33.2193 166.264 33.2193ZM166.264 34.3804C172.197 34.3804 177.007 29.5702 177.007 23.6365C177.007 17.7028 172.197 12.8926 166.264 12.8926C160.33 12.8926 155.52 17.7028 155.52 23.6365C155.52 29.5702 160.33 34.3804 166.264 34.3804Z" fill="#616161"/>
<path d="M167.553 12.1406L166.264 17.2091L163.578 31.4795L170.346 31.9093L172.065 30.4052L173.677 32.0167L183.346 32.2316L184.958 32.6614L190.481 32.8779L194.627 32.4465L195.272 32.2316L196.024 31.9093L197.421 31.2647L198.173 30.9423L204.942 31.4795L205.586 20.9505V17.0828L178.189 5.69425L177.115 6.76864L176.255 7.95047L167.553 12.1406Z" fill="#FAFBFC"/>
<path fill-rule="evenodd" clip-rule="evenodd" d="M172.344 44.0065V31.8019H173.505V45.1676L168.31 45.1537L168.354 45.017L168.386 44.8767L168.406 44.7342L168.412 44.5871L168.405 44.4337L168.384 44.2867L168.351 44.1435L168.305 44.0065H172.344Z" fill="#616161"/>
<path fill-rule="evenodd" clip-rule="evenodd" d="M183.41 43.0832V32.8709L184.572 32.8816L184.52 43.0637L184.393 43.026L184.262 42.9981L184.124 42.9809L183.991 42.9755L183.844 42.9821L183.698 43.0021L183.554 43.0356L183.41 43.0832Z" fill="#616161"/>
<path fill-rule="evenodd" clip-rule="evenodd" d="M147.527 24.9899H156.515V26.151H147.444L147.507 25.9959L147.555 25.8301L147.587 25.6475L147.597 25.463L147.593 25.3429L147.579 25.222L147.557 25.1026L147.527 24.9899ZM221.778 26.1693L211.738 26.151V24.9899L221.892 24.9722L221.864 24.9722L221.839 25.0257L221.8 25.1242L221.771 25.2101L221.748 25.2949L221.727 25.392L221.713 25.4896L221.705 25.5849L221.702 25.6779V25.8042L221.721 25.9288L221.745 26.0488L221.778 26.1693ZM197.513 43.1293V32.0167H198.674V43.046L198.56 43.0157L198.442 42.9934L198.322 42.98L198.201 42.9755L198.027 42.9847L197.941 42.9964L197.854 43.013L197.768 43.0342L197.682 43.061L197.595 43.0934L197.513 43.1293Z" fill="#616161"/>
<path d="M147.597 25.463C147.597 26.353 146.848 27.0746 145.958 27.0746C145.068 27.0746 144.346 26.353 144.346 25.463C144.346 24.5729 145.068 23.8514 145.958 23.8514C146.848 23.8514 147.597 24.5729 147.597 25.463Z" fill="#616161"/>
<path d="M168.412 44.5871C168.412 45.4771 167.691 46.1986 166.801 46.1986C165.911 46.1986 165.189 45.4771 165.189 44.5871C165.189 43.697 165.911 42.9755 166.801 42.9755C167.691 42.9755 168.412 43.697 168.412 44.5871Z" fill="#616161"/>
<path d="M185.603 44.5871C185.603 45.4771 184.881 46.1986 183.991 46.1986C183.101 46.1986 182.379 45.4771 182.379 44.5871C182.379 43.697 183.101 42.9755 183.991 42.9755C184.881 42.9755 185.603 43.697 185.603 44.5871Z" fill="#616161"/>
<path d="M199.784 44.5871C199.784 45.4771 199.063 46.1986 198.173 46.1986C197.283 46.1986 196.561 45.4771 196.561 44.5871C196.561 43.697 197.311 42.9755 198.201 42.9755C199.091 42.9755 199.784 43.697 199.784 44.5871Z" fill="#616161"/>
<path d="M224.925 25.6779C224.925 26.5679 224.204 27.2894 223.314 27.2894C222.424 27.2894 221.702 26.5679 221.702 25.6779C221.702 24.7878 222.424 24.0663 223.314 24.0663C224.204 24.0663 224.925 24.7878 224.925 25.6779Z" fill="#616161"/>
<path d="M41.2985 210.317C41.2985 213.213 38.9512 215.56 36.0556 215.56C33.1601 215.56 30.8128 213.213 30.8128 210.317C30.8128 207.421 33.1601 205.074 36.0556 205.074C38.9512 205.074 41.2985 207.421 41.2985 210.317Z" fill="#616161"/>
<path fill-rule="evenodd" clip-rule="evenodd" d="M36.0556 214.485C38.3578 214.485 40.2241 212.619 40.2241 210.317C40.2241 208.015 38.3578 206.149 36.0556 206.149C33.7535 206.149 31.8872 208.015 31.8872 210.317C31.8872 212.619 33.7535 214.485 36.0556 214.485ZM36.0556 215.56C38.9512 215.56 41.2985 213.213 41.2985 210.317C41.2985 207.421 38.9512 205.074 36.0556 205.074C33.1601 205.074 30.8128 207.421 30.8128 210.317C30.8128 213.213 33.1601 215.56 36.0556 215.56Z" fill="#616161"/>
<path d="M341.191 17.3788C341.191 20.2744 338.844 22.6217 335.948 22.6217C333.053 22.6217 330.705 20.2744 330.705 17.3788C330.705 14.4833 333.053 12.136 335.948 12.136C338.844 12.136 341.191 14.4833 341.191 17.3788Z" fill="#616161"/>
<path fill-rule="evenodd" clip-rule="evenodd" d="M335.948 21.5473C338.251 21.5473 340.117 19.681 340.117 17.3788C340.117 15.0766 338.251 13.2103 335.948 13.2103C333.646 13.2103 331.78 15.0766 331.78 17.3788C331.78 19.681 333.646 21.5473 335.948 21.5473ZM335.948 22.6217C338.844 22.6217 341.191 20.2744 341.191 17.3788C341.191 14.4833 338.844 12.136 335.948 12.136C333.053 12.136 330.705 14.4833 330.705 17.3788C330.705 20.2744 333.053 22.6217 335.948 22.6217Z" fill="#616161"/>
<path d="M176.827 126.169L119.68 171.782L75.9015 147.927L135.67 101.789L176.827 126.169Z" fill="#FAFBFC"/>
<path fill-rule="evenodd" clip-rule="evenodd" d="M135.65 101.465L177.299 126.136L119.708 172.103L75.4116 147.966L135.65 101.465ZM135.69 102.113L76.3915 147.888L119.651 171.461L176.355 126.202L135.69 102.113Z" fill="#616161"/>
<path d="M177.089 126.169L119.942 171.52H264.121L309.21 126.169H177.089Z" fill="#616161"/>
<path fill-rule="evenodd" clip-rule="evenodd" d="M176.995 125.9H309.855L264.233 171.788H119.171L176.995 125.9ZM177.183 126.437L120.712 171.251H264.009L308.564 126.437H177.183Z" fill="#616161"/>
<path fill-rule="evenodd" clip-rule="evenodd" d="M176.996 126.162H309.599L264.048 171.448L263.669 171.067L308.296 126.699H177.182L120.108 171.731L119.775 171.309L176.996 126.162Z" fill="#616161"/>
<path fill-rule="evenodd" clip-rule="evenodd" d="M176.995 125.9H310.003V203.613L264.494 249.121H119.411V171.39L176.995 125.9ZM177.183 126.437L120.453 171.251H264.272L309.086 126.437H177.183ZM309.465 126.817L264.652 171.631V248.204L309.465 203.39V126.817ZM264.114 248.584V171.788H119.948V248.584H264.114Z" fill="#616161"/>
<path d="M202.255 49.438C202.255 47.6579 203.698 46.2148 205.478 46.2148H297.598C299.378 46.2148 300.821 47.6579 300.821 49.438V196.084C300.821 197.864 299.378 199.307 297.598 199.307H205.478C203.698 199.307 202.255 197.864 202.255 196.084V49.438Z" fill="#FAFBFC"/>
<path fill-rule="evenodd" clip-rule="evenodd" d="M297.598 46.752H205.478C203.995 46.752 202.792 47.9545 202.792 49.438V196.084C202.792 197.567 203.995 198.77 205.478 198.77H297.598C299.081 198.77 300.284 197.567 300.284 196.084V49.438C300.284 47.9545 299.081 46.752 297.598 46.752ZM205.478 46.2148C203.698 46.2148 202.255 47.6579 202.255 49.438V196.084C202.255 197.864 203.698 199.307 205.478 199.307H297.598C299.378 199.307 300.821 197.864 300.821 196.084V49.438C300.821 47.6579 299.378 46.2148 297.598 46.2148H205.478Z" fill="#616161"/>
<path d="M206.974 49.8849C206.974 50.464 206.504 50.9334 205.925 50.9334C205.346 50.9334 204.876 50.464 204.876 49.8849C204.876 49.3057 205.346 48.8363 205.925 48.8363C206.504 48.8363 206.974 49.3057 206.974 49.8849Z" fill="#FF3B30"/>
<path fill-rule="evenodd" clip-rule="evenodd" d="M205.902 49.8745C205.9 49.8791 205.899 49.8833 205.899 49.8849C205.899 49.8864 205.9 49.8907 205.902 49.8952C205.903 49.8991 205.905 49.9016 205.907 49.9031C205.908 49.9047 205.911 49.9066 205.915 49.9082C205.919 49.9101 205.923 49.9107 205.925 49.9107C205.927 49.9107 205.931 49.9101 205.935 49.9082C205.939 49.9066 205.942 49.9047 205.943 49.9031C205.945 49.9016 205.947 49.8991 205.948 49.8952C205.95 49.8907 205.951 49.8864 205.951 49.8849C205.951 49.8833 205.95 49.8791 205.948 49.8745C205.947 49.8706 205.945 49.8682 205.943 49.8666C205.942 49.8651 205.939 49.8632 205.935 49.8615C205.931 49.8596 205.927 49.859 205.925 49.859C205.923 49.859 205.919 49.8596 205.915 49.8615C205.911 49.8632 205.908 49.8651 205.907 49.8666C205.905 49.8682 205.903 49.8706 205.902 49.8745ZM205.925 50.9334C206.504 50.9334 206.974 50.464 206.974 49.8849C206.974 49.3057 206.504 48.8363 205.925 48.8363C205.346 48.8363 204.876 49.3057 204.876 49.8849C204.876 50.464 205.346 50.9334 205.925 50.9334Z" fill="#FF3B30"/>
<path d="M211.168 49.8849C211.168 50.464 210.698 50.9334 210.119 50.9334C209.54 50.9334 209.071 50.464 209.071 49.8849C209.071 49.3057 209.54 48.8363 210.119 48.8363C210.698 48.8363 211.168 49.3057 211.168 49.8849Z" fill="#FFD60A"/>
<path fill-rule="evenodd" clip-rule="evenodd" d="M210.096 49.8745C210.094 49.8791 210.093 49.8833 210.093 49.8849C210.093 49.8864 210.094 49.8907 210.096 49.8952C210.098 49.8991 210.099 49.9016 210.101 49.9031C210.103 49.9047 210.105 49.9066 210.109 49.9082C210.113 49.9101 210.118 49.9107 210.119 49.9107C210.121 49.9107 210.125 49.9101 210.13 49.9082C210.134 49.9066 210.136 49.9047 210.138 49.9031C210.139 49.9016 210.141 49.8991 210.143 49.8952C210.145 49.8907 210.145 49.8864 210.145 49.8849C210.145 49.8833 210.145 49.8791 210.143 49.8745C210.141 49.8706 210.139 49.8682 210.138 49.8666C210.136 49.8651 210.134 49.8632 210.13 49.8615C210.125 49.8596 210.121 49.859 210.119 49.859C210.118 49.859 210.113 49.8596 210.109 49.8615C210.105 49.8632 210.103 49.8651 210.101 49.8666C210.099 49.8682 210.098 49.8706 210.096 49.8745ZM210.119 50.9334C210.698 50.9334 211.168 50.464 211.168 49.8849C211.168 49.3057 210.698 48.8363 210.119 48.8363C209.54 48.8363 209.071 49.3057 209.071 49.8849C209.071 50.464 209.54 50.9334 210.119 50.9334Z" fill="#FFD60A"/>
<path d="M215.362 49.8849C215.362 50.464 214.893 50.9334 214.314 50.9334C213.734 50.9334 213.265 50.464 213.265 49.8849C213.265 49.3057 213.734 48.8363 214.314 48.8363C214.893 48.8363 215.362 49.3057 215.362 49.8849Z" fill="#32D74B"/>
<path fill-rule="evenodd" clip-rule="evenodd" d="M214.29 49.8745C214.288 49.8791 214.288 49.8833 214.288 49.8849C214.288 49.8864 214.288 49.8907 214.29 49.8952C214.292 49.8991 214.294 49.9016 214.295 49.9031C214.297 49.9047 214.299 49.9066 214.303 49.9082C214.308 49.9101 214.312 49.9107 214.314 49.9107C214.315 49.9107 214.319 49.9101 214.324 49.9082C214.328 49.9066 214.33 49.9047 214.332 49.9031C214.333 49.9016 214.335 49.8991 214.337 49.8952C214.339 49.8907 214.339 49.8864 214.339 49.8849C214.339 49.8833 214.339 49.8791 214.337 49.8745C214.335 49.8706 214.333 49.8682 214.332 49.8666C214.33 49.8651 214.328 49.8632 214.324 49.8615C214.319 49.8596 214.315 49.859 214.314 49.859C214.312 49.859 214.308 49.8596 214.303 49.8615C214.299 49.8632 214.297 49.8651 214.295 49.8666C214.294 49.8682 214.292 49.8706 214.29 49.8745ZM214.314 50.9334C214.893 50.9334 215.362 50.464 215.362 49.8849C215.362 49.3057 214.893 48.8363 214.314 48.8363C213.734 48.8363 213.265 49.3057 213.265 49.8849C213.265 50.464 213.734 50.9334 214.314 50.9334Z" fill="#32D74B"/>
<path d="M207.498 125.984C207.498 124.204 208.941 122.761 210.721 122.761H246.218C247.998 122.761 249.441 124.204 249.441 125.984V165.675C249.441 167.455 247.998 168.898 246.218 168.898H210.721C208.941 168.898 207.498 167.455 207.498 165.675V125.984Z" fill="#FAFBFC"/>
<path fill-rule="evenodd" clip-rule="evenodd" d="M246.218 123.298H210.721C209.238 123.298 208.035 124.501 208.035 125.984V165.675C208.035 167.158 209.238 168.361 210.721 168.361H246.218C247.701 168.361 248.904 167.158 248.904 165.675V125.984C248.904 124.501 247.701 123.298 246.218 123.298ZM210.721 122.761C208.941 122.761 207.498 124.204 207.498 125.984V165.675C207.498 167.455 208.941 168.898 210.721 168.898H246.218C247.998 168.898 249.441 167.455 249.441 165.675V125.984C249.441 124.204 247.998 122.761 246.218 122.761H210.721Z" fill="#616161"/>
<path d="M204.876 53.5548H298.724V187.772H204.876V53.5548Z" fill="#FAFBFC"/>
<path fill-rule="evenodd" clip-rule="evenodd" d="M245.169 123.298H209.672C208.189 123.298 206.986 124.501 206.986 125.984V165.675C206.986 167.158 208.189 168.361 209.672 168.361H245.169C246.653 168.361 247.855 167.158 247.855 165.675V125.984C247.855 124.501 246.653 123.298 245.169 123.298ZM209.672 122.761C207.892 122.761 206.449 124.204 206.449 125.984V165.675C206.449 167.455 207.892 168.898 209.672 168.898H245.169C246.949 168.898 248.392 167.455 248.392 165.675V125.984C248.392 124.204 246.949 122.761 245.169 122.761H209.672Z" fill="#616161"/>
<path fill-rule="evenodd" clip-rule="evenodd" d="M245.169 59.3347H209.672C208.189 59.3347 206.986 60.5373 206.986 62.0207V101.712C206.986 103.195 208.189 104.398 209.672 104.398H245.169C246.653 104.398 247.855 103.195 247.855 101.712V62.0207C247.855 60.5373 246.653 59.3347 245.169 59.3347ZM209.672 58.7975C207.892 58.7975 206.449 60.2406 206.449 62.0207V101.712C206.449 103.492 207.892 104.935 209.672 104.935H245.169C246.949 104.935 248.392 103.492 248.392 101.712V62.0207C248.392 60.2406 246.949 58.7975 245.169 58.7975H209.672Z" fill="#616161"/>
<path d="M236.927 73.147H219.737L220.812 83.3536H232.63L232.093 87.6512L228.332 88.7256L224.572 87.6512L224.303 85.2338H220.812L221.349 90.6058L228.332 92.4859L235.316 90.6058L236.39 79.8619H223.766L223.497 76.3701H236.659L236.927 73.147Z" fill="#FAFBFC"/>
<path fill-rule="evenodd" clip-rule="evenodd" d="M219.439 72.8784H237.219L236.906 76.6387H223.788L224.015 79.5933H236.687L235.565 90.8169L228.332 92.7641L221.1 90.8169L220.515 84.9652H224.544L224.819 87.4424L228.332 88.4462L231.848 87.4417L232.325 83.6222H220.57L219.439 72.8784ZM220.035 73.4156L221.053 83.085H232.934L232.337 87.8607L228.332 89.0049L224.325 87.8599L224.063 85.5024H221.108L221.598 90.3946L228.332 92.2078L235.067 90.3946L236.093 80.1305H223.517L223.207 76.1015H236.412L236.635 73.4156H220.035Z" fill="#616161"/>
<path d="M236.953 138.683H219.226L219.494 142.175H232.924L232.656 145.667H219.763L220.032 149.427H232.387L232.118 153.993L228.089 155.067L224.06 153.993L223.792 151.307H220.3L220.837 156.679L228.089 158.828L235.342 156.679L236.953 138.683Z" fill="#FAFBFC"/>
<path fill-rule="evenodd" clip-rule="evenodd" d="M218.936 138.414H237.247L235.593 156.885L228.089 159.108L220.588 156.885L220.003 151.039H224.035L224.309 153.781L228.089 154.789L231.862 153.784L232.102 149.696H219.781L219.474 145.398H232.407L232.634 142.443H219.246L218.936 138.414ZM219.516 138.952L219.743 141.906H233.214L232.904 145.935H220.051L220.282 149.158H232.672L232.375 154.203L228.089 155.345L223.812 154.205L223.549 151.576H220.597L221.087 156.473L228.089 158.548L235.09 156.473L236.659 138.952H219.516Z" fill="url(#paint0_linear_462_676)"/>
<path fill-rule="evenodd" clip-rule="evenodd" d="M292.879 123.298H257.383C255.899 123.298 254.697 124.501 254.697 125.984V165.675C254.697 167.158 255.899 168.361 257.383 168.361H292.879C294.363 168.361 295.565 167.158 295.565 165.675V125.984C295.565 124.501 294.363 123.298 292.879 123.298ZM257.383 122.761C255.602 122.761 254.159 124.204 254.159 125.984V165.675C254.159 167.455 255.602 168.898 257.383 168.898H292.879C294.659 168.898 296.102 167.455 296.102 165.675V125.984C296.102 124.204 294.659 122.761 292.879 122.761H257.383Z" fill="#616161"/>
<path d="M254.159 59.8461C254.159 59.267 254.629 58.7975 255.208 58.7975H275.655C276.234 58.7975 276.704 59.267 276.704 59.8461C276.704 60.4252 276.234 60.8947 275.655 60.8947H255.208C254.629 60.8947 254.159 60.4252 254.159 59.8461Z" fill="#616161"/>
<path d="M254.159 97.5949C254.159 97.0158 254.629 96.5463 255.208 96.5463H295.054C295.633 96.5463 296.102 97.0158 296.102 97.5949C296.102 98.174 295.633 98.6435 295.054 98.6435H255.208C254.629 98.6435 254.159 98.174 254.159 97.5949Z" fill="#616161"/>
<path d="M254.159 72.4292C254.159 71.8501 254.629 71.3806 255.208 71.3806H295.054C295.633 71.3806 296.102 71.8501 296.102 72.4292C296.102 73.0083 295.633 73.4778 295.054 73.4778H255.208C254.629 73.4778 254.159 73.0083 254.159 72.4292Z" fill="#616161"/>
<path d="M254.159 66.1376C254.159 65.5585 254.629 65.0891 255.208 65.0891H295.054C295.633 65.0891 296.102 65.5585 296.102 66.1376C296.102 66.7167 295.633 67.1862 295.054 67.1862H255.208C254.629 67.1862 254.159 66.7167 254.159 66.1376Z" fill="#616161"/>
<path d="M254.159 103.886C254.159 103.307 254.629 102.838 255.208 102.838H295.054C295.633 102.838 296.102 103.307 296.102 103.886C296.102 104.466 295.633 104.935 295.054 104.935H255.208C254.629 104.935 254.159 104.466 254.159 103.886Z" fill="#616161"/>
<path d="M254.159 78.7207C254.159 78.1416 254.629 77.6722 255.208 77.6722H295.054C295.633 77.6722 296.102 78.1416 296.102 78.7207C296.102 79.2998 295.633 79.7693 295.054 79.7693H255.208C254.629 79.7693 254.159 79.2998 254.159 78.7207Z" fill="#616161"/>
<path d="M254.159 91.3035C254.159 90.7243 254.629 90.2549 255.208 90.2549H295.054C295.633 90.2549 296.102 90.7243 296.102 91.3035C296.102 91.8826 295.633 92.352 295.054 92.352H255.208C254.629 92.352 254.159 91.8826 254.159 91.3035Z" fill="#616161"/>
<path fill-rule="evenodd" clip-rule="evenodd" d="M271.524 142.969H275.892V154.622C275.892 155.774 275.639 156.797 275.109 157.667L275.108 157.669C274.585 158.519 273.867 159.174 272.965 159.629C272.073 160.083 271.078 160.304 269.99 160.304C268.88 160.304 267.875 160.118 266.988 159.73C266.085 159.336 265.365 158.726 264.844 157.907L264.843 157.905C264.312 157.063 264.066 156.027 264.066 154.831V154.294H268.456V154.831C268.456 155.376 268.532 155.753 268.646 155.999C268.768 156.247 268.924 156.396 269.108 156.484C269.328 156.588 269.616 156.652 269.99 156.652C270.321 156.652 270.58 156.575 270.79 156.44C270.998 156.306 271.173 156.103 271.306 155.804L271.307 155.8L271.309 155.796C271.444 155.503 271.524 155.118 271.524 154.622V142.969ZM268.161 156.23C268 155.885 267.919 155.419 267.919 154.831H264.603C264.603 155.016 264.609 155.195 264.622 155.369C264.685 156.255 264.91 157.005 265.297 157.619C265.76 158.346 266.395 158.885 267.203 159.238C268.011 159.591 268.94 159.767 269.99 159.767C271.004 159.767 271.914 159.561 272.722 159.15C273.537 158.739 274.18 158.151 274.65 157.387C275.12 156.616 275.355 155.694 275.355 154.622V143.506H272.061V154.622C272.061 155.173 271.973 155.639 271.797 156.021C271.628 156.403 271.389 156.693 271.081 156.891C270.772 157.09 270.409 157.189 269.99 157.189C269.557 157.189 269.186 157.115 268.877 156.969C268.569 156.822 268.33 156.576 268.161 156.23ZM285.889 154.762L285.886 154.753C285.843 154.626 285.754 154.491 285.586 154.351L285.582 154.347L285.578 154.344C285.403 154.191 285.133 154.022 284.747 153.842C284.364 153.665 283.856 153.474 283.214 153.273L283.21 153.271C282.466 153.031 281.757 152.759 281.084 152.457L281.082 152.456C280.402 152.147 279.792 151.784 279.255 151.366L279.252 151.363L279.249 151.361C278.705 150.923 278.269 150.411 277.947 149.824L277.944 149.819C277.617 149.207 277.462 148.512 277.462 147.748C277.462 146.998 277.627 146.304 277.967 145.676C278.3 145.052 278.765 144.522 279.353 144.089C279.939 143.649 280.622 143.319 281.394 143.09L281.396 143.09C282.178 142.861 283.027 142.749 283.937 142.749C285.184 142.749 286.299 142.973 287.267 143.441C288.226 143.905 288.987 144.55 289.531 145.381C290.085 146.217 290.357 147.17 290.357 148.221V148.759H286V148.221C286 147.828 285.918 147.511 285.771 147.251L285.768 147.245L285.765 147.239C285.63 146.985 285.421 146.777 285.111 146.616L285.107 146.614C284.818 146.461 284.419 146.368 283.882 146.368C283.36 146.368 282.966 146.449 282.675 146.583L282.671 146.585L282.667 146.586C282.362 146.721 282.165 146.891 282.041 147.082L282.038 147.087C281.908 147.281 281.841 147.5 281.841 147.759C281.841 147.936 281.883 148.084 281.96 148.215C282.053 148.36 282.202 148.515 282.428 148.674C282.662 148.838 282.961 149.001 283.332 149.159C283.708 149.319 284.149 149.478 284.656 149.636C285.552 149.907 286.348 150.214 287.041 150.561C287.744 150.909 288.347 151.306 288.839 151.759C289.339 152.217 289.722 152.744 289.982 153.338C290.244 153.938 290.368 154.604 290.368 155.327C290.368 156.096 290.218 156.803 289.905 157.438C289.594 158.068 289.145 158.6 288.565 159.03C287.99 159.457 287.315 159.774 286.549 159.987C285.782 160.2 284.935 160.304 284.014 160.304C283.174 160.304 282.345 160.195 281.529 159.977L281.525 159.976C280.7 159.748 279.945 159.405 279.263 158.945L279.261 158.944C278.568 158.471 278.013 157.866 277.598 157.134C277.17 156.378 276.966 155.501 276.966 154.523V153.986H281.357V154.523C281.357 154.97 281.426 155.313 281.541 155.571C281.661 155.839 281.823 156.044 282.024 156.198C282.246 156.362 282.515 156.487 282.841 156.568C283.191 156.652 283.581 156.696 284.014 156.696C284.542 156.696 284.932 156.621 285.208 156.499L285.212 156.497C285.507 156.37 285.686 156.211 285.793 156.037L285.796 156.033L285.798 156.029C285.923 155.834 285.989 155.612 285.989 155.349C285.989 155.118 285.953 154.928 285.893 154.772L285.889 154.762ZM282.714 157.09C282.325 156.994 281.987 156.84 281.701 156.627C281.422 156.414 281.205 156.135 281.051 155.79C280.897 155.445 280.819 155.022 280.819 154.523H277.503C277.503 154.707 277.511 154.886 277.527 155.06C277.588 155.74 277.767 156.343 278.065 156.869C278.44 157.53 278.939 158.074 279.564 158.5C280.195 158.926 280.897 159.245 281.668 159.458C282.439 159.664 283.221 159.767 284.014 159.767C284.896 159.767 285.693 159.668 286.405 159.469C287.117 159.271 287.731 158.981 288.245 158.599C288.759 158.217 289.152 157.751 289.423 157.2C289.695 156.649 289.831 156.025 289.831 155.327C289.831 154.666 289.717 154.075 289.49 153.553C289.262 153.032 288.924 152.566 288.476 152.154C288.028 151.743 287.47 151.372 286.802 151.042C286.141 150.711 285.373 150.414 284.499 150.149C283.978 149.988 283.519 149.822 283.122 149.653C282.725 149.485 282.391 149.305 282.119 149.114C281.848 148.923 281.642 148.717 281.503 148.497C281.37 148.276 281.304 148.03 281.304 147.759C281.304 147.399 281.4 147.076 281.591 146.789C281.782 146.495 282.068 146.264 282.45 146.095C282.832 145.919 283.309 145.831 283.882 145.831C284.477 145.831 284.969 145.934 285.358 146.139C285.755 146.345 286.049 146.628 286.24 146.987C286.438 147.34 286.537 147.751 286.537 148.221H289.82C289.82 148.038 289.811 147.859 289.793 147.684C289.717 146.945 289.48 146.276 289.082 145.676C288.597 144.935 287.914 144.351 287.033 143.925C286.152 143.499 285.12 143.286 283.937 143.286C283.071 143.286 282.274 143.392 281.547 143.605C280.827 143.818 280.203 144.123 279.674 144.52C279.145 144.909 278.734 145.379 278.44 145.93C278.146 146.473 277.999 147.079 277.999 147.748C277.999 148.438 278.139 149.044 278.418 149.565C278.704 150.087 279.094 150.546 279.586 150.942C280.085 151.332 280.658 151.673 281.304 151.967C281.958 152.261 282.648 152.525 283.375 152.76C284.029 152.966 284.561 153.164 284.973 153.355C285.384 153.546 285.704 153.741 285.931 153.939C286.159 154.13 286.313 154.343 286.394 154.578C286.482 154.806 286.526 155.063 286.526 155.349C286.526 155.709 286.434 156.032 286.251 156.319C286.074 156.605 285.799 156.829 285.424 156.991C285.057 157.152 284.587 157.233 284.014 157.233C283.544 157.233 283.111 157.185 282.714 157.09Z" fill="#616161"/>
<path d="M309.472 126.431L264.121 171.782L264.383 248.852L309.996 203.239L309.472 126.431Z" fill="#FAFBFC"/>
<path fill-rule="evenodd" clip-rule="evenodd" d="M309.736 125.787L310.265 203.35L264.117 249.498L263.852 171.671L309.736 125.787ZM264.39 171.893L264.649 248.206L309.727 203.129L309.208 127.075L264.39 171.893Z" fill="#616161"/>
<path d="M309.21 126.431L264.121 171.52L294.622 166.062L350.628 110.702L309.21 126.431Z" fill="#FAFBFC"/>
<path fill-rule="evenodd" clip-rule="evenodd" d="M309.359 126.662L264.916 171.105L294.493 165.812L349.536 111.404L309.359 126.662ZM350.533 110.451L350.817 110.893L294.751 166.311L263.326 171.935L309.06 126.2L350.533 110.451Z" fill="#616161"/>
<path d="M132 78.798C132 77.0179 133.443 75.5748 135.223 75.5748H227.343C229.123 75.5748 230.566 77.0179 230.566 78.798V225.444C230.566 227.224 229.123 228.667 227.343 228.667H135.223C133.443 228.667 132 227.224 132 225.444V78.798Z" fill="#FAFBFC"/>
<path fill-rule="evenodd" clip-rule="evenodd" d="M227.343 76.112H135.223C133.74 76.112 132.537 77.3146 132.537 78.798V225.444C132.537 226.927 133.74 228.13 135.223 228.13H227.343C228.827 228.13 230.029 226.927 230.029 225.444V78.798C230.029 77.3146 228.827 76.112 227.343 76.112ZM135.223 75.5748C133.443 75.5748 132 77.0179 132 78.798V225.444C132 227.224 133.443 228.667 135.223 228.667H227.343C229.123 228.667 230.566 227.224 230.566 225.444V78.798C230.566 77.0179 229.123 75.5748 227.343 75.5748H135.223Z" fill="#616161"/>
<path d="M136.719 79.2449C136.719 79.824 136.249 80.2935 135.67 80.2935C135.091 80.2935 134.622 79.824 134.622 79.2449C134.622 78.6658 135.091 78.1963 135.67 78.1963C136.249 78.1963 136.719 78.6658 136.719 79.2449Z" fill="#FF3B30"/>
<path fill-rule="evenodd" clip-rule="evenodd" d="M135.647 79.2345C135.645 79.2391 135.645 79.2433 135.645 79.2449C135.645 79.2465 135.645 79.2507 135.647 79.2553C135.649 79.2591 135.651 79.2616 135.652 79.2631C135.654 79.2647 135.656 79.2666 135.66 79.2682C135.665 79.2702 135.669 79.2707 135.67 79.2707C135.672 79.2707 135.676 79.2702 135.681 79.2682C135.685 79.2666 135.687 79.2647 135.689 79.2631C135.69 79.2616 135.692 79.2591 135.694 79.2553C135.696 79.2507 135.696 79.2465 135.696 79.2449C135.696 79.2433 135.696 79.2391 135.694 79.2345C135.692 79.2307 135.69 79.2282 135.689 79.2267C135.687 79.2251 135.685 79.2232 135.681 79.2216C135.676 79.2196 135.672 79.2191 135.67 79.2191C135.669 79.2191 135.665 79.2196 135.66 79.2216C135.656 79.2232 135.654 79.2251 135.652 79.2267C135.651 79.2282 135.649 79.2307 135.647 79.2345ZM135.67 80.2935C136.249 80.2935 136.719 79.824 136.719 79.2449C136.719 78.6658 136.249 78.1963 135.67 78.1963C135.091 78.1963 134.622 78.6658 134.622 79.2449C134.622 79.824 135.091 80.2935 135.67 80.2935Z" fill="#FF3B30"/>
<path d="M140.913 79.2449C140.913 79.824 140.444 80.2935 139.865 80.2935C139.286 80.2935 138.816 79.824 138.816 79.2449C138.816 78.6658 139.286 78.1963 139.865 78.1963C140.444 78.1963 140.913 78.6658 140.913 79.2449Z" fill="#FFD60A"/>
<path fill-rule="evenodd" clip-rule="evenodd" d="M139.841 79.2345C139.839 79.2391 139.839 79.2433 139.839 79.2449C139.839 79.2465 139.839 79.2507 139.841 79.2553C139.843 79.2591 139.845 79.2616 139.846 79.2631C139.848 79.2647 139.85 79.2666 139.854 79.2682C139.859 79.2702 139.863 79.2707 139.865 79.2707C139.866 79.2707 139.87 79.2702 139.875 79.2682C139.879 79.2666 139.881 79.2647 139.883 79.2631C139.884 79.2616 139.886 79.2591 139.888 79.2553C139.89 79.2507 139.89 79.2465 139.89 79.2449C139.89 79.2433 139.89 79.2391 139.888 79.2345C139.886 79.2307 139.884 79.2282 139.883 79.2267C139.881 79.2251 139.879 79.2232 139.875 79.2216C139.87 79.2196 139.866 79.2191 139.865 79.2191C139.863 79.2191 139.859 79.2196 139.854 79.2216C139.85 79.2232 139.848 79.2251 139.846 79.2267C139.845 79.2282 139.843 79.2307 139.841 79.2345ZM139.865 80.2935C140.444 80.2935 140.913 79.824 140.913 79.2449C140.913 78.6658 140.444 78.1963 139.865 78.1963C139.286 78.1963 138.816 78.6658 138.816 79.2449C138.816 79.824 139.286 80.2935 139.865 80.2935Z" fill="#FFD60A"/>
<path d="M145.108 79.2449C145.108 79.824 144.638 80.2935 144.059 80.2935C143.48 80.2935 143.01 79.824 143.01 79.2449C143.01 78.6658 143.48 78.1963 144.059 78.1963C144.638 78.1963 145.108 78.6658 145.108 79.2449Z" fill="#32D74B"/>
<path fill-rule="evenodd" clip-rule="evenodd" d="M144.036 79.2345C144.034 79.2391 144.033 79.2433 144.033 79.2449C144.033 79.2465 144.034 79.2507 144.036 79.2553C144.037 79.2591 144.039 79.2616 144.041 79.2631C144.042 79.2647 144.045 79.2666 144.049 79.2682C144.053 79.2702 144.057 79.2707 144.059 79.2707C144.061 79.2707 144.065 79.2702 144.069 79.2682C144.073 79.2666 144.076 79.2647 144.077 79.2631C144.079 79.2616 144.081 79.2591 144.082 79.2553C144.084 79.2507 144.085 79.2465 144.085 79.2449C144.085 79.2433 144.084 79.2391 144.082 79.2345C144.081 79.2307 144.079 79.2282 144.077 79.2267C144.076 79.2251 144.073 79.2232 144.069 79.2216C144.065 79.2196 144.061 79.2191 144.059 79.2191C144.057 79.2191 144.053 79.2196 144.049 79.2216C144.045 79.2232 144.042 79.2251 144.041 79.2267C144.039 79.2282 144.037 79.2307 144.036 79.2345ZM144.059 80.2935C144.638 80.2935 145.108 79.824 145.108 79.2449C145.108 78.6658 144.638 78.1963 144.059 78.1963C143.48 78.1963 143.01 78.6658 143.01 79.2449C143.01 79.824 143.48 80.2935 144.059 80.2935Z" fill="#32D74B"/>
<path d="M183.8 126.871C183.8 128.461 182.51 129.751 180.92 129.751C179.329 129.751 178.04 128.461 178.04 126.871C178.04 125.28 179.329 123.991 180.92 123.991C182.51 123.991 183.8 125.28 183.8 126.871Z" fill="url(#paint1_linear_462_676)"/>
<path fill-rule="evenodd" clip-rule="evenodd" d="M180.92 129.213C182.214 129.213 183.262 128.165 183.262 126.871C183.262 125.577 182.214 124.528 180.92 124.528C179.626 124.528 178.577 125.577 178.577 126.871C178.577 128.165 179.626 129.213 180.92 129.213ZM180.92 129.751C182.51 129.751 183.8 128.461 183.8 126.871C183.8 125.28 182.51 123.991 180.92 123.991C179.329 123.991 178.04 125.28 178.04 126.871C178.04 128.461 179.329 129.751 180.92 129.751Z" fill="url(#paint2_linear_462_676)"/>
<path fill-rule="evenodd" clip-rule="evenodd" d="M178.098 136.899C180.206 135.313 182.539 132.683 184.548 129.37C186.558 126.057 187.812 122.773 188.245 120.17C188.462 118.866 188.463 117.788 188.29 116.985C188.117 116.184 187.799 115.757 187.453 115.547C187.107 115.337 186.58 115.252 185.791 115.469C184.998 115.687 184.043 116.185 182.986 116.98C180.878 118.567 178.546 121.197 176.536 124.51C174.527 127.823 173.272 131.106 172.839 133.709C172.622 135.014 172.621 136.092 172.795 136.895C172.967 137.695 173.286 138.123 173.632 138.333C173.978 138.543 174.504 138.627 175.294 138.411C176.086 138.193 177.041 137.694 178.098 136.899ZM173.074 139.251C175.794 140.901 181.343 136.726 185.467 129.927C189.591 123.127 190.73 116.278 188.01 114.628C185.29 112.978 179.742 117.153 175.618 123.953C171.493 130.752 170.355 137.602 173.074 139.251Z" fill="url(#paint3_linear_462_676)"/>
<path fill-rule="evenodd" clip-rule="evenodd" d="M188.793 133.809C188.358 131.206 187.099 127.924 185.086 124.613C183.073 121.302 180.738 118.675 178.628 117.091C177.57 116.297 176.614 115.799 175.822 115.582C175.032 115.366 174.506 115.452 174.16 115.662C173.814 115.872 173.496 116.3 173.324 117.101C173.152 117.904 173.154 118.982 173.373 120.286C173.808 122.889 175.066 126.171 177.079 129.482C179.092 132.792 181.428 135.42 183.538 137.004C184.596 137.798 185.551 138.296 186.344 138.512C187.134 138.728 187.66 138.643 188.006 138.433C188.352 138.223 188.67 137.794 188.841 136.994C189.013 136.19 189.011 135.113 188.793 133.809ZM188.564 139.351C191.282 137.698 190.136 130.85 186.004 124.055C181.872 117.26 176.32 113.091 173.602 114.744C170.884 116.396 172.03 123.245 176.161 130.04C180.293 136.835 185.846 141.004 188.564 139.351Z" fill="url(#paint4_linear_462_676)"/>
<path fill-rule="evenodd" clip-rule="evenodd" d="M190.806 123.788C188.338 122.854 184.868 122.289 180.994 122.363C177.12 122.436 173.675 123.131 171.243 124.157C170.025 124.672 169.114 125.247 168.528 125.823C167.944 126.397 167.752 126.894 167.76 127.299C167.768 127.704 167.978 128.194 168.583 128.745C169.191 129.298 170.123 129.839 171.36 130.307C173.828 131.24 177.297 131.805 181.171 131.732C185.045 131.659 188.491 130.963 190.922 129.937C192.141 129.423 193.052 128.847 193.638 128.272C194.222 127.698 194.413 127.2 194.406 126.795C194.398 126.391 194.188 125.901 193.583 125.349C192.975 124.796 192.043 124.256 190.806 123.788ZM195.48 126.775C195.42 123.595 188.925 121.138 180.974 121.288C173.023 121.439 166.626 124.139 166.686 127.319C166.746 130.5 173.24 132.956 181.192 132.806C189.143 132.656 195.54 129.956 195.48 126.775Z" fill="url(#paint5_linear_462_676)"/>
<path d="M119.68 248.852L119.68 171.782L264.121 171.782V248.852H119.68Z" fill="#FAFBFC"/>
<path fill-rule="evenodd" clip-rule="evenodd" d="M119.411 171.513H264.389V249.121L119.411 249.121L119.411 171.513ZM119.948 172.05L119.948 248.584L263.852 248.583V172.05H119.948Z" fill="#616161"/>
<defs>
<linearGradient id="paint0_linear_462_676" x1="387.349" y1="249.498" x2="-66.7995" y2="220.78" gradientUnits="userSpaceOnUse">
<stop offset="0.474799" stop-color="#367C93"/>
<stop offset="1" stop-color="#106683" stop-opacity="0.47"/>
</linearGradient>
<linearGradient id="paint1_linear_462_676" x1="387.349" y1="249.498" x2="-66.7995" y2="220.78" gradientUnits="userSpaceOnUse">
<stop offset="0.474799" stop-color="#367C93"/>
<stop offset="1" stop-color="#106683" stop-opacity="0.47"/>
</linearGradient>
<linearGradient id="paint2_linear_462_676" x1="387.349" y1="249.498" x2="-66.7995" y2="220.78" gradientUnits="userSpaceOnUse">
<stop offset="0.474799" stop-color="#367C93"/>
<stop offset="1" stop-color="#106683" stop-opacity="0.47"/>
</linearGradient>
<linearGradient id="paint3_linear_462_676" x1="387.349" y1="249.498" x2="-66.7995" y2="220.78" gradientUnits="userSpaceOnUse">
<stop offset="0.474799" stop-color="#367C93"/>
<stop offset="1" stop-color="#106683" stop-opacity="0.47"/>
</linearGradient>
<linearGradient id="paint4_linear_462_676" x1="387.349" y1="249.498" x2="-66.7995" y2="220.78" gradientUnits="userSpaceOnUse">
<stop offset="0.474799" stop-color="#367C93"/>
<stop offset="1" stop-color="#106683" stop-opacity="0.47"/>
</linearGradient>
<linearGradient id="paint5_linear_462_676" x1="387.349" y1="249.498" x2="-66.7995" y2="220.78" gradientUnits="userSpaceOnUse">
<stop offset="0.474799" stop-color="#367C93"/>
<stop offset="1" stop-color="#106683" stop-opacity="0.47"/>
</linearGradient>
</defs>
</svg>
