<svg width="601" height="428" viewBox="0 0 601 428" fill="none" xmlns="http://www.w3.org/2000/svg">
<path fill-rule="evenodd" clip-rule="evenodd" d="M160.537 100.335H388.842V213.75L310.699 280.113H61.6642V166.666L160.537 100.335ZM160.817 101.256L63.6375 166.451H310.361L387.128 101.256H160.817ZM387.921 101.791L310.99 167.125V278.658L387.921 213.324V101.791ZM310.069 279.192V167.372H62.5851V279.192H310.069Z" fill="#616161"/>
<path d="M160.99 100.796L63.0234 147.532H310.188L387.483 100.796H160.99Z" fill="#616161"/>
<path fill-rule="evenodd" clip-rule="evenodd" d="M160.886 100.335H389.134L310.316 147.993H63.0234L62.8252 147.117L160.886 100.335ZM161.095 101.256L65.058 147.072H310.059L385.831 101.256H161.095Z" fill="#616161"/>
<path d="M387.932 69.7882L309.289 147.083L361.418 137.646L457.138 41.926L387.932 69.7882Z" fill="#FAFBFC"/>
<path fill-rule="evenodd" clip-rule="evenodd" d="M388.189 70.181L310.678 146.364L361.195 137.219L455.217 43.1957L388.189 70.181ZM456.966 41.4989L457.464 42.2516L361.642 138.073L307.9 147.803L387.675 69.3954L456.966 41.4989Z" fill="#616161"/>
<path d="M161.44 99.8973L63.5044 146.634L1.90646 117.839L107.064 68.8894L161.44 99.8973Z" fill="#FAFBFC"/>
<path fill-rule="evenodd" clip-rule="evenodd" d="M107.085 68.3715L162.433 99.9335L63.5064 147.143L0.817261 117.838L107.085 68.3715ZM2.99566 117.84L63.5023 146.125L160.447 99.861L107.042 69.4072L2.99566 117.84Z" fill="#616161"/>
<path d="M132.229 137.779C132.229 134.727 134.703 132.253 137.755 132.253H215.683C218.735 132.253 221.209 134.727 221.209 137.779V164.477C221.209 167.528 218.735 170.002 215.683 170.002H137.755C134.703 170.002 132.229 167.528 132.229 164.477V137.779Z" fill="#FAFBFC"/>
<path fill-rule="evenodd" clip-rule="evenodd" d="M215.683 133.174H137.755C135.212 133.174 133.15 135.236 133.15 137.779V164.477C133.15 167.02 135.212 169.081 137.755 169.081H215.683C218.226 169.081 220.288 167.02 220.288 164.477V137.779C220.288 135.236 218.226 133.174 215.683 133.174ZM137.755 132.253C134.703 132.253 132.229 134.727 132.229 137.779V164.477C132.229 167.528 134.703 170.002 137.755 170.002H215.683C218.735 170.002 221.209 167.528 221.209 164.477V137.779C221.209 134.727 218.735 132.253 215.683 132.253H137.755Z" fill="#616161"/>
<path d="M132.229 53.2935C132.229 50.2419 134.703 47.7681 137.755 47.7681H215.683C218.735 47.7681 221.209 50.2419 221.209 53.2935V79.9914C221.209 83.043 218.735 85.5168 215.683 85.5168H137.755C134.703 85.5168 132.229 83.043 132.229 79.9914V53.2935Z" fill="#FAFBFC"/>
<path fill-rule="evenodd" clip-rule="evenodd" d="M215.683 48.689H137.755C135.212 48.689 133.15 50.7505 133.15 53.2935V79.9914C133.15 82.5344 135.212 84.5959 137.755 84.5959H215.683C218.226 84.5959 220.288 82.5344 220.288 79.9914V53.2935C220.288 50.7505 218.226 48.689 215.683 48.689ZM137.755 47.7681C134.703 47.7681 132.229 50.2419 132.229 53.2935V79.9914C132.229 83.043 134.703 85.5168 137.755 85.5168H215.683C218.735 85.5168 221.209 83.043 221.209 79.9914V53.2935C221.209 50.2419 218.735 47.7681 215.683 47.7681H137.755Z" fill="#616161"/>
<path d="M147.509 66.6425C147.509 68.628 145.899 70.2376 143.914 70.2376C141.928 70.2376 140.318 68.628 140.318 66.6425C140.318 64.657 141.928 63.0474 143.914 63.0474C145.899 63.0474 147.509 64.657 147.509 66.6425Z" fill="#616161"/>
<path d="M160.99 63.0472C160.99 62.0545 161.795 61.2497 162.788 61.2497H207.727C208.72 61.2497 209.524 62.0545 209.524 63.0472C209.524 64.04 208.72 64.8448 207.727 64.8448H162.788C161.795 64.8448 160.99 64.04 160.99 63.0472Z" fill="#616161"/>
<path d="M160.99 70.2377C160.99 69.2449 161.795 68.4401 162.788 68.4401H207.727C208.72 68.4401 209.524 69.2449 209.524 70.2377C209.524 71.2305 208.72 72.0353 207.727 72.0353H162.788C161.795 72.0353 160.99 71.2305 160.99 70.2377Z" fill="#616161"/>
<path d="M132.229 11.0508C132.229 7.99924 134.703 5.52542 137.755 5.52542H215.683C218.735 5.52542 221.209 7.99923 221.209 11.0508V37.7487C221.209 40.8003 218.735 43.2742 215.683 43.2742H137.755C134.703 43.2742 132.229 40.8003 132.229 37.7487V11.0508Z" fill="#FAFBFC"/>
<path fill-rule="evenodd" clip-rule="evenodd" d="M215.683 6.44632H137.755C135.212 6.44632 133.15 8.50784 133.15 11.0508V37.7487C133.15 40.2917 135.212 42.3533 137.755 42.3533H215.683C218.226 42.3533 220.288 40.2917 220.288 37.7487V11.0508C220.288 8.50783 218.226 6.44632 215.683 6.44632ZM137.755 5.52542C134.703 5.52542 132.229 7.99924 132.229 11.0508V37.7487C132.229 40.8003 134.703 43.2742 137.755 43.2742H215.683C218.735 43.2742 221.209 40.8003 221.209 37.7487V11.0508C221.209 7.99923 218.735 5.52542 215.683 5.52542H137.755Z" fill="#616161"/>
<path d="M147.509 24.3996C147.509 26.3852 145.899 27.9947 143.914 27.9947C141.928 27.9947 140.318 26.3852 140.318 24.3996C140.318 22.4141 141.928 20.8045 143.914 20.8045C145.899 20.8045 147.509 22.4141 147.509 24.3996Z" fill="#616161"/>
<path d="M160.99 20.8048C160.99 19.812 161.795 19.0072 162.788 19.0072H207.727C208.72 19.0072 209.524 19.812 209.524 20.8048C209.524 21.7975 208.72 22.6023 207.727 22.6023H162.788C161.795 22.6023 160.99 21.7975 160.99 20.8048Z" fill="#616161"/>
<path d="M160.99 27.995C160.99 27.0023 161.795 26.1975 162.788 26.1975H207.727C208.72 26.1975 209.524 27.0023 209.524 27.995C209.524 28.9878 208.72 29.7926 207.727 29.7926H162.788C161.795 29.7926 160.99 28.9878 160.99 27.995Z" fill="#616161"/>
<path d="M132.229 95.5361C132.229 92.4845 134.703 90.0107 137.755 90.0107H215.683C218.735 90.0107 221.209 92.4845 221.209 95.5361V122.234C221.209 125.286 218.735 127.759 215.683 127.759H137.755C134.703 127.759 132.229 125.286 132.229 122.234V95.5361Z" fill="#FAFBFC"/>
<path fill-rule="evenodd" clip-rule="evenodd" d="M215.683 90.9316H137.755C135.212 90.9316 133.15 92.9931 133.15 95.5361V122.234C133.15 124.777 135.212 126.839 137.755 126.839H215.683C218.226 126.839 220.288 124.777 220.288 122.234V95.5361C220.288 92.9931 218.226 90.9316 215.683 90.9316ZM137.755 90.0107C134.703 90.0107 132.229 92.4845 132.229 95.5361V122.234C132.229 125.286 134.703 127.759 137.755 127.759H215.683C218.735 127.759 221.209 125.286 221.209 122.234V95.5361C221.209 92.4845 218.735 90.0107 215.683 90.0107H137.755Z" fill="#616161"/>
<path d="M147.509 112.48C147.509 114.465 145.899 116.075 143.914 116.075C141.928 116.075 140.318 114.465 140.318 112.48C140.318 110.494 141.928 108.885 143.914 108.885C145.899 108.885 147.509 110.494 147.509 112.48Z" fill="#616161"/>
<path d="M160.99 108.885C160.99 107.892 161.795 107.087 162.788 107.087H207.727C208.72 107.087 209.524 107.892 209.524 108.885C209.524 109.878 208.72 110.683 207.727 110.683H162.788C161.795 110.683 160.99 109.878 160.99 108.885Z" fill="#616161"/>
<path d="M160.99 116.075C160.99 115.083 161.795 114.278 162.788 114.278H207.727C208.72 114.278 209.524 115.083 209.524 116.075C209.524 117.068 208.72 117.873 207.727 117.873H162.788C161.795 117.873 160.99 117.068 160.99 116.075Z" fill="#616161"/>
<path d="M174.472 42.3753H180.764V48.6668H174.472V42.3753Z" fill="#FAFBFC"/>
<path fill-rule="evenodd" clip-rule="evenodd" d="M179.843 43.2962H175.393V47.7459H179.843V43.2962ZM174.472 42.3753V48.6668H180.764V42.3753H174.472Z" fill="#616161"/>
<path d="M174.472 84.618H180.764V90.9094H174.472V84.618Z" fill="#FAFBFC"/>
<path fill-rule="evenodd" clip-rule="evenodd" d="M179.843 85.5389H175.393V89.9885H179.843V85.5389ZM174.472 84.618V90.9094H180.764V84.618H174.472Z" fill="#616161"/>
<path d="M174.472 126.861H180.764V133.152H174.472V126.861Z" fill="#FAFBFC"/>
<path fill-rule="evenodd" clip-rule="evenodd" d="M179.843 127.782H175.393V132.231H179.843V127.782ZM174.472 126.861V133.152H180.764V126.861H174.472Z" fill="#616161"/>
<path fill-rule="evenodd" clip-rule="evenodd" d="M222.172 22.6134H221.209V21.6925H222.172V22.6134ZM226.024 22.6134H224.098V21.6925H226.024V22.6134ZM229.875 22.6134H227.949V21.6925H229.875V22.6134ZM233.727 22.6134H231.801V21.6925H233.727V22.6134ZM237.579 22.6134H235.653V21.6925H237.579V22.6134ZM241.431 22.6134H239.505V21.6925H241.431V22.6134ZM245.283 22.6134H243.357V21.6925H245.283V22.6134ZM248.172 22.6134H247.209V21.6925H248.172V22.6134Z" fill="#616161"/>
<path fill-rule="evenodd" clip-rule="evenodd" d="M222.621 66.6534H221.658V65.7325H222.621V66.6534ZM226.473 66.6534H224.547V65.7325H226.473V66.6534ZM230.325 66.6534H228.399V65.7325H230.325V66.6534ZM234.177 66.6534H232.251V65.7325H234.177V66.6534ZM238.029 66.6534H236.103V65.7325H238.029V66.6534ZM241.881 66.6534H239.955V65.7325H241.881V66.6534ZM245.732 66.6534H243.807V65.7325H245.732V66.6534ZM248.621 66.6534H247.658V65.7325H248.621V66.6534Z" fill="#616161"/>
<path d="M246.824 19.0072H253.115V25.2987H246.824V19.0072Z" fill="#616161"/>
<path d="M247.273 63.0474H253.565V69.3388H247.273V63.0474Z" fill="#616161"/>
<path d="M61.6753 280.552V146.634H310.188V280.552H61.6753Z" fill="#FAFBFC"/>
<path fill-rule="evenodd" clip-rule="evenodd" d="M61.2148 146.173H310.648V281.012H61.2148V146.173ZM62.1357 147.094V280.092H309.727V147.094H62.1357Z" fill="#616161"/>
<path d="M353.691 29.4689C353.691 45.7441 340.498 58.9378 324.223 58.9378C307.947 58.9378 294.754 45.7441 294.754 29.4689C294.754 13.1937 307.947 0 324.223 0C340.498 0 353.691 13.1937 353.691 29.4689Z" fill="#FAFBFC"/>
<path fill-rule="evenodd" clip-rule="evenodd" d="M324.223 56.9474C339.399 56.9474 351.701 44.6448 351.701 29.4689C351.701 14.293 339.399 1.99042 324.223 1.99042C309.047 1.99042 296.744 14.293 296.744 29.4689C296.744 44.6448 309.047 56.9474 324.223 56.9474ZM324.223 58.9378C340.498 58.9378 353.691 45.7441 353.691 29.4689C353.691 13.1937 340.498 0 324.223 0C307.947 0 294.754 13.1937 294.754 29.4689C294.754 45.7441 307.947 58.9378 324.223 58.9378Z" fill="#616161"/>
<path d="M313.908 23.5751C313.908 31.7127 307.312 38.3096 299.174 38.3096C291.036 38.3096 284.44 31.7127 284.44 23.5751C284.44 15.4375 291.036 8.84067 299.174 8.84067C307.312 8.84067 313.908 15.4375 313.908 23.5751Z" fill="#FAFBFC"/>
<path fill-rule="evenodd" clip-rule="evenodd" d="M299.174 36.3191C306.212 36.3191 311.918 30.6135 311.918 23.5751C311.918 16.5368 306.212 10.8311 299.174 10.8311C292.136 10.8311 286.43 16.5368 286.43 23.5751C286.43 30.6135 292.136 36.3191 299.174 36.3191ZM299.174 38.3096C307.312 38.3096 313.908 31.7127 313.908 23.5751C313.908 15.4375 307.312 8.84067 299.174 8.84067C291.036 8.84067 284.44 15.4375 284.44 23.5751C284.44 31.7127 291.036 38.3096 299.174 38.3096Z" fill="#616161"/>
<path d="M362.164 44.2034C362.164 52.341 355.567 58.9378 347.429 58.9378C339.292 58.9378 332.695 52.341 332.695 44.2034C332.695 36.0657 339.292 29.4689 347.429 29.4689C355.567 29.4689 362.164 36.0657 362.164 44.2034Z" fill="#FAFBFC"/>
<path fill-rule="evenodd" clip-rule="evenodd" d="M347.429 56.9474C354.468 56.9474 360.173 51.2417 360.173 44.2034C360.173 37.165 354.468 31.4593 347.429 31.4593C340.391 31.4593 334.685 37.165 334.685 44.2034C334.685 51.2417 340.391 56.9474 347.429 56.9474ZM347.429 58.9378C355.567 58.9378 362.164 52.341 362.164 44.2034C362.164 36.0657 355.567 29.4689 347.429 29.4689C339.292 29.4689 332.695 36.0657 332.695 44.2034C332.695 52.341 339.292 58.9378 347.429 58.9378Z" fill="#616161"/>
<path d="M328.643 33.5209C328.643 41.6585 322.046 48.2553 313.908 48.2553C305.771 48.2553 299.174 41.6585 299.174 33.5209C299.174 25.3833 305.771 18.7864 313.908 18.7864C322.046 18.7864 328.643 25.3833 328.643 33.5209Z" fill="#FAFBFC"/>
<path fill-rule="evenodd" clip-rule="evenodd" d="M313.908 46.2649C320.947 46.2649 326.652 40.5592 326.652 33.5209C326.652 26.4825 320.947 20.7768 313.908 20.7768C306.87 20.7768 301.164 26.4825 301.164 33.5209C301.164 40.5592 306.87 46.2649 313.908 46.2649ZM313.908 48.2553C322.046 48.2553 328.643 41.6585 328.643 33.5209C328.643 25.3833 322.046 18.7864 313.908 18.7864C305.771 18.7864 299.174 25.3833 299.174 33.5209C299.174 41.6585 305.771 48.2553 313.908 48.2553Z" fill="#616161"/>
<path d="M320.539 45.3084C320.539 53.446 313.942 60.0429 305.805 60.0429C297.667 60.0429 291.07 53.446 291.07 45.3084C291.07 37.1708 297.667 30.574 305.805 30.574C313.942 30.574 320.539 37.1708 320.539 45.3084Z" fill="#FAFBFC"/>
<path fill-rule="evenodd" clip-rule="evenodd" d="M305.805 58.0525C312.843 58.0525 318.549 52.3468 318.549 45.3084C318.549 38.2701 312.843 32.5644 305.805 32.5644C298.766 32.5644 293.06 38.2701 293.06 45.3084C293.06 52.3468 298.766 58.0525 305.805 58.0525ZM305.805 60.0429C313.942 60.0429 320.539 53.446 320.539 45.3084C320.539 37.1708 313.942 30.574 305.805 30.574C297.667 30.574 291.07 37.1708 291.07 45.3084C291.07 53.446 297.667 60.0429 305.805 60.0429Z" fill="#616161"/>
<path d="M302.858 40.5197C302.858 50.6918 294.612 58.9378 284.44 58.9378C274.268 58.9378 266.021 50.6918 266.021 40.5197C266.021 30.3477 274.268 22.1017 284.44 22.1017C294.612 22.1017 302.858 30.3477 302.858 40.5197Z" fill="#FAFBFC"/>
<path fill-rule="evenodd" clip-rule="evenodd" d="M284.44 56.9474C293.512 56.9474 300.867 49.5925 300.867 40.5197C300.867 31.447 293.512 24.0921 284.44 24.0921C275.367 24.0921 268.012 31.447 268.012 40.5197C268.012 49.5925 275.367 56.9474 284.44 56.9474ZM284.44 58.9378C294.612 58.9378 302.858 50.6918 302.858 40.5197C302.858 30.3477 294.612 22.1017 284.44 22.1017C274.268 22.1017 266.021 30.3477 266.021 40.5197C266.021 50.6918 274.268 58.9378 284.44 58.9378Z" fill="#616161"/>
<path d="M286.65 20.8124L284.44 29.5014L279.835 53.9649L291.438 54.7016L294.385 52.1231L297.148 54.8858L313.724 55.2542L316.487 55.9909L325.956 56.3621L333.063 55.6225L334.168 55.2542L335.458 54.7016L337.852 53.5966L339.141 53.044L350.745 53.9649L351.85 35.9152V29.2847L304.884 9.76157L303.042 11.6034L301.568 13.6294L286.65 20.8124Z" fill="#FAFBFC"/>
<path fill-rule="evenodd" clip-rule="evenodd" d="M294.864 75.4398V54.5175H296.854V77.4302L287.948 77.4063L288.024 77.172L288.079 76.9314L288.112 76.6871L288.123 76.435L288.111 76.172L288.075 75.9201L288.017 75.6745L287.938 75.4398H294.864Z" fill="#616161"/>
<path fill-rule="evenodd" clip-rule="evenodd" d="M313.834 73.8569V56.3501L315.825 56.3685L315.735 73.8236L315.518 73.7589L315.294 73.7111L315.057 73.6815L314.829 73.6723L314.577 73.6836L314.327 73.7178L314.079 73.7752L313.834 73.8569Z" fill="#616161"/>
<path fill-rule="evenodd" clip-rule="evenodd" d="M252.319 42.8398H267.727V44.8302H252.177L252.286 44.5643L252.368 44.2802L252.422 43.9672L252.44 43.6508L252.433 43.4449L252.41 43.2377L252.371 43.0331L252.319 42.8398ZM379.608 44.8617L362.396 44.8302V42.8398L379.803 42.8095L379.755 42.8096L379.712 42.9013L379.644 43.0701L379.595 43.2174L379.555 43.3627L379.52 43.5291L379.495 43.6964L379.481 43.8599L379.477 44.0192V44.2357L379.51 44.4493L379.55 44.6551L379.608 44.8617ZM338.01 73.9359V54.8858H340V73.7932L339.806 73.7412L339.602 73.7029L339.397 73.6799L339.189 73.6723L338.892 73.6881L338.743 73.7082L338.594 73.7365L338.448 73.7729L338.299 73.8189L338.15 73.8744L338.01 73.9359Z" fill="#616161"/>
<path d="M252.44 43.6508C252.44 45.1766 251.155 46.4135 249.629 46.4135C248.104 46.4135 246.867 45.1766 246.867 43.6508C246.867 42.125 248.104 40.8881 249.629 40.8881C251.155 40.8881 252.44 42.125 252.44 43.6508Z" fill="#616161"/>
<path d="M288.123 76.435C288.123 77.9608 286.886 79.1977 285.36 79.1977C283.835 79.1977 282.598 77.9608 282.598 76.435C282.598 74.9092 283.835 73.6723 285.36 73.6723C286.886 73.6723 288.123 74.9092 288.123 76.435Z" fill="#616161"/>
<path d="M317.592 76.435C317.592 77.9608 316.355 79.1977 314.829 79.1977C313.304 79.1977 312.067 77.9608 312.067 76.435C312.067 74.9092 313.304 73.6723 314.829 73.6723C316.355 73.6723 317.592 74.9092 317.592 76.435Z" fill="#616161"/>
<path d="M341.904 76.435C341.904 77.9608 340.667 79.1977 339.141 79.1977C337.615 79.1977 336.378 77.9608 336.378 76.435C336.378 74.9092 337.664 73.6723 339.189 73.6723C340.715 73.6723 341.904 74.9092 341.904 76.435Z" fill="#616161"/>
<path d="M385.002 44.0192C385.002 45.545 383.765 46.7819 382.239 46.7819C380.714 46.7819 379.477 45.545 379.477 44.0192C379.477 42.4934 380.714 41.2565 382.239 41.2565C383.765 41.2565 385.002 42.4934 385.002 44.0192Z" fill="#616161"/>
<path d="M70.2137 360.543C70.2137 365.507 66.1897 369.531 61.2259 369.531C56.2621 369.531 52.2381 365.507 52.2381 360.543C52.2381 355.58 56.2621 351.556 61.2259 351.556C66.1897 351.556 70.2137 355.58 70.2137 360.543Z" fill="#616161"/>
<path fill-rule="evenodd" clip-rule="evenodd" d="M61.2259 367.689C65.1725 367.689 68.3719 364.49 68.3719 360.543C68.3719 356.597 65.1725 353.397 61.2259 353.397C57.2793 353.397 54.0799 356.597 54.0799 360.543C54.0799 364.49 57.2793 367.689 61.2259 367.689ZM61.2259 369.531C66.1897 369.531 70.2137 365.507 70.2137 360.543C70.2137 355.58 66.1897 351.556 61.2259 351.556C56.2621 351.556 52.2381 355.58 52.2381 360.543C52.2381 365.507 56.2621 369.531 61.2259 369.531Z" fill="#616161"/>
<path d="M584.316 29.7923C584.316 34.7561 580.292 38.7801 575.328 38.7801C570.364 38.7801 566.34 34.7561 566.34 29.7923C566.34 24.8285 570.364 20.8045 575.328 20.8045C580.292 20.8045 584.316 24.8285 584.316 29.7923Z" fill="#616161"/>
<path fill-rule="evenodd" clip-rule="evenodd" d="M575.328 36.9383C579.274 36.9383 582.474 33.7389 582.474 29.7923C582.474 25.8457 579.274 22.6463 575.328 22.6463C571.381 22.6463 568.182 25.8457 568.182 29.7923C568.182 33.7389 571.381 36.9383 575.328 36.9383ZM575.328 38.7801C580.292 38.7801 584.316 34.7561 584.316 29.7923C584.316 24.8285 580.292 20.8045 575.328 20.8045C570.364 20.8045 566.34 24.8285 566.34 29.7923C566.34 34.7561 570.364 38.7801 575.328 38.7801Z" fill="#616161"/>
<path d="M302.548 216.289L204.581 294.483L129.533 253.589L231.994 174.496L302.548 216.289Z" fill="#FAFBFC"/>
<path fill-rule="evenodd" clip-rule="evenodd" d="M231.96 173.941L303.357 216.233L204.629 295.034L128.693 253.655L231.96 173.941ZM232.028 175.051L130.373 253.522L204.533 293.932L301.74 216.345L232.028 175.051Z" fill="#616161"/>
<path d="M302.998 216.289L205.031 294.034H452.195L529.49 216.289H302.998Z" fill="#616161"/>
<path fill-rule="evenodd" clip-rule="evenodd" d="M302.837 215.829H530.597L452.386 294.494H203.71L302.837 215.829ZM303.158 216.75L206.352 293.573H452.003L528.383 216.75H303.158Z" fill="#616161"/>
<path fill-rule="evenodd" clip-rule="evenodd" d="M302.838 216.278H530.157L452.07 293.911L451.421 293.258L527.924 217.199H303.157L205.316 294.395L204.745 293.672L302.838 216.278Z" fill="#616161"/>
<path fill-rule="evenodd" clip-rule="evenodd" d="M302.837 215.829H530.849V349.05L452.835 427.064H204.121V293.811L302.837 215.829ZM303.158 216.75L205.907 293.573H452.454L529.277 216.75H303.158ZM529.928 217.401L453.105 294.225V425.492L529.928 348.669V217.401ZM452.184 426.143V294.494H205.042V426.143H452.184Z" fill="#616161"/>
<path d="M346.139 84.7508C346.139 81.6992 348.613 79.2254 351.664 79.2254H509.584C512.636 79.2254 515.11 81.6992 515.11 84.7508V336.144C515.11 339.195 512.636 341.669 509.584 341.669H351.664C348.613 341.669 346.139 339.195 346.139 336.144V84.7508Z" fill="#FAFBFC"/>
<path fill-rule="evenodd" clip-rule="evenodd" d="M509.584 80.1463H351.664C349.121 80.1463 347.06 82.2078 347.06 84.7508V336.144C347.06 338.687 349.121 340.748 351.664 340.748H509.584C512.127 340.748 514.189 338.687 514.189 336.144V84.7508C514.189 82.2078 512.127 80.1463 509.584 80.1463ZM351.664 79.2254C348.613 79.2254 346.139 81.6992 346.139 84.7508V336.144C346.139 339.195 348.613 341.669 351.664 341.669H509.584C512.636 341.669 515.11 339.195 515.11 336.144V84.7508C515.11 81.6992 512.636 79.2254 509.584 79.2254H351.664Z" fill="#616161"/>
<path d="M354.228 85.5169C354.228 86.5097 353.423 87.3145 352.43 87.3145C351.438 87.3145 350.633 86.5097 350.633 85.5169C350.633 84.5241 351.438 83.7193 352.43 83.7193C353.423 83.7193 354.228 84.5241 354.228 85.5169Z" fill="#FF3B30"/>
<path fill-rule="evenodd" clip-rule="evenodd" d="M352.39 85.4991C352.387 85.507 352.386 85.5142 352.386 85.5169C352.386 85.5196 352.387 85.5268 352.39 85.5347C352.393 85.5413 352.396 85.5455 352.399 85.5482C352.402 85.5509 352.406 85.5541 352.413 85.5569C352.421 85.5602 352.428 85.5611 352.43 85.5611C352.433 85.5611 352.44 85.5602 352.448 85.5569C352.455 85.5541 352.459 85.5509 352.462 85.5482C352.464 85.5455 352.468 85.5413 352.47 85.5347C352.474 85.5268 352.475 85.5196 352.475 85.5169C352.475 85.5142 352.474 85.507 352.47 85.4991C352.468 85.4925 352.464 85.4883 352.462 85.4856C352.459 85.4829 352.455 85.4797 352.448 85.4769C352.44 85.4736 352.433 85.4726 352.43 85.4726C352.428 85.4726 352.421 85.4736 352.413 85.4769C352.406 85.4797 352.402 85.4829 352.399 85.4856C352.396 85.4883 352.393 85.4925 352.39 85.4991ZM352.43 87.3145C353.423 87.3145 354.228 86.5097 354.228 85.5169C354.228 84.5241 353.423 83.7193 352.43 83.7193C351.438 83.7193 350.633 84.5241 350.633 85.5169C350.633 86.5097 351.438 87.3145 352.43 87.3145Z" fill="#FF3B30"/>
<path d="M361.418 85.5169C361.418 86.5097 360.613 87.3145 359.621 87.3145C358.628 87.3145 357.823 86.5097 357.823 85.5169C357.823 84.5241 358.628 83.7193 359.621 83.7193C360.613 83.7193 361.418 84.5241 361.418 85.5169Z" fill="#FFD60A"/>
<path fill-rule="evenodd" clip-rule="evenodd" d="M359.581 85.4991C359.577 85.507 359.576 85.5142 359.576 85.5169C359.576 85.5196 359.577 85.5268 359.581 85.5347C359.583 85.5413 359.587 85.5455 359.589 85.5482C359.592 85.5509 359.596 85.5541 359.603 85.5569C359.611 85.5602 359.618 85.5611 359.621 85.5611C359.623 85.5611 359.631 85.5602 359.638 85.5569C359.645 85.5541 359.649 85.5509 359.652 85.5482C359.655 85.5455 359.658 85.5413 359.661 85.5347C359.664 85.5268 359.665 85.5196 359.665 85.5169C359.665 85.5142 359.664 85.507 359.661 85.4991C359.658 85.4925 359.655 85.4883 359.652 85.4856C359.649 85.4829 359.645 85.4797 359.638 85.4769C359.631 85.4736 359.623 85.4726 359.621 85.4726C359.618 85.4726 359.611 85.4736 359.603 85.4769C359.596 85.4797 359.592 85.4829 359.589 85.4856C359.587 85.4883 359.583 85.4925 359.581 85.4991ZM359.621 87.3145C360.613 87.3145 361.418 86.5097 361.418 85.5169C361.418 84.5241 360.613 83.7193 359.621 83.7193C358.628 83.7193 357.823 84.5241 357.823 85.5169C357.823 86.5097 358.628 87.3145 359.621 87.3145Z" fill="#FFD60A"/>
<path d="M368.608 85.5169C368.608 86.5097 367.804 87.3145 366.811 87.3145C365.818 87.3145 365.013 86.5097 365.013 85.5169C365.013 84.5241 365.818 83.7193 366.811 83.7193C367.804 83.7193 368.608 84.5241 368.608 85.5169Z" fill="#32D74B"/>
<path fill-rule="evenodd" clip-rule="evenodd" d="M366.771 85.4991C366.768 85.507 366.767 85.5142 366.767 85.5169C366.767 85.5196 366.768 85.5268 366.771 85.5347C366.774 85.5413 366.777 85.5455 366.78 85.5482C366.782 85.5509 366.786 85.5541 366.793 85.5569C366.801 85.5602 366.808 85.5611 366.811 85.5611C366.814 85.5611 366.821 85.5602 366.829 85.5569C366.835 85.5541 366.84 85.5509 366.842 85.5482C366.845 85.5455 366.848 85.5413 366.851 85.5347C366.854 85.5268 366.855 85.5196 366.855 85.5169C366.855 85.5142 366.854 85.507 366.851 85.4991C366.848 85.4925 366.845 85.4883 366.842 85.4856C366.84 85.4829 366.835 85.4797 366.829 85.4769C366.821 85.4736 366.814 85.4726 366.811 85.4726C366.808 85.4726 366.801 85.4736 366.793 85.4769C366.786 85.4797 366.782 85.4829 366.78 85.4856C366.777 85.4883 366.774 85.4925 366.771 85.4991ZM366.811 87.3145C367.804 87.3145 368.608 86.5097 368.608 85.5169C368.608 84.5241 367.804 83.7193 366.811 83.7193C365.818 83.7193 365.013 84.5241 365.013 85.5169C365.013 86.5097 365.818 87.3145 366.811 87.3145Z" fill="#32D74B"/>
<path d="M355.127 215.972C355.127 212.921 357.601 210.447 360.652 210.447H421.504C424.555 210.447 427.029 212.921 427.029 215.972V284.014C427.029 287.066 424.555 289.54 421.504 289.54H360.652C357.601 289.54 355.127 287.066 355.127 284.014V215.972Z" fill="#FAFBFC"/>
<path fill-rule="evenodd" clip-rule="evenodd" d="M421.504 211.368H360.652C358.109 211.368 356.048 213.429 356.048 215.972V284.014C356.048 286.557 358.109 288.619 360.652 288.619H421.504C424.047 288.619 426.108 286.557 426.108 284.014V215.972C426.108 213.429 424.047 211.368 421.504 211.368ZM360.652 210.447C357.601 210.447 355.127 212.921 355.127 215.972V284.014C355.127 287.066 357.601 289.54 360.652 289.54H421.504C424.555 289.54 427.029 287.066 427.029 284.014V215.972C427.029 212.921 424.555 210.447 421.504 210.447H360.652Z" fill="#616161"/>
<path d="M350.633 91.8081H511.514V321.896H350.633V91.8081Z" fill="#FAFBFC"/>
<path fill-rule="evenodd" clip-rule="evenodd" d="M419.706 211.368H358.855C356.312 211.368 354.25 213.429 354.25 215.972V284.014C354.25 286.557 356.312 288.619 358.855 288.619H419.706C422.249 288.619 424.311 286.557 424.311 284.014V215.972C424.311 213.429 422.249 211.368 419.706 211.368ZM358.855 210.447C355.803 210.447 353.329 212.921 353.329 215.972V284.014C353.329 287.066 355.803 289.54 358.855 289.54H419.706C422.758 289.54 425.232 287.066 425.232 284.014V215.972C425.232 212.921 422.758 210.447 419.706 210.447H358.855Z" fill="#616161"/>
<path fill-rule="evenodd" clip-rule="evenodd" d="M419.706 101.717H358.855C356.312 101.717 354.25 103.778 354.25 106.321V174.363C354.25 176.906 356.312 178.967 358.855 178.967H419.706C422.249 178.967 424.311 176.906 424.311 174.363V106.321C424.311 103.778 422.249 101.717 419.706 101.717ZM358.855 100.796C355.803 100.796 353.329 103.27 353.329 106.321V174.363C353.329 177.415 355.803 179.888 358.855 179.888H419.706C422.758 179.888 425.232 177.415 425.232 174.363V106.321C425.232 103.27 422.758 100.796 419.706 100.796H358.855Z" fill="#616161"/>
<path d="M405.577 125.395H376.108L377.95 142.892H398.21L397.289 150.259L390.843 152.101L384.397 150.259L383.936 146.115H377.95L378.871 155.324L390.843 158.547L402.815 155.324L404.656 136.906H383.015L382.555 130.92H405.117L405.577 125.395Z" fill="#FAFBFC"/>
<path fill-rule="evenodd" clip-rule="evenodd" d="M375.597 124.934H406.078L405.541 131.381H383.052L383.442 136.446H405.165L403.241 155.686L390.843 159.024L378.445 155.686L377.441 145.655H384.348L384.82 149.901L390.843 151.622L396.87 149.9L397.689 143.352H377.536L375.597 124.934ZM376.62 125.855L378.365 142.431H398.732L397.708 150.618L390.843 152.58L383.973 150.617L383.524 146.576H378.459L379.298 154.962L390.843 158.07L402.388 154.962L404.148 137.367H382.589L382.058 130.46H404.693L405.077 125.855H376.62Z" fill="#616161"/>
<path d="M405.622 237.742H375.232L375.692 243.728H398.715L398.254 249.714H376.153L376.613 256.16H397.794L397.333 263.988L390.427 265.83L383.52 263.988L383.059 259.384H377.074L377.994 268.593L390.427 272.276L402.859 268.593L405.622 237.742Z" fill="#FAFBFC"/>
<path fill-rule="evenodd" clip-rule="evenodd" d="M374.735 237.282H406.125L403.29 268.945L390.427 272.756L377.567 268.946L376.565 258.923H383.476L383.946 263.625L390.427 265.353L396.893 263.629L397.306 256.621H376.184L375.658 249.254H397.828L398.218 244.189H375.266L374.735 237.282ZM375.729 238.203L376.119 243.268H399.212L398.681 250.175H376.647L377.042 255.7H398.282L397.774 264.347L390.427 266.306L383.093 264.351L382.643 259.844H377.582L378.422 268.239L390.427 271.796L402.428 268.24L405.118 238.203H375.729Z" fill="url(#paint0_linear_462_676)"/>
<path fill-rule="evenodd" clip-rule="evenodd" d="M501.495 211.368H440.644C438.101 211.368 436.039 213.429 436.039 215.972V284.014C436.039 286.557 438.101 288.619 440.644 288.619H501.495C504.038 288.619 506.1 286.557 506.1 284.014V215.972C506.1 213.429 504.038 211.368 501.495 211.368ZM440.644 210.447C437.592 210.447 435.118 212.921 435.118 215.972V284.014C435.118 287.066 437.592 289.54 440.644 289.54H501.495C504.547 289.54 507.021 287.066 507.021 284.014V215.972C507.021 212.921 504.547 210.447 501.495 210.447H440.644Z" fill="#616161"/>
<path d="M435.118 102.593C435.118 101.601 435.923 100.796 436.916 100.796H471.968C472.961 100.796 473.766 101.601 473.766 102.593C473.766 103.586 472.961 104.391 471.968 104.391H436.916C435.923 104.391 435.118 103.586 435.118 102.593Z" fill="#616161"/>
<path d="M435.118 167.306C435.118 166.313 435.923 165.508 436.916 165.508H505.223C506.216 165.508 507.021 166.313 507.021 167.306C507.021 168.298 506.216 169.103 505.223 169.103H436.916C435.923 169.103 435.118 168.298 435.118 167.306Z" fill="#616161"/>
<path d="M435.118 124.164C435.118 123.172 435.923 122.367 436.916 122.367H505.223C506.216 122.367 507.021 123.172 507.021 124.164C507.021 125.157 506.216 125.962 505.223 125.962H436.916C435.923 125.962 435.118 125.157 435.118 124.164Z" fill="#616161"/>
<path d="M435.118 113.379C435.118 112.386 435.923 111.581 436.916 111.581H505.223C506.216 111.581 507.021 112.386 507.021 113.379C507.021 114.372 506.216 115.176 505.223 115.176H436.916C435.923 115.176 435.118 114.372 435.118 113.379Z" fill="#616161"/>
<path d="M435.118 178.091C435.118 177.098 435.923 176.293 436.916 176.293H505.223C506.216 176.293 507.021 177.098 507.021 178.091C507.021 179.084 506.216 179.889 505.223 179.889H436.916C435.923 179.889 435.118 179.084 435.118 178.091Z" fill="#616161"/>
<path d="M435.118 134.95C435.118 133.957 435.923 133.152 436.916 133.152H505.223C506.216 133.152 507.021 133.957 507.021 134.95C507.021 135.943 506.216 136.747 505.223 136.747H436.916C435.923 136.747 435.118 135.943 435.118 134.95Z" fill="#616161"/>
<path d="M435.118 156.52C435.118 155.527 435.923 154.723 436.916 154.723H505.223C506.216 154.723 507.021 155.527 507.021 156.52C507.021 157.513 506.216 158.318 505.223 158.318H436.916C435.923 158.318 435.118 157.513 435.118 156.52Z" fill="#616161"/>
<path fill-rule="evenodd" clip-rule="evenodd" d="M464.886 245.09H472.375V265.066C472.375 267.042 471.94 268.794 471.031 270.286L471.029 270.289C470.133 271.746 468.902 272.87 467.356 273.65C465.828 274.428 464.121 274.807 462.256 274.807C460.353 274.807 458.631 274.487 457.11 273.823C455.561 273.148 454.328 272.102 453.434 270.698L453.432 270.694C452.523 269.251 452.1 267.475 452.1 265.425V264.504H459.627V265.425C459.627 266.358 459.757 267.005 459.952 267.426C460.162 267.851 460.429 268.107 460.745 268.257C461.121 268.437 461.615 268.546 462.256 268.546C462.823 268.546 463.268 268.414 463.628 268.182C463.985 267.953 464.284 267.606 464.511 267.092L464.514 267.086L464.518 267.079C464.749 266.576 464.886 265.917 464.886 265.066V245.09ZM459.121 267.824C458.844 267.232 458.706 266.432 458.706 265.425H453.021C453.021 265.741 453.032 266.048 453.053 266.346C453.162 267.865 453.548 269.151 454.211 270.203C455.004 271.45 456.093 272.375 457.478 272.979C458.863 273.584 460.456 273.886 462.256 273.886C463.994 273.886 465.555 273.533 466.94 272.828C468.338 272.123 469.439 271.116 470.245 269.807C471.051 268.485 471.454 266.905 471.454 265.066V246.011H465.807V265.066C465.807 266.011 465.656 266.81 465.354 267.465C465.064 268.119 464.655 268.617 464.126 268.957C463.597 269.297 462.974 269.467 462.256 269.467C461.514 269.467 460.878 269.341 460.349 269.089C459.82 268.837 459.411 268.415 459.121 267.824ZM489.512 265.307L489.506 265.29C489.432 265.074 489.28 264.842 488.992 264.601L488.986 264.595L488.979 264.59C488.678 264.328 488.215 264.037 487.553 263.73C486.898 263.425 486.026 263.099 484.926 262.753L484.919 262.751C483.643 262.338 482.428 261.873 481.275 261.355L481.271 261.353C480.105 260.823 479.059 260.202 478.14 259.485L478.134 259.48L478.128 259.475C477.197 258.725 476.449 257.847 475.897 256.841L475.892 256.832C475.331 255.784 475.065 254.591 475.065 253.282C475.065 251.997 475.349 250.806 475.93 249.73C476.501 248.66 477.299 247.752 478.308 247.009C479.312 246.256 480.483 245.689 481.806 245.297L481.809 245.297C483.15 244.904 484.605 244.712 486.166 244.712C488.303 244.712 490.214 245.097 491.873 245.899C493.518 246.694 494.823 247.8 495.755 249.225C496.704 250.658 497.172 252.291 497.172 254.094V255.015H489.702V254.094C489.702 253.42 489.561 252.876 489.31 252.43L489.305 252.42L489.299 252.41C489.068 251.974 488.709 251.617 488.178 251.342L488.172 251.339C487.675 251.076 486.992 250.916 486.071 250.916C485.177 250.916 484.5 251.055 484.002 251.285L483.995 251.288L483.989 251.291C483.466 251.522 483.128 251.813 482.915 252.14L482.909 252.149C482.688 252.482 482.573 252.857 482.573 253.3C482.573 253.605 482.644 253.859 482.776 254.083C482.936 254.331 483.191 254.598 483.579 254.87C483.979 255.151 484.492 255.43 485.129 255.702C485.773 255.976 486.528 256.248 487.399 256.518C488.934 256.983 490.298 257.51 491.486 258.104C492.692 258.7 493.725 259.382 494.569 260.157C495.425 260.943 496.083 261.846 496.528 262.866C496.977 263.893 497.191 265.035 497.191 266.275C497.191 267.593 496.933 268.806 496.397 269.893C495.863 270.974 495.093 271.885 494.099 272.623C493.114 273.355 491.957 273.898 490.643 274.263C489.328 274.629 487.877 274.807 486.298 274.807C484.858 274.807 483.437 274.62 482.038 274.247L482.03 274.245C480.617 273.854 479.323 273.266 478.153 272.478L478.149 272.475C476.962 271.665 476.01 270.628 475.298 269.373C474.564 268.077 474.216 266.574 474.216 264.896V263.975H481.742V264.896C481.742 265.663 481.861 266.25 482.058 266.692C482.264 267.153 482.541 267.504 482.886 267.768C483.266 268.049 483.727 268.264 484.287 268.402C484.886 268.546 485.555 268.621 486.298 268.621C487.203 268.621 487.871 268.492 488.344 268.284L488.351 268.281C488.856 268.063 489.164 267.79 489.347 267.492L489.352 267.485L489.356 267.478C489.571 267.144 489.683 266.764 489.683 266.313C489.683 265.916 489.622 265.591 489.518 265.323L489.512 265.307ZM484.069 269.297C483.402 269.133 482.823 268.869 482.332 268.503C481.854 268.138 481.482 267.66 481.218 267.068C480.953 266.476 480.821 265.752 480.821 264.896H475.137C475.137 265.212 475.15 265.519 475.177 265.817C475.281 266.983 475.588 268.017 476.1 268.919C476.742 270.052 477.598 270.984 478.668 271.714C479.751 272.444 480.953 272.992 482.275 273.357C483.597 273.71 484.938 273.886 486.298 273.886C487.809 273.886 489.175 273.716 490.396 273.376C491.617 273.036 492.669 272.539 493.55 271.884C494.431 271.229 495.105 270.43 495.571 269.486C496.037 268.541 496.27 267.471 496.27 266.275C496.27 265.142 496.074 264.128 495.684 263.234C495.294 262.34 494.715 261.541 493.947 260.836C493.179 260.131 492.222 259.495 491.076 258.928C489.943 258.362 488.627 257.852 487.129 257.399C486.235 257.122 485.448 256.838 484.768 256.549C484.088 256.259 483.515 255.951 483.05 255.623C482.584 255.296 482.231 254.944 481.992 254.566C481.765 254.188 481.652 253.766 481.652 253.3C481.652 252.684 481.816 252.13 482.143 251.639C482.47 251.135 482.961 250.738 483.616 250.449C484.271 250.147 485.089 249.995 486.071 249.995C487.091 249.995 487.935 250.172 488.602 250.524C489.282 250.877 489.785 251.362 490.113 251.978C490.453 252.583 490.623 253.288 490.623 254.094H496.251C496.251 253.78 496.235 253.473 496.204 253.173C496.074 251.906 495.667 250.759 494.985 249.731C494.154 248.459 492.983 247.459 491.473 246.728C489.962 245.998 488.193 245.633 486.166 245.633C484.68 245.633 483.314 245.815 482.068 246.181C480.834 246.546 479.763 247.068 478.857 247.748C477.95 248.415 477.245 249.221 476.742 250.165C476.238 251.097 475.986 252.136 475.986 253.282C475.986 254.465 476.226 255.504 476.704 256.398C477.195 257.292 477.862 258.079 478.706 258.758C479.562 259.426 480.544 260.011 481.652 260.515C482.773 261.018 483.956 261.472 485.203 261.875C486.323 262.227 487.236 262.567 487.941 262.894C488.646 263.222 489.194 263.555 489.584 263.895C489.974 264.223 490.239 264.588 490.377 264.991C490.528 265.381 490.604 265.822 490.604 266.313C490.604 266.93 490.447 267.484 490.132 267.975C489.83 268.466 489.357 268.85 488.715 269.127C488.086 269.404 487.28 269.542 486.298 269.542C485.492 269.542 484.749 269.46 484.069 269.297Z" fill="#616161"/>
<path d="M529.939 216.739L452.195 294.483L452.644 426.604L530.838 348.41L529.939 216.739Z" fill="#FAFBFC"/>
<path fill-rule="evenodd" clip-rule="evenodd" d="M530.392 215.634L531.3 348.599L452.188 427.711L451.734 294.293L530.392 215.634ZM452.656 294.673L453.101 425.496L530.376 348.22L529.486 217.843L452.656 294.673Z" fill="#616161"/>
<path d="M529.49 216.739L452.195 294.034L504.483 284.677L600.494 189.775L529.49 216.739Z" fill="#FAFBFC"/>
<path fill-rule="evenodd" clip-rule="evenodd" d="M529.746 217.134L453.558 293.322L504.261 284.249L598.621 190.979L529.746 217.134ZM600.33 189.345L600.817 190.103L504.705 285.105L450.832 294.745L529.234 216.343L600.33 189.345Z" fill="#616161"/>
<path d="M225.702 135.082C225.702 132.031 228.176 129.557 231.228 129.557H389.148C392.199 129.557 394.673 132.031 394.673 135.082V386.475C394.673 389.527 392.199 392 389.148 392H231.228C228.176 392 225.702 389.527 225.702 386.475V135.082Z" fill="#FAFBFC"/>
<path fill-rule="evenodd" clip-rule="evenodd" d="M389.148 130.478H231.228C228.685 130.478 226.623 132.539 226.623 135.082V386.475C226.623 389.018 228.685 391.08 231.228 391.08H389.148C391.691 391.08 393.752 389.018 393.752 386.475V135.082C393.752 132.539 391.691 130.478 389.148 130.478ZM231.228 129.557C228.176 129.557 225.702 132.031 225.702 135.082V386.475C225.702 389.527 228.176 392 231.228 392H389.148C392.199 392 394.673 389.527 394.673 386.475V135.082C394.673 132.031 392.199 129.557 389.148 129.557H231.228Z" fill="#616161"/>
<path d="M233.792 135.848C233.792 136.841 232.987 137.646 231.994 137.646C231.001 137.646 230.196 136.841 230.196 135.848C230.196 134.856 231.001 134.051 231.994 134.051C232.987 134.051 233.792 134.856 233.792 135.848Z" fill="#FF3B30"/>
<path fill-rule="evenodd" clip-rule="evenodd" d="M231.954 135.831C231.951 135.838 231.95 135.846 231.95 135.848C231.95 135.851 231.951 135.858 231.954 135.866C231.957 135.873 231.96 135.877 231.963 135.88C231.965 135.882 231.97 135.886 231.976 135.888C231.984 135.892 231.991 135.893 231.994 135.893C231.997 135.893 232.004 135.892 232.012 135.888C232.018 135.886 232.023 135.882 232.025 135.88C232.028 135.877 232.031 135.873 232.034 135.866C232.037 135.858 232.038 135.851 232.038 135.848C232.038 135.846 232.037 135.838 232.034 135.831C232.031 135.824 232.028 135.82 232.025 135.817C232.023 135.814 232.018 135.811 232.012 135.808C232.004 135.805 231.997 135.804 231.994 135.804C231.991 135.804 231.984 135.805 231.976 135.808C231.97 135.811 231.965 135.814 231.963 135.817C231.96 135.82 231.957 135.824 231.954 135.831ZM231.994 137.646C232.987 137.646 233.792 136.841 233.792 135.848C233.792 134.856 232.987 134.051 231.994 134.051C231.001 134.051 230.196 134.856 230.196 135.848C230.196 136.841 231.001 137.646 231.994 137.646Z" fill="#FF3B30"/>
<path d="M240.982 135.848C240.982 136.841 240.177 137.646 239.184 137.646C238.191 137.646 237.387 136.841 237.387 135.848C237.387 134.856 238.191 134.051 239.184 134.051C240.177 134.051 240.982 134.856 240.982 135.848Z" fill="#FFD60A"/>
<path fill-rule="evenodd" clip-rule="evenodd" d="M239.144 135.831C239.141 135.838 239.14 135.846 239.14 135.848C239.14 135.851 239.141 135.858 239.144 135.866C239.147 135.873 239.15 135.877 239.153 135.88C239.156 135.882 239.16 135.886 239.166 135.888C239.174 135.892 239.181 135.893 239.184 135.893C239.187 135.893 239.194 135.892 239.202 135.888C239.209 135.886 239.213 135.882 239.215 135.88C239.218 135.877 239.221 135.873 239.224 135.866C239.228 135.858 239.228 135.851 239.228 135.848C239.228 135.846 239.228 135.838 239.224 135.831C239.221 135.824 239.218 135.82 239.215 135.817C239.213 135.814 239.209 135.811 239.202 135.808C239.194 135.805 239.187 135.804 239.184 135.804C239.181 135.804 239.174 135.805 239.166 135.808C239.16 135.811 239.156 135.814 239.153 135.817C239.15 135.82 239.147 135.824 239.144 135.831ZM239.184 137.646C240.177 137.646 240.982 136.841 240.982 135.848C240.982 134.856 240.177 134.051 239.184 134.051C238.191 134.051 237.387 134.856 237.387 135.848C237.387 136.841 238.191 137.646 239.184 137.646Z" fill="#FFD60A"/>
<path d="M248.172 135.848C248.172 136.841 247.367 137.646 246.374 137.646C245.382 137.646 244.577 136.841 244.577 135.848C244.577 134.856 245.382 134.051 246.374 134.051C247.367 134.051 248.172 134.856 248.172 135.848Z" fill="#32D74B"/>
<path fill-rule="evenodd" clip-rule="evenodd" d="M246.334 135.831C246.331 135.838 246.33 135.846 246.33 135.848C246.33 135.851 246.331 135.858 246.334 135.866C246.337 135.873 246.341 135.877 246.343 135.88C246.346 135.882 246.35 135.886 246.357 135.888C246.365 135.892 246.372 135.893 246.374 135.893C246.377 135.893 246.384 135.892 246.392 135.888C246.399 135.886 246.403 135.882 246.406 135.88C246.408 135.877 246.412 135.873 246.414 135.866C246.418 135.858 246.419 135.851 246.419 135.848C246.419 135.846 246.418 135.838 246.414 135.831C246.412 135.824 246.408 135.82 246.406 135.817C246.403 135.814 246.399 135.811 246.392 135.808C246.384 135.805 246.377 135.804 246.374 135.804C246.372 135.804 246.365 135.805 246.357 135.808C246.35 135.811 246.346 135.814 246.343 135.817C246.341 135.82 246.337 135.824 246.334 135.831ZM246.374 137.646C247.367 137.646 248.172 136.841 248.172 135.848C248.172 134.856 247.367 134.051 246.374 134.051C245.382 134.051 244.577 134.856 244.577 135.848C244.577 136.841 245.382 137.646 246.374 137.646Z" fill="#32D74B"/>
<path d="M314.501 217.493C314.501 220.219 312.291 222.43 309.564 222.43C306.838 222.43 304.627 220.219 304.627 217.493C304.627 214.766 306.838 212.556 309.564 212.556C312.291 212.556 314.501 214.766 314.501 217.493Z" fill="url(#paint1_linear_462_676)"/>
<path fill-rule="evenodd" clip-rule="evenodd" d="M309.564 221.509C311.782 221.509 313.58 219.711 313.58 217.493C313.58 215.275 311.782 213.477 309.564 213.477C307.346 213.477 305.548 215.275 305.548 217.493C305.548 219.711 307.346 221.509 309.564 221.509ZM309.564 222.43C312.291 222.43 314.501 220.219 314.501 217.493C314.501 214.766 312.291 212.556 309.564 212.556C306.838 212.556 304.627 214.766 304.627 217.493C304.627 220.219 306.838 222.43 309.564 222.43Z" fill="url(#paint2_linear_462_676)"/>
<path fill-rule="evenodd" clip-rule="evenodd" d="M304.727 234.684C308.342 231.964 312.34 227.456 315.785 221.777C319.229 216.098 321.38 210.468 322.122 206.006C322.494 203.769 322.496 201.922 322.199 200.545C321.903 199.173 321.357 198.44 320.764 198.08C320.171 197.72 319.268 197.575 317.915 197.947C316.556 198.32 314.919 199.175 313.107 200.538C309.493 203.258 305.494 207.766 302.05 213.445C298.605 219.125 296.454 224.754 295.712 229.216C295.34 231.453 295.339 233.3 295.636 234.677C295.931 236.049 296.477 236.782 297.07 237.142C297.663 237.502 298.566 237.647 299.92 237.275C301.278 236.902 302.915 236.047 304.727 234.684ZM296.115 238.717C300.778 241.545 310.289 234.388 317.359 222.732C324.43 211.076 326.382 199.333 321.719 196.505C317.057 193.677 307.545 200.834 300.475 212.49C293.405 224.147 291.453 235.889 296.115 238.717Z" fill="url(#paint3_linear_462_676)"/>
<path fill-rule="evenodd" clip-rule="evenodd" d="M323.062 229.386C322.315 224.925 320.158 219.298 316.707 213.622C313.256 207.947 309.253 203.443 305.635 200.727C303.822 199.366 302.184 198.513 300.825 198.141C299.471 197.771 298.569 197.917 297.976 198.277C297.383 198.638 296.838 199.372 296.544 200.744C296.249 202.122 296.252 203.969 296.626 206.205C297.373 210.666 299.53 216.293 302.981 221.968C306.432 227.644 310.435 232.148 314.053 234.864C315.866 236.225 317.504 237.078 318.863 237.45C320.217 237.82 321.119 237.674 321.712 237.313C322.305 236.953 322.85 236.219 323.144 234.847C323.439 233.469 323.436 231.622 323.062 229.386ZM322.669 238.887C327.328 236.054 325.364 224.314 318.281 212.665C311.198 201.017 301.679 193.87 297.019 196.704C292.36 199.537 294.324 211.277 301.407 222.925C308.49 234.574 318.009 241.72 322.669 238.887Z" fill="url(#paint4_linear_462_676)"/>
<path fill-rule="evenodd" clip-rule="evenodd" d="M326.512 212.207C322.281 210.607 316.333 209.639 309.692 209.765C303.051 209.89 297.144 211.082 292.977 212.841C290.888 213.723 289.326 214.709 288.321 215.696C287.32 216.68 286.992 217.533 287.005 218.227C287.018 218.921 287.378 219.761 288.416 220.706C289.457 221.654 291.055 222.581 293.176 223.383C297.407 224.983 303.355 225.952 309.996 225.826C316.637 225.7 322.544 224.508 326.711 222.749C328.8 221.868 330.362 220.881 331.367 219.894C332.368 218.911 332.696 218.057 332.683 217.364C332.67 216.67 332.31 215.83 331.272 214.885C330.231 213.936 328.633 213.01 326.512 212.207ZM334.524 217.329C334.421 211.877 323.288 207.666 309.657 207.923C296.027 208.181 285.06 212.81 285.163 218.262C285.267 223.714 296.4 227.925 310.031 227.667C323.661 227.41 334.627 222.781 334.524 217.329Z" fill="url(#paint5_linear_462_676)"/>
<path d="M204.581 426.603L204.581 294.483L452.195 294.483V426.603H204.581Z" fill="#FAFBFC"/>
<path fill-rule="evenodd" clip-rule="evenodd" d="M204.121 294.022H452.655V427.064L204.121 427.064L204.121 294.022ZM205.042 294.943L205.042 426.143L451.734 426.143V294.943H205.042Z" fill="#616161"/>
<defs>
<linearGradient id="paint0_linear_462_676" x1="663.443" y1="427.711" x2="-115.097" y2="378.48" gradientUnits="userSpaceOnUse">
<stop offset="0.474799" stop-color="#367C93"/>
<stop offset="1" stop-color="#106683" stop-opacity="0.47"/>
</linearGradient>
<linearGradient id="paint1_linear_462_676" x1="663.443" y1="427.711" x2="-115.097" y2="378.48" gradientUnits="userSpaceOnUse">
<stop offset="0.474799" stop-color="#367C93"/>
<stop offset="1" stop-color="#106683" stop-opacity="0.47"/>
</linearGradient>
<linearGradient id="paint2_linear_462_676" x1="663.443" y1="427.711" x2="-115.097" y2="378.48" gradientUnits="userSpaceOnUse">
<stop offset="0.474799" stop-color="#367C93"/>
<stop offset="1" stop-color="#106683" stop-opacity="0.47"/>
</linearGradient>
<linearGradient id="paint3_linear_462_676" x1="663.443" y1="427.711" x2="-115.097" y2="378.48" gradientUnits="userSpaceOnUse">
<stop offset="0.474799" stop-color="#367C93"/>
<stop offset="1" stop-color="#106683" stop-opacity="0.47"/>
</linearGradient>
<linearGradient id="paint4_linear_462_676" x1="663.443" y1="427.711" x2="-115.097" y2="378.48" gradientUnits="userSpaceOnUse">
<stop offset="0.474799" stop-color="#367C93"/>
<stop offset="1" stop-color="#106683" stop-opacity="0.47"/>
</linearGradient>
<linearGradient id="paint5_linear_462_676" x1="663.443" y1="427.711" x2="-115.097" y2="378.48" gradientUnits="userSpaceOnUse">
<stop offset="0.474799" stop-color="#367C93"/>
<stop offset="1" stop-color="#106683" stop-opacity="0.47"/>
</linearGradient>
</defs>
</svg>
