<svg width="353" height="221" viewBox="0 0 353 221" fill="none" xmlns="http://www.w3.org/2000/svg">
<path d="M91.5581 34.9917C91.5581 34.4553 92.1041 34.0205 92.7777 34.0205H123.266C123.94 34.0205 124.486 34.4553 124.486 34.9917C124.486 35.5281 123.94 35.9629 123.266 35.9629H92.7777C92.1041 35.9629 91.5581 35.5281 91.5581 34.9917Z" fill="#616161"/>
<path d="M91.5581 60.7976C91.5581 60.2612 92.1041 59.8264 92.7777 59.8264H123.266C123.94 59.8264 124.486 60.2612 124.486 60.7976C124.486 61.334 123.94 61.7688 123.266 61.7688H92.7777C92.1041 61.7688 91.5581 61.334 91.5581 60.7976Z" fill="#616161"/>
<path d="M224.688 115.184C224.688 114.648 225.366 114.213 226.202 114.213H264.05C264.887 114.213 265.564 114.648 265.564 115.184C265.564 115.72 264.887 116.155 264.05 116.155H226.202C225.366 116.155 224.688 115.72 224.688 115.184Z" fill="#616161"/>
<path d="M231.501 120.456C231.501 119.92 232.066 119.485 232.763 119.485H264.303C265 119.485 265.564 119.92 265.564 120.456C265.564 120.993 265 121.427 264.303 121.427H232.763C232.066 121.427 231.501 120.993 231.501 120.456Z" fill="#616161"/>
<path d="M91.5581 83.551C91.5581 83.0146 92.1041 82.5798 92.7777 82.5798H123.266C123.94 82.5798 124.486 83.0146 124.486 83.551C124.486 84.0874 123.94 84.5222 123.266 84.5222H92.7777C92.1041 84.5222 91.5581 84.0874 91.5581 83.551Z" fill="#616161"/>
<path d="M91.5581 41.0962C91.5581 40.5598 92.1041 40.125 92.7777 40.125H123.266C123.94 40.125 124.486 40.5598 124.486 41.0962C124.486 41.6326 123.94 42.0674 123.266 42.0674H92.7777C92.1041 42.0674 91.5581 41.6326 91.5581 41.0962Z" fill="#616161"/>
<path d="M91.5581 66.9021C91.5581 66.3657 92.1041 65.9309 92.7777 65.9309H123.266C123.94 65.9309 124.486 66.3657 124.486 66.9021C124.486 67.4385 123.94 67.8733 123.266 67.8733H92.7777C92.1041 67.8733 91.5581 67.4385 91.5581 66.9021Z" fill="#616161"/>
<path d="M91.5581 89.6558C91.5581 89.1194 92.1041 88.6846 92.7777 88.6846H123.266C123.94 88.6846 124.486 89.1194 124.486 89.6558C124.486 90.1921 123.94 90.6269 123.266 90.6269H92.7777C92.1041 90.6269 91.5581 90.1921 91.5581 89.6558Z" fill="#616161"/>
<path fill-rule="evenodd" clip-rule="evenodd" d="M82.1225 40.8242C83.339 40.8242 84.3252 39.8602 84.3252 38.6711C84.3252 37.4819 83.339 36.5179 82.1225 36.5179C80.9059 36.5179 79.9198 37.4819 79.9198 38.6711C79.9198 39.8602 80.9059 40.8242 82.1225 40.8242ZM82.1225 41.3792C83.6525 41.3792 84.8929 40.1667 84.8929 38.6711C84.8929 37.1754 83.6525 35.9629 82.1225 35.9629C80.5924 35.9629 79.3521 37.1754 79.3521 38.6711C79.3521 40.1667 80.5924 41.3792 82.1225 41.3792Z" fill="#616161"/>
<path fill-rule="evenodd" clip-rule="evenodd" d="M82.1225 66.6299C83.339 66.6299 84.3252 65.6659 84.3252 64.4767C84.3252 63.2875 83.339 62.3235 82.1225 62.3235C80.9059 62.3235 79.9198 63.2875 79.9198 64.4767C79.9198 65.6659 80.9059 66.6299 82.1225 66.6299ZM82.1225 67.1849C83.6525 67.1849 84.8929 65.9724 84.8929 64.4767C84.8929 62.981 83.6525 61.7686 82.1225 61.7686C80.5924 61.7686 79.3521 62.981 79.3521 64.4767C79.3521 65.9724 80.5924 67.1849 82.1225 67.1849Z" fill="#616161"/>
<path fill-rule="evenodd" clip-rule="evenodd" d="M82.1225 89.1062C83.339 89.1062 84.3252 88.1422 84.3252 86.953C84.3252 85.7639 83.339 84.7998 82.1225 84.7998C80.9059 84.7998 79.9198 85.7639 79.9198 86.953C79.9198 88.1422 80.9059 89.1062 82.1225 89.1062ZM82.1225 89.6612C83.6525 89.6612 84.8929 88.4487 84.8929 86.953C84.8929 85.4574 83.6525 84.2449 82.1225 84.2449C80.5924 84.2449 79.3521 85.4574 79.3521 86.953C79.3521 88.4487 80.5924 89.6612 82.1225 89.6612Z" fill="#616161"/>
<path fill-rule="evenodd" clip-rule="evenodd" d="M146.033 79.5089C146.032 79.5113 146.032 79.5135 146.032 79.5143C146.032 79.5151 146.032 79.5173 146.033 79.5196C146.034 79.5216 146.035 79.5229 146.036 79.5237C146.037 79.5245 146.038 79.5255 146.04 79.5263C146.042 79.5273 146.045 79.5276 146.046 79.5276C146.046 79.5276 146.049 79.5273 146.051 79.5263C146.053 79.5255 146.054 79.5245 146.055 79.5237C146.056 79.5229 146.057 79.5216 146.058 79.5196C146.059 79.5173 146.059 79.5151 146.059 79.5143C146.059 79.5135 146.059 79.5113 146.058 79.5089C146.057 79.5069 146.056 79.5057 146.055 79.5049C146.054 79.5041 146.053 79.5031 146.051 79.5022C146.049 79.5012 146.046 79.501 146.046 79.501C146.045 79.501 146.042 79.5012 146.04 79.5022C146.038 79.5031 146.037 79.5041 146.036 79.5049C146.035 79.5057 146.034 79.5069 146.033 79.5089ZM146.046 80.0559C146.352 80.0559 146.6 79.8134 146.6 79.5143C146.6 79.2152 146.352 78.9727 146.046 78.9727C145.74 78.9727 145.491 79.2152 145.491 79.5143C145.491 79.8134 145.74 80.0559 146.046 80.0559Z" fill="#FF3B30"/>
<path fill-rule="evenodd" clip-rule="evenodd" d="M148.25 79.5089C148.248 79.5113 148.248 79.5135 148.248 79.5143C148.248 79.5151 148.248 79.5173 148.25 79.5196C148.25 79.5216 148.251 79.5229 148.252 79.5237C148.253 79.5245 148.254 79.5255 148.256 79.5263C148.259 79.5273 148.261 79.5276 148.262 79.5276C148.263 79.5276 148.265 79.5273 148.267 79.5263C148.269 79.5255 148.271 79.5245 148.271 79.5237C148.272 79.5229 148.273 79.5216 148.274 79.5196C148.275 79.5173 148.275 79.5151 148.275 79.5143C148.275 79.5135 148.275 79.5113 148.274 79.5089C148.273 79.5069 148.272 79.5057 148.271 79.5049C148.271 79.5041 148.269 79.5031 148.267 79.5022C148.265 79.5012 148.263 79.501 148.262 79.501C148.261 79.501 148.259 79.5012 148.256 79.5022C148.254 79.5031 148.253 79.5041 148.252 79.5049C148.251 79.5057 148.25 79.5069 148.25 79.5089ZM148.262 80.0559C148.568 80.0559 148.816 79.8134 148.816 79.5143C148.816 79.2152 148.568 78.9727 148.262 78.9727C147.956 78.9727 147.708 79.2152 147.708 79.5143C147.708 79.8134 147.956 80.0559 148.262 80.0559Z" fill="#FFD60A"/>
<path fill-rule="evenodd" clip-rule="evenodd" d="M150.466 79.5089C150.465 79.5113 150.465 79.5135 150.465 79.5143C150.465 79.5151 150.465 79.5173 150.466 79.5196C150.467 79.5216 150.468 79.5229 150.469 79.5237C150.469 79.5245 150.471 79.5255 150.473 79.5263C150.475 79.5273 150.477 79.5276 150.478 79.5276C150.479 79.5276 150.481 79.5273 150.484 79.5263C150.486 79.5255 150.487 79.5245 150.488 79.5237C150.489 79.5229 150.49 79.5216 150.49 79.5196C150.492 79.5173 150.492 79.5151 150.492 79.5143C150.492 79.5135 150.492 79.5113 150.49 79.5089C150.49 79.5069 150.489 79.5057 150.488 79.5049C150.487 79.5041 150.486 79.5031 150.484 79.5022C150.481 79.5012 150.479 79.501 150.478 79.501C150.477 79.501 150.475 79.5012 150.473 79.5022C150.471 79.5031 150.469 79.5041 150.469 79.5049C150.468 79.5057 150.467 79.5069 150.466 79.5089ZM150.478 80.0559C150.784 80.0559 151.032 79.8134 151.032 79.5143C151.032 79.2152 150.784 78.9727 150.478 78.9727C150.172 78.9727 149.924 79.2152 149.924 79.5143C149.924 79.8134 150.172 80.0559 150.478 80.0559Z" fill="#32D74B"/>
<path d="M146.172 31.1403C145.83 26.4518 146.684 17.4468 158.181 16.911C157.497 8.20385 165.709 5.18985 171.184 7.53403C177.344 0.501344 203.008 -7.53617 208.141 22.6042M146.172 31.1403C146.883 40.8875 160.691 42.3628 165.367 39.3488M146.172 31.1403H135.906M208.141 22.6042C211.448 24.6136 215.603 29.4305 211.872 35.159C208.141 40.8875 200.612 42.0279 197.875 39.6837M208.141 22.6042H231.034M197.875 39.6837C194.681 41.1349 186.639 43.2743 179.739 41.0232C179.45 40.9289 179.218 40.8874 179.022 40.8875M197.875 39.6837V51.2339H197.842M165.367 39.3488C166.361 38.7083 169.243 40.5026 172.862 41.0232C177.922 40.732 177.709 40.8882 179.022 40.8875M165.367 39.3488V57.2619M165.367 57.2619H164.226V58.9938H165.362H166.497V57.2619H165.367ZM197.842 51.2339H196.473V53.0279H199.211V51.2339H197.842ZM135.906 31.1403V30.1356H133.853V32.078H135.906V31.1403ZM231.034 22.6042V21.5337H232.92V23.7535H231.034V22.6042ZM179.022 40.8875V51.9036M179.022 51.9036H177.653V53.7216H180.391V51.9036H179.022Z" stroke="#616161" stroke-width="2"/>
<path d="M126.615 155.419V219.934H232.637M126.615 155.419H143.646M126.615 155.419L143.646 142.755M126.615 155.419L119.376 150.979M232.637 219.934L286.002 178.727V142.518M232.637 219.934V155.419M286.002 115.739L352 99.7838L298.634 139.464L286.002 142.518M286.002 115.739L270.816 127.031M286.002 115.739L270.816 115.808M232.637 155.419L286.002 142.518M232.637 155.419H224.547M232.637 155.419L249.526 142.861L258.2 136.411M143.646 155.419H220.998M143.646 155.419V142.755M220.998 155.419V105.056M220.998 155.419H224.547M143.646 142.755V99.7838L95.674 135.301L119.376 150.979M143.646 142.755V93.6792M198.573 76.1978H184.097H143.646V93.6792M198.573 76.1978H203.399M198.573 76.1978V65.376M270.816 127.031V115.808M270.816 127.031L258.2 136.411M270.816 115.808V60.3813H198.573V65.376M119.376 150.979H39.3277V93.6792M39.3277 93.6792L2 80.36L52.1014 49.282L75.0941 60.283M39.3277 93.6792L75.0941 71.3418V73.1684M39.3277 93.6792H75.0941M143.646 93.6792H126.615M126.615 65.376H198.573M75.0941 93.6792V77.5852L99.3642 77.5623M75.0941 93.6792H126.615M126.615 93.6792V77.5852L102.487 77.5817M99.3642 77.5623V73.1455L75.0941 73.1684M99.3642 77.5623L102.487 77.5817M75.0941 73.1684V62.1964V54.6929H99.2222M102.487 77.5817V73.1649L126.615 73.1684V54.6929H102.345M99.2222 54.6929V47.0622H75.0941V29.1646H126.615V47.0622H102.345V54.6929M99.2222 54.6929H102.345M203.399 76.1978H265.706M203.399 76.1978H220.998V85.7709M265.706 76.1978V105.056M265.706 76.1978L220.998 97.2864M265.706 105.056H220.998M265.706 105.056L220.998 85.7709M220.998 105.056V85.7709M224.547 155.419V136.411M265.564 130.862V127.031H239.875M239.875 127.031H224.547V136.411M239.875 127.031V136.411M239.875 150.037V136.411M224.547 136.411H239.875M258.2 136.411H239.875M239.875 136.411L244.417 137.799L242.856 138.354L242.572 139.741L239.875 136.411Z" stroke="#616161"/>
<path d="M242.572 139.741L239.875 136.411L244.275 137.799L242.856 138.354L242.572 139.741Z" fill="#616161"/>
<path d="M75.0941 71.3416L39.3276 93.6789H75.0941V77.5626H99.3641L99.3816 73.1452H75.0941V71.3416Z" fill="#616161"/>
<path d="M102.487 73.1455V77.5852H126.615V93.6792H143.647V76.1978H184.239L198.574 68.567V65.376H126.615V73.1455H102.487Z" fill="#616161"/>
<path d="M143.646 142.793L126.615 155.419L143.646 155.28V142.793Z" fill="#616161"/>
<path d="M270.958 115.878L286.002 115.739L270.816 126.977L270.958 115.878Z" fill="#616161"/>
<path d="M181.785 116.807C181.785 117.629 181.104 118.295 180.264 118.295C179.423 118.295 178.742 117.629 178.742 116.807C178.742 115.986 179.423 115.32 180.264 115.32C181.104 115.32 181.785 115.986 181.785 116.807Z" fill="url(#paint0_linear_570_217)"/>
<path fill-rule="evenodd" clip-rule="evenodd" d="M180.264 118.017C180.947 118.017 181.502 117.475 181.502 116.807C181.502 116.139 180.947 115.597 180.264 115.597C179.58 115.597 179.026 116.139 179.026 116.807C179.026 117.475 179.58 118.017 180.264 118.017ZM180.264 118.295C181.104 118.295 181.785 117.629 181.785 116.807C181.785 115.986 181.104 115.32 180.264 115.32C179.423 115.32 178.742 115.986 178.742 116.807C178.742 117.629 179.423 118.295 180.264 118.295Z" fill="url(#paint1_linear_570_217)"/>
<path fill-rule="evenodd" clip-rule="evenodd" d="M178.773 121.987C179.887 121.168 181.119 119.809 182.181 118.098C183.243 116.387 183.906 114.691 184.135 113.346C184.249 112.672 184.25 112.116 184.158 111.701C184.067 111.287 183.899 111.066 183.716 110.958C183.533 110.85 183.255 110.806 182.838 110.918C182.419 111.03 181.914 111.288 181.356 111.698C180.242 112.518 179.009 113.877 177.948 115.588C176.886 117.299 176.223 118.995 175.994 120.34C175.879 121.014 175.879 121.57 175.97 121.985C176.062 122.398 176.23 122.619 176.413 122.728C176.596 122.836 176.874 122.88 177.291 122.768C177.71 122.656 178.214 122.398 178.773 121.987ZM176.118 123.202C177.555 124.055 180.487 121.898 182.667 118.386C184.846 114.874 185.448 111.336 184.01 110.483C182.573 109.631 179.641 111.788 177.462 115.3C175.283 118.812 174.681 122.35 176.118 123.202Z" fill="url(#paint2_linear_570_217)"/>
<path fill-rule="evenodd" clip-rule="evenodd" d="M184.424 120.391C184.194 119.047 183.529 117.351 182.466 115.641C181.402 113.931 180.168 112.574 179.053 111.755C178.494 111.345 177.989 111.088 177.57 110.976C177.153 110.865 176.875 110.909 176.692 111.017C176.509 111.126 176.341 111.347 176.25 111.761C176.159 112.176 176.161 112.732 176.276 113.406C176.506 114.75 177.171 116.446 178.235 118.156C179.298 119.866 180.532 121.223 181.647 122.041C182.206 122.452 182.711 122.709 183.13 122.821C183.547 122.932 183.826 122.888 184.008 122.779C184.191 122.671 184.359 122.45 184.45 122.036C184.541 121.621 184.54 121.065 184.424 120.391ZM184.303 123.254C185.74 122.4 185.134 118.863 182.951 115.353C180.767 111.843 177.833 109.689 176.397 110.543C174.961 111.397 175.566 114.934 177.75 118.444C179.933 121.954 182.867 124.107 184.303 123.254Z" fill="url(#paint3_linear_570_217)"/>
<path fill-rule="evenodd" clip-rule="evenodd" d="M185.488 115.215C184.184 114.733 182.35 114.441 180.303 114.479C178.256 114.516 176.435 114.876 175.151 115.406C174.507 115.671 174.025 115.969 173.716 116.266C173.407 116.562 173.306 116.82 173.31 117.028C173.314 117.237 173.425 117.491 173.745 117.775C174.066 118.061 174.558 118.34 175.212 118.582C176.516 119.064 178.35 119.356 180.397 119.318C182.444 119.28 184.265 118.921 185.549 118.391C186.193 118.125 186.674 117.828 186.984 117.531C187.293 117.235 187.394 116.977 187.39 116.768C187.386 116.559 187.275 116.306 186.955 116.021C186.634 115.736 186.141 115.456 185.488 115.215ZM187.957 116.758C187.926 115.115 184.494 113.846 180.292 113.924C176.091 114.001 172.711 115.396 172.742 117.039C172.774 118.682 176.206 119.951 180.407 119.873C184.609 119.795 187.989 118.401 187.957 116.758Z" fill="url(#paint4_linear_570_217)"/>
<rect x="233.772" y="67.5957" width="7.94809" height="1.10993" rx="0.554964" fill="#616161"/>
<rect x="245.694" y="67.5957" width="7.94809" height="1.10993" rx="0.554964" fill="#616161"/>
<rect x="257.616" y="67.5957" width="7.94809" height="1.10993" rx="0.554964" fill="#616161"/>
<rect x="201.412" y="67.0408" width="10.219" height="2.21986" rx="1.10993" fill="#616161"/>
<path fill-rule="evenodd" clip-rule="evenodd" d="M73.9114 202.208C75.8344 202.208 77.3933 200.687 77.3933 198.811C77.3933 196.934 75.8344 195.413 73.9114 195.413C71.9883 195.413 70.4294 196.934 70.4294 198.811C70.4294 200.687 71.9883 202.208 73.9114 202.208ZM73.9114 203.084C76.33 203.084 78.2907 201.171 78.2907 198.811C78.2907 196.45 76.33 194.537 73.9114 194.537C71.4927 194.537 69.532 196.45 69.532 198.811C69.532 201.171 71.4927 203.084 73.9114 203.084Z" fill="#616161"/>
<path fill-rule="evenodd" clip-rule="evenodd" d="M290.193 37.1326C292.116 37.1326 293.675 35.6114 293.675 33.7349C293.675 31.8584 292.116 30.3372 290.193 30.3372C288.27 30.3372 286.711 31.8584 286.711 33.7349C286.711 35.6114 288.27 37.1326 290.193 37.1326ZM290.193 38.0084C292.612 38.0084 294.573 36.0951 294.573 33.7349C294.573 31.3747 292.612 29.4614 290.193 29.4614C287.775 29.4614 285.814 31.3747 285.814 33.7349C285.814 36.0951 287.775 38.0084 290.193 38.0084Z" fill="#616161"/>
<defs>
<linearGradient id="paint0_linear_570_217" x1="182.103" y1="118.295" x2="178.147" y2="118.112" gradientUnits="userSpaceOnUse">
<stop offset="0.474799" stop-color="#367C93"/>
<stop offset="1" stop-color="#106683" stop-opacity="0.47"/>
</linearGradient>
<linearGradient id="paint1_linear_570_217" x1="182.103" y1="118.295" x2="178.147" y2="118.112" gradientUnits="userSpaceOnUse">
<stop offset="0.474799" stop-color="#367C93"/>
<stop offset="1" stop-color="#106683" stop-opacity="0.47"/>
</linearGradient>
<linearGradient id="paint2_linear_570_217" x1="179.264" y1="125.067" x2="172.648" y2="120.793" gradientUnits="userSpaceOnUse">
<stop offset="0.474799" stop-color="#367C93"/>
<stop offset="1" stop-color="#106683" stop-opacity="0.47"/>
</linearGradient>
<linearGradient id="paint3_linear_570_217" x1="187.447" y1="121.385" x2="180.679" y2="125.426" gradientUnits="userSpaceOnUse">
<stop offset="0.474799" stop-color="#367C93"/>
<stop offset="1" stop-color="#106683" stop-opacity="0.47"/>
</linearGradient>
<linearGradient id="paint4_linear_570_217" x1="189.546" y1="119.876" x2="169.983" y2="117.624" gradientUnits="userSpaceOnUse">
<stop offset="0.474799" stop-color="#367C93"/>
<stop offset="1" stop-color="#106683" stop-opacity="0.47"/>
</linearGradient>
</defs>
</svg>
