<svg width="653" height="409" viewBox="0 0 653 409" fill="none" xmlns="http://www.w3.org/2000/svg">
<path d="M168.322 64.1274C168.322 63.1312 169.336 62.3237 170.587 62.3237H227.209C228.46 62.3237 229.474 63.1312 229.474 64.1274C229.474 65.1235 228.46 65.931 227.209 65.931H170.587C169.336 65.931 168.322 65.1235 168.322 64.1274Z" fill="#616161"/>
<path d="M168.322 112.053C168.322 111.057 169.336 110.249 170.587 110.249H227.209C228.46 110.249 229.474 111.057 229.474 112.053C229.474 113.049 228.46 113.856 227.209 113.856H170.587C169.336 113.856 168.322 113.049 168.322 112.053Z" fill="#616161"/>
<path d="M415.564 213.056C415.564 212.06 416.823 211.252 418.376 211.252H488.665C490.218 211.252 491.477 212.06 491.477 213.056C491.477 214.052 490.218 214.86 488.665 214.86H418.376C416.823 214.86 415.564 214.052 415.564 213.056Z" fill="#616161"/>
<path d="M428.217 222.847C428.217 221.851 429.266 221.044 430.56 221.044H489.134C490.428 221.044 491.477 221.851 491.477 222.847C491.477 223.843 490.428 224.651 489.134 224.651H430.56C429.266 224.651 428.217 223.843 428.217 222.847Z" fill="#616161"/>
<path d="M168.322 154.309C168.322 153.313 169.336 152.506 170.587 152.506H227.209C228.46 152.506 229.474 153.313 229.474 154.309C229.474 155.305 228.46 156.113 227.209 156.113H170.587C169.336 156.113 168.322 155.305 168.322 154.309Z" fill="#616161"/>
<path d="M168.322 75.4643C168.322 74.4682 169.336 73.6606 170.587 73.6606H227.209C228.46 73.6606 229.474 74.4682 229.474 75.4643C229.474 76.4604 228.46 77.2679 227.209 77.2679H170.587C169.336 77.2679 168.322 76.4604 168.322 75.4643Z" fill="#616161"/>
<path d="M168.322 123.39C168.322 122.393 169.336 121.586 170.587 121.586H227.209C228.46 121.586 229.474 122.393 229.474 123.39C229.474 124.386 228.46 125.193 227.209 125.193H170.587C169.336 125.193 168.322 124.386 168.322 123.39Z" fill="#616161"/>
<path d="M168.322 165.646C168.322 164.65 169.336 163.843 170.587 163.843H227.209C228.46 163.843 229.474 164.65 229.474 165.646C229.474 166.643 228.46 167.45 227.209 167.45H170.587C169.336 167.45 168.322 166.643 168.322 165.646Z" fill="#616161"/>
<path fill-rule="evenodd" clip-rule="evenodd" d="M150.799 74.9591C153.058 74.9591 154.89 73.1688 154.89 70.9603C154.89 68.7519 153.058 66.9616 150.799 66.9616C148.54 66.9616 146.708 68.7519 146.708 70.9603C146.708 73.1688 148.54 74.9591 150.799 74.9591ZM150.799 75.9898C153.64 75.9898 155.944 73.738 155.944 70.9603C155.944 68.1827 153.64 65.9309 150.799 65.9309C147.957 65.9309 145.654 68.1827 145.654 70.9603C145.654 73.738 147.957 75.9898 150.799 75.9898Z" fill="#616161"/>
<path fill-rule="evenodd" clip-rule="evenodd" d="M150.799 122.884C153.058 122.884 154.89 121.094 154.89 118.885C154.89 116.677 153.058 114.887 150.799 114.887C148.54 114.887 146.708 116.677 146.708 118.885C146.708 121.094 148.54 122.884 150.799 122.884ZM150.799 123.915C153.64 123.915 155.944 121.663 155.944 118.885C155.944 116.108 153.64 113.856 150.799 113.856C147.957 113.856 145.654 116.108 145.654 118.885C145.654 121.663 147.957 123.915 150.799 123.915Z" fill="#616161"/>
<path fill-rule="evenodd" clip-rule="evenodd" d="M150.799 164.626C153.058 164.626 154.89 162.835 154.89 160.627C154.89 158.418 153.058 156.628 150.799 156.628C148.54 156.628 146.708 158.418 146.708 160.627C146.708 162.835 148.54 164.626 150.799 164.626ZM150.799 165.656C153.64 165.656 155.944 163.405 155.944 160.627C155.944 157.849 153.64 155.597 150.799 155.597C147.957 155.597 145.654 157.849 145.654 160.627C145.654 163.405 147.957 165.656 150.799 165.656Z" fill="#616161"/>
<path fill-rule="evenodd" clip-rule="evenodd" d="M269.49 146.802C269.488 146.806 269.488 146.811 269.488 146.812C269.488 146.814 269.488 146.818 269.49 146.822C269.492 146.826 269.494 146.828 269.495 146.83C269.497 146.831 269.499 146.833 269.503 146.834C269.507 146.836 269.512 146.837 269.513 146.837C269.515 146.837 269.519 146.836 269.523 146.834C269.527 146.833 269.53 146.831 269.531 146.83C269.533 146.828 269.534 146.826 269.536 146.822C269.538 146.818 269.538 146.814 269.538 146.812C269.538 146.811 269.538 146.806 269.536 146.802C269.534 146.798 269.533 146.796 269.531 146.795C269.53 146.793 269.527 146.791 269.523 146.79C269.519 146.788 269.515 146.787 269.513 146.787C269.512 146.787 269.507 146.788 269.503 146.79C269.499 146.791 269.497 146.793 269.495 146.795C269.494 146.796 269.492 146.798 269.49 146.802ZM269.513 147.818C270.081 147.818 270.542 147.368 270.542 146.812C270.542 146.257 270.081 145.806 269.513 145.806C268.945 145.806 268.484 146.257 268.484 146.812C268.484 147.368 268.945 147.818 269.513 147.818Z" fill="#FF3B30"/>
<path fill-rule="evenodd" clip-rule="evenodd" d="M273.606 146.802C273.604 146.806 273.604 146.811 273.604 146.812C273.604 146.814 273.604 146.818 273.606 146.822C273.608 146.826 273.61 146.828 273.611 146.83C273.613 146.831 273.615 146.833 273.619 146.834C273.623 146.836 273.628 146.837 273.629 146.837C273.631 146.837 273.635 146.836 273.639 146.834C273.643 146.833 273.645 146.831 273.647 146.83C273.649 146.828 273.65 146.826 273.652 146.822C273.654 146.818 273.654 146.814 273.654 146.812C273.654 146.811 273.654 146.806 273.652 146.802C273.65 146.798 273.649 146.796 273.647 146.795C273.645 146.793 273.643 146.791 273.639 146.79C273.635 146.788 273.631 146.787 273.629 146.787C273.628 146.787 273.623 146.788 273.619 146.79C273.615 146.791 273.613 146.793 273.611 146.795C273.61 146.796 273.608 146.798 273.606 146.802ZM273.629 147.818C274.197 147.818 274.658 147.368 274.658 146.812C274.658 146.257 274.197 145.806 273.629 145.806C273.061 145.806 272.6 146.257 272.6 146.812C272.6 147.368 273.061 147.818 273.629 147.818Z" fill="#FFD60A"/>
<path fill-rule="evenodd" clip-rule="evenodd" d="M277.722 146.802C277.721 146.806 277.72 146.811 277.72 146.812C277.72 146.814 277.721 146.818 277.722 146.822C277.724 146.826 277.726 146.828 277.727 146.83C277.729 146.831 277.731 146.833 277.735 146.834C277.74 146.836 277.744 146.837 277.745 146.837C277.747 146.837 277.751 146.836 277.756 146.834C277.759 146.833 277.762 146.831 277.763 146.83C277.765 146.828 277.767 146.826 277.768 146.822C277.77 146.818 277.771 146.814 277.771 146.812C277.771 146.811 277.77 146.806 277.768 146.802C277.767 146.798 277.765 146.796 277.763 146.795C277.762 146.793 277.759 146.791 277.756 146.79C277.751 146.788 277.747 146.787 277.745 146.787C277.744 146.787 277.74 146.788 277.735 146.79C277.731 146.791 277.729 146.793 277.727 146.795C277.726 146.796 277.724 146.798 277.722 146.802ZM277.745 147.818C278.314 147.818 278.774 147.368 278.774 146.812C278.774 146.257 278.314 145.806 277.745 145.806C277.177 145.806 276.716 146.257 276.716 146.812C276.716 147.368 277.177 147.818 277.745 147.818Z" fill="#32D74B"/>
<path d="M269.748 56.9749C269.112 48.2677 270.698 31.5441 292.051 30.549C290.78 14.3786 306.032 8.78114 316.2 13.1346C327.639 0.0739247 375.3 -14.8529 384.833 41.1222M269.748 56.9749C271.069 75.0769 296.711 77.8167 305.396 72.2192M269.748 56.9749H250.683M384.833 41.1222C390.976 44.8538 398.692 53.7995 391.762 64.4382C384.833 75.0769 370.852 77.1947 365.768 72.8411M384.833 41.1222H427.35M365.768 72.8411C359.837 75.5362 344.902 79.5095 332.087 75.3289C331.55 75.1536 331.12 75.0767 330.755 75.0769M365.768 72.8411V94.2914H365.707M305.396 72.2192C307.242 71.0297 312.593 74.3619 319.316 75.3289C328.713 74.7879 328.318 75.0781 330.755 75.0769M305.396 72.2192V105.486M305.396 105.486H303.277V108.703H305.386H307.495V105.486H305.396ZM365.707 94.2914H363.165V97.6233H368.249V94.2914H365.707ZM250.683 56.9749V55.109H246.87V58.7163H250.683V56.9749ZM427.35 41.1222V39.134H430.852V43.2566H427.35V41.1222ZM330.755 75.0769V95.5353M330.755 95.5353H328.213V98.9116H333.297V95.5353H330.755Z" stroke="#616161" stroke-width="2"/>
<path d="M233.427 287.778V407.591H430.325M233.427 287.778H265.058M233.427 287.778L265.058 264.259M233.427 287.778L219.985 279.533M430.325 407.591L529.433 331.065V263.818M430.325 407.591V287.778M529.433 214.087L652 184.455L552.892 258.147L529.433 263.818M529.433 214.087L501.23 235.057M529.433 214.087L501.23 214.215M430.325 287.778L529.433 263.818M430.325 287.778H415.301M430.325 287.778L461.692 264.455L477.8 252.478M265.058 287.778H408.711M265.058 287.778V264.259M408.711 287.778V194.247M408.711 287.778H415.301M265.058 264.259V184.455L175.966 250.417L219.985 279.533M265.058 264.259V173.118M367.065 140.653H340.179H265.058V173.118M367.065 140.653H376.027M367.065 140.653V120.555M501.23 235.057V214.215M501.23 235.057L477.8 252.478M501.23 214.215V111.279H367.065V120.555M219.985 279.533H71.3228V173.118M71.3228 173.118L2 148.383L95.0454 90.6664L137.746 111.097M71.3228 173.118L137.746 131.635V135.027M71.3228 173.118H137.746M265.058 173.118H233.427M233.427 120.555H367.065M137.746 173.118V143.229L182.819 143.187M137.746 173.118H233.427M233.427 173.118V143.229L188.618 143.223M182.819 143.187V134.984L137.746 135.027M182.819 143.187L188.618 143.223M137.746 135.027V114.65V100.715H182.556M188.618 143.223V135.02L233.427 135.027V100.715H188.354M182.556 100.715V86.5438H137.746V53.3054H233.427V86.5438H188.354V100.715M182.556 100.715H188.354M376.027 140.653H491.74M376.027 140.653H408.711V158.432M491.74 140.653V194.247M491.74 140.653L408.711 179.817M491.74 194.247H408.711M491.74 194.247L408.711 158.432M408.711 194.247V158.432M415.301 287.778V252.478M491.477 242.172V235.057H443.768M443.768 235.057H415.301V252.478M443.768 235.057V252.478M443.768 277.782V252.478M415.301 252.478H443.768M477.8 252.478H443.768M443.768 252.478L452.203 255.055L449.303 256.085L448.776 258.662L443.768 252.478Z" stroke="#616161"/>
<path d="M448.776 258.662L443.768 252.478L451.939 255.055L449.303 256.085L448.776 258.662Z" fill="#616161"/>
<path d="M137.746 131.635L71.3228 173.118H137.746V143.188H182.819L182.851 134.984H137.746V131.635Z" fill="#616161"/>
<path d="M188.618 134.984V143.23H233.428V173.118H265.058V140.653H340.443L367.065 126.482V120.555H233.428V134.984H188.618Z" fill="#616161"/>
<path d="M265.057 264.331L233.427 287.778L265.057 287.52V264.331Z" fill="#616161"/>
<path d="M501.493 214.344L529.433 214.087L501.23 234.957L501.493 214.344Z" fill="#616161"/>
<path d="M335.887 216.071C335.887 217.596 334.622 218.833 333.061 218.833C331.5 218.833 330.235 217.596 330.235 216.071C330.235 214.545 331.5 213.308 333.061 213.308C334.622 213.308 335.887 214.545 335.887 216.071Z" fill="url(#paint0_linear_570_217)"/>
<path fill-rule="evenodd" clip-rule="evenodd" d="M333.061 218.318C334.331 218.318 335.36 217.312 335.36 216.071C335.36 214.829 334.331 213.823 333.061 213.823C331.792 213.823 330.762 214.829 330.762 216.071C330.762 217.312 331.792 218.318 333.061 218.318ZM333.061 218.833C334.622 218.833 335.887 217.596 335.887 216.071C335.887 214.545 334.622 213.308 333.061 213.308C331.5 213.308 330.235 214.545 330.235 216.071C330.235 217.596 331.5 218.833 333.061 218.833Z" fill="url(#paint1_linear_570_217)"/>
<path fill-rule="evenodd" clip-rule="evenodd" d="M330.292 225.691C332.362 224.169 334.65 221.646 336.622 218.468C338.594 215.29 339.826 212.14 340.25 209.643C340.463 208.391 340.464 207.358 340.294 206.587C340.125 205.819 339.812 205.409 339.473 205.208C339.133 205.006 338.616 204.925 337.842 205.133C337.064 205.342 336.127 205.82 335.09 206.583C333.021 208.105 330.732 210.628 328.76 213.806C326.788 216.984 325.556 220.134 325.132 222.631C324.919 223.882 324.918 224.916 325.088 225.687C325.257 226.454 325.57 226.865 325.909 227.066C326.249 227.267 326.766 227.349 327.54 227.141C328.318 226.932 329.255 226.454 330.292 225.691ZM325.363 227.947C328.032 229.53 333.476 225.525 337.524 219.002C341.571 212.48 342.689 205.909 340.02 204.326C337.35 202.744 331.906 206.749 327.858 213.271C323.811 219.794 322.694 226.365 325.363 227.947Z" fill="url(#paint2_linear_570_217)"/>
<path fill-rule="evenodd" clip-rule="evenodd" d="M340.788 222.726C340.361 220.229 339.126 217.081 337.15 213.905C335.175 210.729 332.883 208.208 330.812 206.688C329.774 205.927 328.836 205.449 328.059 205.241C327.284 205.034 326.767 205.116 326.428 205.318C326.088 205.52 325.776 205.93 325.608 206.698C325.439 207.469 325.441 208.503 325.655 209.754C326.082 212.25 327.317 215.399 329.293 218.575C331.268 221.751 333.56 224.271 335.631 225.791C336.669 226.553 337.606 227.03 338.384 227.238C339.159 227.445 339.676 227.364 340.015 227.162C340.355 226.96 340.667 226.549 340.835 225.782C341.004 225.011 341.002 223.977 340.788 222.726ZM340.563 228.043C343.23 226.457 342.106 219.888 338.051 213.369C333.996 206.851 328.547 202.852 325.88 204.437C323.213 206.023 324.337 212.592 328.392 219.111C332.447 225.629 337.896 229.628 340.563 228.043Z" fill="url(#paint3_linear_570_217)"/>
<path fill-rule="evenodd" clip-rule="evenodd" d="M342.763 213.113C340.341 212.218 336.936 211.676 333.134 211.746C329.333 211.816 325.951 212.484 323.565 213.468C322.37 213.961 321.476 214.513 320.9 215.066C320.327 215.616 320.14 216.094 320.147 216.482C320.155 216.87 320.361 217.34 320.955 217.869C321.551 218.4 322.466 218.918 323.68 219.367C326.102 220.262 329.506 220.804 333.308 220.734C337.11 220.664 340.491 219.997 342.877 219.012C344.073 218.519 344.967 217.967 345.542 217.415C346.115 216.864 346.303 216.387 346.295 215.999C346.288 215.61 346.082 215.14 345.488 214.611C344.891 214.081 343.977 213.562 342.763 213.113ZM347.349 215.979C347.29 212.928 340.917 210.572 333.114 210.716C325.312 210.86 319.034 213.45 319.093 216.501C319.152 219.552 325.525 221.909 333.328 221.764C341.131 221.62 347.408 219.03 347.349 215.979Z" fill="url(#paint4_linear_570_217)"/>
<rect x="432.434" y="124.678" width="14.7607" height="2.0613" rx="1.03065" fill="#616161"/>
<rect x="454.575" y="124.678" width="14.7607" height="2.0613" rx="1.03065" fill="#616161"/>
<rect x="476.716" y="124.678" width="14.7607" height="2.0613" rx="1.03065" fill="#616161"/>
<rect x="372.336" y="123.647" width="18.9781" height="4.12259" rx="2.0613" fill="#616161"/>
<path fill-rule="evenodd" clip-rule="evenodd" d="M135.55 374.673C139.121 374.673 142.016 371.848 142.016 368.363C142.016 364.878 139.121 362.053 135.55 362.053C131.979 362.053 129.083 364.878 129.083 368.363C129.083 371.848 131.979 374.673 135.55 374.673ZM135.55 376.299C140.042 376.299 143.683 372.746 143.683 368.363C143.683 363.98 140.042 360.426 135.55 360.426C131.058 360.426 127.417 363.98 127.417 368.363C127.417 372.746 131.058 376.299 135.55 376.299Z" fill="#616161"/>
<path fill-rule="evenodd" clip-rule="evenodd" d="M537.216 68.1035C540.788 68.1035 543.683 65.2784 543.683 61.7934C543.683 58.3084 540.788 55.4833 537.216 55.4833C533.645 55.4833 530.75 58.3084 530.75 61.7934C530.75 65.2784 533.645 68.1035 537.216 68.1035ZM537.216 69.7298C541.708 69.7298 545.35 66.1766 545.35 61.7934C545.35 57.4102 541.708 53.8569 537.216 53.8569C532.725 53.8569 529.083 57.4102 529.083 61.7934C529.083 66.1766 532.725 69.7298 537.216 69.7298Z" fill="#616161"/>
<defs>
<linearGradient id="paint0_linear_570_217" x1="336.477" y1="218.833" x2="329.129" y2="218.494" gradientUnits="userSpaceOnUse">
<stop offset="0.474799" stop-color="#367C93"/>
<stop offset="1" stop-color="#106683" stop-opacity="0.47"/>
</linearGradient>
<linearGradient id="paint1_linear_570_217" x1="336.477" y1="218.833" x2="329.129" y2="218.494" gradientUnits="userSpaceOnUse">
<stop offset="0.474799" stop-color="#367C93"/>
<stop offset="1" stop-color="#106683" stop-opacity="0.47"/>
</linearGradient>
<linearGradient id="paint2_linear_570_217" x1="331.204" y1="231.411" x2="318.917" y2="223.473" gradientUnits="userSpaceOnUse">
<stop offset="0.474799" stop-color="#367C93"/>
<stop offset="1" stop-color="#106683" stop-opacity="0.47"/>
</linearGradient>
<linearGradient id="paint3_linear_570_217" x1="346.401" y1="224.573" x2="333.832" y2="232.077" gradientUnits="userSpaceOnUse">
<stop offset="0.474799" stop-color="#367C93"/>
<stop offset="1" stop-color="#106683" stop-opacity="0.47"/>
</linearGradient>
<linearGradient id="paint4_linear_570_217" x1="350.299" y1="221.771" x2="313.969" y2="217.587" gradientUnits="userSpaceOnUse">
<stop offset="0.474799" stop-color="#367C93"/>
<stop offset="1" stop-color="#106683" stop-opacity="0.47"/>
</linearGradient>
</defs>
</svg>
