<?xml version="1.0" standalone="no"?>
<!DOCTYPE svg PUBLIC "-//W3C//DTD SVG 20010904//EN"
 "http://www.w3.org/TR/2001/REC-SVG-20010904/DTD/svg10.dtd">
<svg version="1.0" xmlns="http://www.w3.org/2000/svg"
 width="700.000000pt" height="700.000000pt" viewBox="0 0 700.000000 700.000000"
 preserveAspectRatio="xMidYMid meet">
<metadata>
Created by potrace 1.14, written by Peter Selinger 2001-2017
</metadata>
<g transform="translate(0.000000,700.000000) scale(0.100000,-0.100000)"
fill="#000000" stroke="none">
<path d="M1780 6703 c-222 -21 -477 -122 -665 -263 -88 -66 -228 -204 -263
-259 -9 -14 -19 -28 -23 -31 -15 -13 -104 -170 -134 -238 -57 -131 -86 -242
-104 -411 -9 -75 -6 -3435 2 -3471 3 -14 8 -41 11 -60 18 -118 71 -268 142
-398 52 -97 70 -124 134 -202 162 -200 364 -340 610 -423 138 -47 268 -69 415
-69 109 -1 149 2 225 17 14 2 36 6 50 9 54 9 156 39 219 64 338 134 609 402
744 737 77 191 96 302 98 576 l1 157 257 -2 256 -1 1 -115 c2 -129 11 -292 19
-330 3 -14 8 -38 11 -55 9 -44 9 -45 28 -110 113 -384 406 -704 783 -856 82
-32 204 -66 272 -75 25 -3 71 -9 101 -13 127 -16 306 0 460 40 85 22 247 85
271 105 8 8 19 14 24 14 4 0 31 14 59 32 347 217 585 591 623 979 4 41 8 839
7 1774 l0 1700 -22 107 c-108 523 -496 924 -1008 1043 -128 30 -342 39 -478
21 -435 -57 -837 -354 -1024 -758 -32 -69 -79 -204 -88 -251 -2 -17 -6 -33 -8
-36 -2 -3 -7 -28 -10 -56 -4 -27 -8 -66 -11 -85 -2 -19 -5 -62 -6 -95 l-2 -61
-253 1 c-139 0 -254 2 -257 5 -2 3 -7 53 -11 112 -3 59 -8 113 -11 120 -2 7
-6 27 -8 43 -22 154 -125 384 -238 534 -217 290 -510 466 -879 527 -34 6 -277
11 -320 7z m278 -593 c218 -41 416 -192 517 -394 52 -106 72 -175 81 -290 l6
-83 -44 -7 c-121 -18 -178 -33 -307 -83 -82 -31 -184 -81 -231 -113 -8 -6 -23
-13 -32 -16 -10 -4 -18 -9 -18 -13 0 -4 -14 -15 -32 -25 -30 -18 -40 -26 -90
-69 -162 -136 -293 -305 -383 -492 -40 -82 -89 -216 -99 -269 -2 -12 -9 -43
-16 -71 -24 -107 -33 -324 -18 -465 22 -208 110 -444 237 -635 63 -96 72 -106
191 -225 205 -206 461 -341 753 -397 l89 -17 -5 -186 c-6 -198 -17 -257 -67
-365 -76 -165 -200 -288 -367 -366 -192 -90 -415 -91 -618 -4 -117 50 -263
181 -334 299 -41 68 -88 202 -97 276 -4 30 -7 798 -7 1705 0 1545 1 1655 17
1730 50 224 193 409 395 510 63 32 159 63 219 71 26 3 48 7 49 8 7 6 154 -4
211 -14z m3146 6 c226 -34 444 -193 549 -401 38 -77 65 -168 73 -248 9 -92 11
-3202 2 -3324 -3 -51 -12 -110 -19 -130 -7 -21 -14 -43 -15 -49 -5 -29 -61
-136 -99 -189 -202 -283 -566 -389 -890 -260 -189 76 -353 248 -420 442 -34
96 -42 162 -44 339 -1 140 1 154 17 155 21 1 50 5 82 12 30 6 103 21 110 22 3
0 37 11 75 24 547 181 923 640 1001 1221 8 60 8 277 0 325 -2 17 -7 50 -11 75
-4 25 -14 72 -22 105 -8 33 -16 65 -17 70 -16 81 -114 290 -189 401 -67 101
-90 128 -198 234 -200 198 -462 335 -737 386 -48 9 -93 18 -101 20 -11 3 -12
21 -7 84 26 304 211 546 494 650 44 16 105 32 138 35 32 4 60 8 61 9 5 4 121
-1 167 -8z m-1447 -2218 l-2 -873 -256 -3 -257 -2 0 875 -1 875 259 0 258 0
-1 -872z m-1098 -3 l-1 -855 -26 6 c-96 22 -247 95 -329 160 -295 234 -409
614 -292 967 89 266 296 470 569 558 30 10 60 18 67 18 10 1 12 -191 12 -854z
m1778 835 c286 -89 502 -316 586 -615 25 -87 32 -316 12 -382 -7 -24 -12 -43
-10 -43 6 0 -40 -129 -62 -175 -60 -130 -206 -290 -330 -364 -78 -46 -195 -95
-255 -106 l-37 -7 0 856 c0 804 1 856 17 856 9 0 45 -9 79 -20z"/>
</g>
</svg>
