<svg width="48" height="48" viewBox="0 0 48 48" fill="none" xmlns="http://www.w3.org/2000/svg">
<g filter="url(#filter0_d_592_99)">
<path fill-rule="evenodd" clip-rule="evenodd" d="M18.2288 32.8837L18.2288 11.1144C18.2288 8.28979 15.939 6 13.1144 6C10.2898 6 8 8.2898 8 11.1144L8 32.8837C8 35.7083 10.2898 37.9981 13.1144 37.9981C15.939 37.9981 18.2288 35.7083 18.2288 32.8837ZM13.1144 2C8.08065 2 4 6.08066 4 11.1144L4 32.8837C4 37.9174 8.08066 41.9981 13.1144 41.9981C18.1481 41.9981 22.2288 37.9174 22.2288 32.8837L22.2288 11.1144C22.2288 6.08065 18.1481 2 13.1144 2Z" fill="url(#paint0_linear_592_99)"/>
<path fill-rule="evenodd" clip-rule="evenodd" d="M29.7712 11.1163V32.8856C29.7712 35.7102 32.061 38 34.8856 38C37.7102 38 40 35.7102 40 32.8856V11.1163C40 8.29172 37.7102 6.00192 34.8856 6.00192C32.061 6.00192 29.7712 8.29172 29.7712 11.1163ZM34.8856 42C39.9193 42 44 37.9193 44 32.8856V11.1163C44 6.08258 39.9193 2.00192 34.8856 2.00192C29.8519 2.00192 25.7712 6.08258 25.7712 11.1163V32.8856C25.7712 37.9193 29.8519 42 34.8856 42Z" fill="url(#paint1_linear_592_99)"/>
<path fill-rule="evenodd" clip-rule="evenodd" d="M19.4682 27.2843H28.6352C31.9487 27.2843 34.6348 24.5983 34.6348 21.2848C34.6348 17.9714 31.9487 15.2853 28.6352 15.2853L19.4682 15.2853C16.1547 15.2853 13.4687 17.9714 13.4687 21.2848C13.4687 24.5983 16.1547 27.2843 19.4682 27.2843ZM38.6348 21.2848C38.6348 15.7622 34.1578 11.2853 28.6352 11.2853L19.4682 11.2853C13.9456 11.2853 9.46866 15.7622 9.46866 21.2848C9.46866 26.8074 13.9456 31.2843 19.4682 31.2843H28.6352C34.1578 31.2843 38.6348 26.8074 38.6348 21.2848Z" fill="#222222"/>
</g>
<defs>
<filter id="filter0_d_592_99" x="0" y="0" width="48" height="48" filterUnits="userSpaceOnUse" color-interpolation-filters="sRGB">
<feFlood flood-opacity="0" result="BackgroundImageFix"/>
<feOffset dy="2"/>
<feGaussianBlur stdDeviation="2"/>
<feComposite in2="hardAlpha" operator="out"/>
<feBlend mode="normal" in2="BackgroundImageFix" result="effect1_dropShadow_592_99"/>
<feBlend mode="normal" in="SourceGraphic" in2="effect1_dropShadow_592_99" result="shape"/>
</filter>
<linearGradient id="paint0_linear_592_99" x1="-7" y1="-7" x2="13.7321" y2="66.7819" gradientUnits="userSpaceOnUse">
<stop stop-color="#367C93"/>
<stop offset="1" stop-color="#5FD5FA"/>
</linearGradient>
<linearGradient id="paint1_linear_592_99" x1="-7" y1="-7" x2="13.7321" y2="66.7819" gradientUnits="userSpaceOnUse">
<stop stop-color="#367C93"/>
<stop offset="1" stop-color="#5FD5FA"/>
</linearGradient>
</defs>
</svg>
