<svg width="20" height="17" viewBox="0 0 20 17" fill="none" xmlns="http://www.w3.org/2000/svg">
<path d="M0 11C0 10.4477 0.447715 10 1 10V10C1.55228 10 2 10.4477 2 11V12.5C2 13.8807 3.11929 15 4.5 15H15.5C16.8807 15 18 13.8807 18 12.5V11C18 10.4477 18.4477 10 19 10V10C19.5523 10 20 10.4477 20 11V15C20 16.11 19.11 17 18 17H2C0.9 17 0 16.11 0 15V11ZM7.264 10.3085C8.78224 11.802 11.2177 11.802 12.736 10.3084L14.8307 8.24761C15.2266 7.85815 15.2281 7.22035 14.834 6.82906V6.82906C14.4446 6.4424 13.816 6.44301 13.4273 6.83042L13.2151 7.04197C12.3965 7.85793 11 7.27815 11 6.12237V1C11 0.447715 10.5523 0 10 0V0C9.44772 0 9 0.447715 9 1V6.13C9 7.28136 7.60796 7.85796 6.79383 7.04383L6.58709 6.83709C6.19658 6.44658 5.56342 6.44658 5.17291 6.83709V6.83709C4.78013 7.22987 4.78274 7.8675 5.17872 8.25705L7.264 10.3085Z" fill="white"/>
</svg>
